<svg width="60" height="60" viewBox="0 0 60 60" fill="none" xmlns="http://www.w3.org/2000/svg">
<path d="M30.3537 16.4747C29.7687 16.7903 29.404 17.3904 29.404 18.0432V28.2068H9.33574C8.32241 28.2068 7.5 29.0101 7.5 29.9999C7.5 30.9898 8.32241 31.7931 9.33574 31.7931H29.404V41.9567C29.404 42.6118 29.7687 43.2119 30.3537 43.5251C30.9387 43.8431 31.6534 43.8216 32.2188 43.4749L51.6433 31.5181C52.1769 31.1882 52.5 30.6168 52.5 29.9999C52.5 29.3831 52.1769 28.8117 51.6433 28.4817L32.2188 16.525C31.9202 16.3432 31.58 16.25 31.2397 16.25C30.9362 16.25 30.6303 16.3265 30.3537 16.4747Z" fill="#3F3D56"/>
</svg>
