<svg width="150" height="97" viewBox="0 0 150 97" fill="none" xmlns="http://www.w3.org/2000/svg">
<g clip-path="url(#clip0)">
<path d="M150 95.884H0V96.9802H150V95.884Z" fill="#85848B"/>
<path d="M118.839 76.5292C118.839 77.3724 113.924 79.8305 108.086 79.8305C102.248 79.8305 97.699 77.3724 97.699 76.5292C97.699 75.6861 102.431 75.9576 108.275 75.9576C114.118 75.9576 118.839 75.6846 118.839 76.5292Z" fill="#504F60"/>
<path opacity="0.2" d="M118.839 76.5292C118.839 77.3724 113.924 79.8305 108.086 79.8305C102.248 79.8305 97.699 77.3724 97.699 76.5292" fill="black"/>
<path d="M60.0453 61.0573C60.9929 61.1788 61.9761 61.2559 62.8836 60.9615C63.0265 60.9172 63.1837 60.8186 63.1695 60.6757C63.1592 60.6238 63.1372 60.5749 63.1052 60.5328C62.7631 60.0197 62.4757 59.4722 62.2477 58.8992C62.2386 58.8693 62.2201 58.8433 62.1948 58.8249C62.1652 58.8142 62.1329 58.8142 62.1033 58.8249C61.6846 58.935 61.323 59.2051 60.9071 59.3208C60.6951 59.379 60.4738 59.3955 60.2554 59.3694C60.0668 59.348 59.8095 59.1922 59.638 59.2122C59.7352 59.8368 59.9725 60.4199 60.0453 61.0573Z" fill="#4978D2"/>
<path d="M77.9654 59.4753C78.5899 59.0465 79.2373 58.5963 79.6061 57.9346C79.6324 57.895 79.6477 57.8491 79.6504 57.8017C79.6441 57.755 79.6259 57.7107 79.5975 57.6731C79.2463 57.1147 78.7941 56.6266 78.2641 56.2339C77.9876 56.4292 77.7377 56.6598 77.5209 56.9199C77.3637 57.0857 76.9293 57.3486 76.925 57.6016C76.925 57.7445 77.0908 57.9103 77.1679 58.0304C77.2723 58.1847 77.3709 58.3419 77.4652 58.502C77.5195 58.5806 78.0154 59.4438 77.9654 59.4753Z" fill="#4978D2"/>
<path d="M63.7598 62.9709C63.7709 63.1182 63.7305 63.2647 63.6455 63.3854C63.5787 63.4525 63.4962 63.5017 63.4054 63.5283C62.0806 64.0028 60.5471 63.4111 59.2251 63.8785C58.9536 63.9742 58.6964 64.1128 58.4234 64.2043C58.098 64.3022 57.7622 64.3616 57.423 64.3815C56.9557 64.4258 56.4855 64.4544 56.0167 64.4673C55.6606 64.4925 55.3027 64.4611 54.9563 64.3744C54.7831 64.3301 54.6212 64.2498 54.4811 64.1387C54.341 64.0276 54.2258 63.8883 54.1431 63.7298C54.0713 63.5878 54.0569 63.4234 54.1031 63.2711C54.1238 63.2188 54.1533 63.1705 54.1903 63.1282C54.2799 63.0276 54.3851 62.9422 54.5018 62.8752L54.9892 62.5608C55.2177 62.3992 55.466 62.2676 55.728 62.1692C55.921 62.1063 56.1253 62.0791 56.3211 62.0263C57.0057 61.8262 57.5287 61.2831 58.0147 60.7615L58.6778 60.054C58.7398 59.9762 58.8184 59.9132 58.9079 59.8697C58.9998 59.839 59.0976 59.8297 59.1937 59.8425C59.8378 59.8885 60.4598 60.097 61.0016 60.4485C61.14 60.5523 61.2896 60.6405 61.4474 60.7114C61.8362 60.8629 62.3349 60.7486 62.6937 60.5571C62.8637 60.4656 62.8266 60.4142 62.898 60.2512C62.9695 60.0883 63.1438 59.984 63.2953 60.1326C63.341 60.184 63.3734 60.2459 63.3896 60.3127C63.5326 60.7843 63.4783 61.2917 63.4783 61.7862C63.4741 61.8635 63.4837 61.9409 63.5068 62.0148C63.5433 62.0893 63.5869 62.1602 63.6369 62.2264C63.6471 62.2439 63.6561 62.262 63.664 62.2807C63.7515 62.4996 63.7843 62.7365 63.7598 62.9709Z" fill="#514E7F"/>
<path d="M63.7598 62.9709C63.771 63.1182 63.7306 63.2647 63.6455 63.3854C63.5788 63.4525 63.4962 63.5016 63.4054 63.5283C62.0806 64.0028 60.5471 63.4111 59.2252 63.8784C58.9536 63.9742 58.6964 64.1128 58.4234 64.2043C58.098 64.3021 57.7622 64.3616 57.423 64.3815C56.9557 64.4258 56.4855 64.4544 56.0167 64.4672C55.6606 64.4925 55.3027 64.4611 54.9563 64.3743C54.7831 64.33 54.6212 64.2497 54.4811 64.1387C54.341 64.0276 54.2258 63.8883 54.1431 63.7298C54.0713 63.5877 54.0569 63.4234 54.1031 63.271C54.1238 63.2188 54.1533 63.1705 54.1903 63.1281C54.2675 63.2896 54.3232 63.504 54.3718 63.5812C54.4374 63.6955 54.5267 63.7946 54.6337 63.8717C54.7406 63.9489 54.8628 64.0023 54.992 64.0285C55.1855 64.0404 55.3794 64.0156 55.5637 63.9556C56.7642 63.6583 58.0404 63.6541 59.1937 63.2039C59.5896 63.0481 59.9669 62.8409 60.3828 62.7466C60.7986 62.6522 61.2402 62.678 61.669 62.6422C62.3464 62.5879 63.0024 62.3836 63.6698 62.2764C63.756 62.4971 63.7869 62.7355 63.7598 62.9709Z" fill="#464353"/>
<path d="M80.9997 59.388C80.9368 59.8911 80.6181 60.3241 80.2679 60.6914C79.9178 61.0587 79.5219 61.3888 79.2433 61.8119C78.9003 62.3364 78.7459 62.9866 78.3 63.4296C78.1289 63.5908 77.9365 63.7278 77.7284 63.8369C77.4951 63.9745 77.2485 64.088 76.9923 64.1757C76.3264 64.3886 75.6089 64.34 74.9129 64.2886C74.687 64.2864 74.4633 64.2433 74.2527 64.1614C74.1568 64.1127 74.065 64.0563 73.9783 63.9927C73.8038 63.8853 73.6569 63.7385 73.5495 63.564C73.4968 63.4691 73.4819 63.3578 73.5081 63.2524C73.5478 63.1364 73.6162 63.0322 73.7067 62.9495C73.8633 62.7866 74.0315 62.6352 74.2098 62.4964C74.4545 62.3385 74.6749 62.146 74.8643 61.9248C74.9805 61.75 75.0661 61.5567 75.1173 61.3531C75.2185 60.9965 75.2803 60.6299 75.3017 60.2598C75.3009 60.0139 75.3263 59.7686 75.3774 59.5281C75.4832 59.1508 75.7633 58.8135 75.7318 58.4234C75.7191 58.3675 75.7241 58.3091 75.7461 58.2562C75.7794 58.2148 75.8258 58.1861 75.8776 58.1747C76.096 58.0876 76.3263 58.0342 76.5607 58.0161C76.6783 58.008 76.7962 58.026 76.906 58.0691C77.0157 58.1121 77.1145 58.1789 77.1953 58.2647C77.2925 58.3819 77.3568 58.5506 77.4997 58.5963C77.5705 58.6156 77.6448 58.6186 77.7169 58.6049C78.0685 58.5691 78.4401 58.5248 78.7173 58.2976C78.8455 58.1827 78.9485 58.0424 79.0198 57.8858C79.0911 57.7291 79.1292 57.5594 79.1318 57.3872C79.1318 57.2572 79.0732 57.1214 79.2747 57.1014C79.4262 57.0814 79.5462 57.2443 79.6234 57.3444C79.9021 57.7174 80.1879 58.1075 80.2923 58.562C80.3328 58.5462 80.3759 58.538 80.4194 58.5377C80.5086 58.5369 80.5966 58.5577 80.676 58.5982C80.7553 58.6388 80.8237 58.698 80.8753 58.7707C80.9892 58.955 81.0333 59.174 80.9997 59.388Z" fill="#514E7F"/>
<path d="M80.9996 59.388C80.9367 59.8911 80.618 60.3241 80.2679 60.6914C79.9178 61.0587 79.5219 61.3889 79.2432 61.8119C78.9002 62.3364 78.7459 62.9867 78.3 63.4297C78.1289 63.5908 77.9365 63.7278 77.7284 63.837C77.4952 63.9746 77.2486 64.0881 76.9924 64.1757C76.3264 64.3887 75.609 64.3401 74.913 64.2886C74.687 64.2864 74.4633 64.2434 74.2527 64.1614C74.1569 64.1127 74.0651 64.0563 73.9783 63.9928C73.8039 63.8853 73.657 63.7385 73.5496 63.564C73.6836 63.4996 73.8297 63.4645 73.9783 63.4611C74.287 63.4783 74.5128 63.7698 74.8087 63.8599C75.2303 63.9871 75.6504 63.6898 76.0777 63.5883C76.3564 63.5226 76.6494 63.5397 76.9252 63.4454C77.155 63.3566 77.3674 63.2279 77.5526 63.0653C77.8063 62.8838 78.0322 62.6662 78.2228 62.4193C78.3812 62.1724 78.5129 61.9094 78.6158 61.6347C78.8415 61.1083 79.1071 60.5999 79.4104 60.1141C79.4553 60.0371 79.5095 59.9661 79.5719 59.9025C79.6391 59.8411 79.7148 59.7982 79.7906 59.7439C80.0764 59.5281 80.195 59.1722 80.2951 58.8235C80.3222 58.7175 80.36 58.6146 80.408 58.5163C80.4971 58.5155 80.5851 58.5362 80.6645 58.5768C80.7439 58.6174 80.8123 58.6765 80.8639 58.7492C80.9868 58.9379 81.0352 59.1656 80.9996 59.388Z" fill="#464353"/>
<path d="M51.032 14.8302C51.3877 15.0968 51.6804 15.4383 51.8894 15.8306C52.0895 16.2222 53.2428 19.2606 53.1757 19.7022C53.5515 19.3234 55.0336 19.262 55.4137 18.8833C55.5724 18.7246 56.4284 17.9329 56.557 17.7485C56.6857 17.5642 57.6403 17.1769 57.7447 16.9825C58.1348 16.2837 54.9778 13.6355 55.3823 12.9452C55.4047 12.9135 55.4162 12.8754 55.4151 12.8366C55.4059 12.804 55.3876 12.7747 55.3623 12.7523C55.1036 12.4879 54.7606 12.3235 54.449 12.1277C54.1375 11.9319 53.8374 11.659 53.753 11.2988C53.4559 11.4356 53.1832 11.62 52.9456 11.8448C52.3663 12.3411 51.797 12.8475 51.2378 13.3639C51.0191 13.5669 50.5961 13.837 50.4946 14.1271C50.3745 14.4386 50.8233 14.6602 51.032 14.8302Z" fill="#A1616A"/>
<path d="M56.1424 13.7054C55.658 14.0309 55.2054 14.4013 54.7904 14.8116C54.3988 15.1989 54.0273 15.6477 53.9329 16.1893C53.8929 16.4022 53.8986 16.618 53.8658 16.8338C53.7229 17.7699 52.914 18.4559 52.5567 19.332C52.4532 19.6024 52.377 19.8825 52.3294 20.168C52.229 20.7094 52.1741 21.2582 52.1651 21.8087C52.1565 22.3418 52.6796 22.7091 52.8711 23.2064C53.0626 23.7037 53.114 24.2154 53.2112 24.7256C53.3942 25.6888 53.73 26.6178 54.0687 27.541C54.7733 29.4875 57.0571 34.8682 57.7616 36.8161C59.9211 36.2745 65.6691 35.0297 67.5813 33.8878C68.2187 33.5077 63.1581 29.2188 63.8398 28.923C63.8788 28.9169 63.9158 28.9019 63.9479 28.879C63.9801 28.8562 64.0065 28.8262 64.0251 28.7914C64.0437 28.7566 64.0539 28.718 64.055 28.6786C64.056 28.6392 64.0479 28.6 64.0313 28.5643C63.3496 25.5831 61.2173 23.1335 60.2498 20.2309C59.9139 19.2234 59.3108 18.363 58.8535 17.4055C58.439 16.538 58.2175 15.5791 57.7216 14.7544C57.6281 14.5845 57.5058 14.4322 57.36 14.3043C57.2364 14.2094 57.1026 14.1284 56.9613 14.0627C56.6783 13.9255 56.4154 13.8441 56.1424 13.7054Z" fill="#514E7F"/>
<path d="M51.1463 14.4915C53.013 14.4915 54.5262 12.9783 54.5262 11.1116C54.5262 9.24493 53.013 7.73169 51.1463 7.73169C49.2796 7.73169 47.7664 9.24493 47.7664 11.1116C47.7664 12.9783 49.2796 14.4915 51.1463 14.4915Z" fill="#A1616A"/>
<path d="M54.5849 12.6994C54.7533 12.544 54.9649 12.4434 55.1917 12.4107C55.4185 12.3781 55.6499 12.415 55.8554 12.5165C56.084 12.6351 56.2841 12.8752 56.2327 13.1267L57.9091 13.1525C58.1759 13.1452 58.4426 13.1696 58.7037 13.2253C58.9664 13.2825 59.2009 13.4296 59.3668 13.6412C59.3868 13.6684 59.4097 13.7012 59.444 13.7055C59.4719 13.706 59.4991 13.6969 59.5211 13.6798C59.779 13.5505 60.0695 13.5007 60.3558 13.5369C61.2618 13.5955 62.0993 14.0485 62.8096 14.6145C62.9377 14.7025 63.0371 14.8263 63.0954 14.9703C63.154 15.1604 63.084 15.3991 63.2383 15.5348C63.2383 17.1069 63.7786 18.5761 64.1387 20.1081C64.203 20.3811 64.4645 20.6226 64.646 20.837C64.8703 21.0746 65.0534 21.348 65.1877 21.6459C65.4935 22.4405 65.0719 23.3751 65.3692 24.1726C65.495 24.5099 65.7379 24.7871 65.9408 25.0801C66.2084 25.4184 66.3775 25.8239 66.4296 26.252C66.4425 26.4435 66.4182 26.6364 66.4296 26.8237C66.4488 27.0812 66.4967 27.3357 66.5725 27.5825C66.6945 28.0437 66.8222 28.5043 66.9555 28.9645C67.1728 29.7077 67.4557 30.5094 68.1217 30.9053C66.5139 31.1783 64.819 31.4455 63.2869 30.8867C63.0732 30.8138 62.8704 30.7124 62.6838 30.5852C62.1308 30.1907 61.8635 29.5162 61.6248 28.8788C61.359 28.1642 61.0889 27.4368 61.0346 26.6765C61.0351 26.4346 61.001 26.194 60.9331 25.9619C60.7774 25.5474 60.3615 25.2973 59.9842 25.0672C59.5581 24.8338 59.1721 24.5337 58.8409 24.1783C58.6765 23.9993 58.5506 23.7885 58.4709 23.5589C58.3913 23.3293 58.3596 23.0858 58.3778 22.8435C58.4064 22.6077 58.4993 22.3804 58.5079 22.1432C58.5164 21.906 58.4107 21.6344 58.1835 21.5715C57.013 21.2171 56.4542 19.8308 56.1941 18.6361C56.0818 18.0186 56.0316 17.3914 56.044 16.7639L56.0283 15.5448C55.8668 15.3979 55.7369 15.2196 55.6464 15.0208C55.556 14.8221 55.507 14.607 55.5024 14.3887C55.5179 14.2613 55.5155 14.1324 55.4952 14.0057C55.4387 13.8508 55.3467 13.7113 55.2266 13.5983C54.9681 13.3331 54.7517 13.03 54.5849 12.6994Z" fill="#464353"/>
<path d="M50.9846 16.5637C50.9461 16.941 51.0318 17.3283 50.9475 17.6984C50.9146 17.8414 50.8574 17.9843 50.816 18.1172C50.6893 18.6499 50.7441 19.2098 50.9718 19.7078C51.1991 20.201 51.4713 20.6722 51.785 21.1155C51.891 21.2669 51.9784 21.4305 52.0451 21.6029C52.0991 21.7838 52.1327 21.9703 52.1451 22.1588C52.2279 22.9156 52.3606 23.6661 52.5424 24.4054C52.7025 25.0457 54.5204 30.5193 54.9434 31.0266C55.0201 31.139 55.1365 31.2181 55.2692 31.2481C55.3649 31.2517 55.46 31.2321 55.5465 31.191L56.404 30.8623C56.4769 30.84 56.5445 30.803 56.6026 30.7537C56.683 30.6598 56.7266 30.54 56.7255 30.4164C56.787 29.719 54.9648 24.2068 54.7333 23.5479C54.033 21.5586 53.1012 19.6407 52.6453 17.5813C52.5181 17.0096 52.451 16.1292 52.0322 15.6734C51.8593 15.4847 51.9179 15.5647 51.7107 15.6634C51.6059 15.7088 51.5047 15.7618 51.4077 15.822C51.2864 15.9063 51.1854 16.0167 51.1123 16.145C51.0391 16.2733 50.9955 16.4164 50.9846 16.5637Z" fill="#464353"/>
<path d="M53.5871 20.3381C53.8172 21.5543 54.0545 22.7677 54.2903 23.9839L57.6459 23.105C57.6731 22.7534 57.4858 22.4275 57.3601 22.1046C57.0542 21.3371 57.0471 20.4825 56.7998 19.6936C56.6126 19.0933 56.2868 18.5417 56.111 17.9372C56.0095 17.5856 55.9581 17.2226 55.858 16.8667C55.7507 16.5173 55.6189 16.1758 55.4636 15.8449C55.2752 15.365 55.0295 14.9096 54.7319 14.4886C54.3031 14.6487 53.8458 14.8345 53.6014 15.2218C53.4761 15.44 53.4045 15.685 53.3928 15.9364C53.3342 16.6895 53.6071 17.447 53.5171 18.1958C53.4244 18.909 53.448 19.6325 53.5871 20.3381Z" fill="#4978D2"/>
<path d="M57.7017 36.5161C57.8904 37.2306 57.6174 37.9824 57.3944 38.6898C57.0588 39.7554 56.8299 40.8517 56.7113 41.9625C56.6968 42.2453 56.6399 42.5242 56.5427 42.79C56.4369 43.0287 56.2568 43.2302 56.1339 43.4574C55.7967 44.0548 55.8052 44.7837 55.8781 45.4668C55.9267 45.917 55.9996 46.3658 56.0896 46.8088C56.1997 47.3504 56.3355 47.9164 56.1768 48.4452C56.4426 48.3866 56.6227 48.731 56.6056 49.0011C56.5884 49.2712 56.5012 49.5728 56.6313 49.8057C56.96 49.9258 56.9628 50.3774 56.9528 50.7275C56.9583 51.3346 57.035 51.939 57.1815 52.5282C57.6788 54.9197 58.2067 57.3044 58.765 59.6825C59.9726 60.057 61.3832 60.4471 62.5351 59.9284C62.7494 59.8326 62.9638 59.6797 63.0124 59.4482C63.025 59.3234 63.0093 59.1974 62.9667 59.0794L62.4207 57.0929C62.2878 56.6127 62.1549 56.1168 62.2249 55.6238C62.2778 55.2565 62.4379 54.8606 62.2578 54.5362C62.1964 54.4247 62.0992 54.3375 62.0277 54.2318C61.7419 53.813 61.892 53.2528 61.9148 52.7455C61.9237 52.6316 61.916 52.517 61.892 52.4053C61.8528 52.2749 61.7981 52.1497 61.729 52.0323C61.2779 51.1564 61.0612 50.1786 61.1002 49.194C61.1173 49.0684 61.1 48.9405 61.0502 48.8239C61.0155 48.7758 60.9845 48.7251 60.9573 48.6724C60.936 48.5806 60.9466 48.4844 60.9873 48.3994C60.8235 48.2751 60.6757 48.1311 60.5471 47.9707C60.6264 47.9214 60.6934 47.8548 60.7432 47.7758C60.7929 47.6968 60.824 47.6076 60.8342 47.5148C60.8444 47.422 60.8334 47.3281 60.802 47.2402C60.7706 47.1523 60.7196 47.0727 60.6529 47.0074C60.7112 46.9957 60.7651 46.968 60.8086 46.9275C60.8521 46.887 60.8835 46.8352 60.8993 46.7779C60.9152 46.7206 60.9148 46.66 60.8983 46.6029C60.8818 46.5458 60.8498 46.4944 60.8058 46.4544C60.7358 46.4058 60.6429 46.3843 60.5929 46.3114C60.5157 46.2057 60.5786 46.0585 60.6415 45.9456L60.9744 45.3439C61.2231 44.8966 61.2788 44.3435 61.5461 43.9148C61.9291 43.2902 62.1792 42.5942 62.4265 41.9054L63.3883 39.2515L64.0357 39.8131C64.2513 39.9779 64.432 40.1838 64.5673 40.4191C64.6594 40.6516 64.7176 40.8961 64.7402 41.1451C64.9775 42.5857 65.8835 43.8347 66.2194 45.2539C66.2937 45.5697 66.3437 45.9013 66.5252 46.1714C66.5902 46.2543 66.6485 46.3422 66.6996 46.4344C66.7469 46.5749 66.7715 46.722 66.7725 46.8702C66.8024 47.1605 66.8945 47.4409 67.0425 47.6925C67.1904 47.944 67.3908 48.1607 67.6299 48.328C67.9486 48.5466 68.3445 48.6967 68.5174 49.0425C68.552 49.1496 68.6001 49.2519 68.6604 49.3469C68.8147 49.5327 69.1477 49.5542 69.2134 49.7871C69.2506 49.9172 69.182 50.073 69.2549 50.1873C69.2963 50.2402 69.351 50.2811 69.4135 50.3059L70.3439 50.7704C71.3843 51.2906 71.9159 52.4854 72.6834 53.3557C72.9484 53.6392 73.1831 53.9496 73.3837 54.2818C73.7152 54.8749 73.8682 55.6195 74.4284 55.9968C74.579 56.0749 74.716 56.1767 74.8343 56.2983C75.01 56.5298 74.9457 56.8543 74.9614 57.1458C74.9772 57.4374 75.2001 57.7846 75.4774 57.696C75.3802 58.0491 75.3802 58.4219 75.4774 58.775C76.6946 58.7125 77.8553 58.2424 78.773 57.4402C79.0445 57.203 79.306 56.9 79.3089 56.5398C79.3131 56.4777 79.2992 56.4156 79.2689 56.3612C79.2139 56.2909 79.1415 56.2362 79.0588 56.2026C78.1884 55.7309 77.9269 54.6376 77.4867 53.7501C77.1023 52.967 76.5335 52.2924 76.0576 51.565C75.0229 50.0001 74.3169 48.1064 72.752 47.0732C72.4076 46.8459 72.0074 46.6444 71.8345 46.2686C71.7387 46.0585 71.7273 45.8184 71.6516 45.6012C71.5758 45.3839 71.3943 45.1724 71.1628 45.1724C71.2914 44.858 71.2657 44.475 71.2743 44.1348C71.283 43.9839 71.2656 43.8326 71.2228 43.6875C71.1634 43.5315 71.0862 43.3829 70.9927 43.2445C70.5844 42.5532 70.3803 41.7604 70.4039 40.9579C70.4153 40.5448 70.4882 40.1189 70.3639 39.7245C70.301 39.5259 70.191 39.3444 70.1152 39.1528C70.0011 38.8058 69.9408 38.4434 69.9366 38.0781L69.8508 36.7047C69.8379 36.2473 69.7785 35.7924 69.6736 35.347C69.3878 34.2809 69.102 29.8148 68.123 29.3117C67.144 28.8087 65.4619 32.2458 64.3601 32.3129C63.8726 32.3332 63.3909 32.4262 62.9309 32.5888C62.1978 32.8632 61.5833 33.3748 60.9844 33.875L58.9579 35.5771C58.5292 35.9301 58.1748 36.2674 57.7017 36.5161Z" fill="#464353"/>
<path d="M47.9748 7.35865C48.4207 6.74984 49.1868 6.42685 49.9413 6.3997C50.6959 6.37254 51.4391 6.60978 52.1151 6.94563C52.3146 7.0591 52.5279 7.14651 52.7496 7.20573C53.1069 7.27862 53.5042 7.18144 53.8272 7.34865C54.2559 7.57588 54.3388 8.15469 54.3017 8.63488C54.2645 9.11507 54.1745 9.64814 54.4303 10.064C54.521 10.1826 54.6036 10.3072 54.6775 10.437C54.7876 10.6843 54.7233 10.9701 54.6575 11.2316C54.4903 11.0887 54.396 10.8729 54.2474 10.7071C54.0987 10.5414 53.8401 10.4299 53.6557 10.5542C53.4713 10.6786 53.4742 10.9044 53.4642 11.1073C53.4542 11.3102 53.4027 11.5532 53.2112 11.6189C53.1312 11.6371 53.0476 11.6309 52.9712 11.6011C52.8948 11.5713 52.829 11.5193 52.7825 11.4517C52.4552 11.0516 52.5867 10.4127 52.2623 10.0097C52.0779 9.78105 51.7706 9.66958 51.6006 9.42948C51.4662 9.24084 51.4319 9.00074 51.3148 8.7978C51.1976 8.59486 50.9246 8.44623 50.7431 8.58629C50.6812 8.64547 50.6295 8.71453 50.5902 8.79066C50.477 8.95277 50.3124 9.07198 50.1231 9.12904C49.9338 9.18609 49.7308 9.17764 49.5469 9.10507C49.4064 9.01879 49.2543 8.95287 49.0953 8.90928C48.9912 8.90406 48.8877 8.92807 48.7965 8.97858C48.7054 9.02909 48.6302 9.10409 48.5794 9.1951C48.4768 9.37695 48.4273 9.58391 48.4365 9.79248C48.4365 10.0783 48.4879 10.3827 48.325 10.6114C48.263 10.6975 48.1855 10.7712 48.0963 10.8286C47.8577 10.9815 47.5247 11.0844 47.3046 10.9101C47.23 10.8406 47.1745 10.7531 47.1435 10.656C47.1124 10.5589 47.1069 10.4554 47.1274 10.3556C47.1702 10.1567 47.2265 9.96088 47.296 9.76962C47.4218 9.32658 47.2574 8.82781 47.3946 8.4105C47.5383 8.03468 47.7336 7.68067 47.9748 7.35865Z" fill="#464353"/>
<path d="M49.7855 17.4413C49.764 17.5455 49.775 17.6537 49.8169 17.7514C49.8594 17.818 49.9172 17.8734 49.9856 17.9129C50.4662 18.2123 51.0128 18.3895 51.5776 18.4288C51.6545 18.4302 51.7299 18.4498 51.7977 18.486C51.9321 18.5746 51.9406 18.7718 51.8906 18.929C51.8239 19.0773 51.7894 19.2381 51.7892 19.4007C51.8306 19.6994 52.185 19.8294 52.4837 19.8737C52.9025 19.9266 53.3612 19.8994 53.6928 19.6379C53.9174 19.4331 54.0886 19.1765 54.1916 18.8905C55.0119 17.0054 55.2991 14.9217 56.1295 13.0424C56.1924 12.9197 56.2344 12.7873 56.2538 12.6508C56.2626 12.5825 56.2529 12.513 56.2257 12.4497C56.1986 12.3863 56.155 12.3314 56.0995 12.2907C55.9451 12.1949 55.705 12.2492 55.6007 12.0992C55.5492 12.0234 55.555 11.9205 55.5092 11.8405C55.4135 11.6704 55.1619 11.6976 54.9904 11.5989C54.8561 11.5275 54.7632 11.3803 54.6132 11.3517C54.5395 11.3475 54.4659 11.3606 54.3981 11.3899C54.3304 11.4192 54.2704 11.4638 54.223 11.5203C53.7357 11.9748 53.4798 12.6194 53.2083 13.2282C52.7937 14.1614 52.3083 15.0615 51.7563 15.9207C51.8206 15.8207 51.4476 15.0632 51.3018 15.0303C51.046 14.9789 50.7187 15.4276 50.5801 15.5948C50.1451 16.1223 49.8694 16.7628 49.7855 17.4413Z" fill="#4978D2"/>
<path opacity="0.1" d="M54.9776 11.7318C54.8749 11.7335 54.774 11.7583 54.6822 11.8043C54.5904 11.8503 54.5102 11.9164 54.4474 11.9976C54.2945 12.1963 54.2644 12.4592 54.2259 12.7122C54.0958 13.5136 53.8098 14.2817 53.3841 14.9731" fill="black"/>
<path opacity="0.1" d="M55.7065 12.3021C55.5648 12.3053 55.4264 12.3453 55.3049 12.4182C55.1833 12.4911 55.0829 12.5945 55.0134 12.718C54.9188 12.9428 54.86 13.181 54.839 13.424C54.7165 13.9627 54.4802 14.469 54.1459 14.9089" fill="black"/>
<path d="M89.6717 40.2417V38.4668C89.6713 37.1601 89.152 35.9071 88.2279 34.9833C87.3038 34.0595 86.0507 33.5405 84.744 33.5405H14.646C13.3393 33.5405 12.0861 34.0595 11.1621 34.9833C10.238 35.9071 9.71865 37.1601 9.71827 38.4668V41.7395L89.6717 40.2417Z" fill="#33323D"/>
<path d="M34.1466 31.4597C34.1466 31.4597 33.9465 43.8733 36.1474 47.9577C38.3482 52.0422 39.2915 69.8108 39.2915 69.8108C39.2915 69.8108 62.3636 72.1975 78.4414 66.9525C94.5193 61.7076 128.73 59.5624 128.73 59.5624L122.965 20.7054C122.965 20.7054 94.4836 18.8789 78.2814 26.6063C62.0792 34.3337 34.1466 31.4597 34.1466 31.4597Z" fill="#8DD070"/>
<path opacity="0.1" d="M34.1466 31.4597C34.1466 31.4597 33.9465 43.8733 36.1474 47.9577C38.3482 52.0422 39.2915 69.8108 39.2915 69.8108C39.2915 69.8108 62.3636 72.1975 78.4414 66.9525C94.5193 61.7076 128.73 59.5624 128.73 59.5624L122.965 20.7054C122.965 20.7054 94.4836 18.8789 78.2814 26.6063C62.0792 34.3337 34.1466 31.4597 34.1466 31.4597Z" fill="black"/>
<path d="M39.253 35.9944C39.253 35.9944 38.5312 46.237 40.342 49.5098C42.1527 52.7825 42.237 67.3926 42.237 67.3926C42.237 67.3926 63.001 68.3559 77.7712 63.3281C92.5414 58.3004 123.58 55.0391 123.58 55.0391L120.052 23.2621C120.052 23.2621 94.3707 22.9978 79.3819 30.0749C64.393 37.152 39.253 35.9944 39.253 35.9944Z" fill="#8DD070"/>
<path opacity="0.1" d="M79.1536 57.5101C82.108 57.1422 83.8632 51.7072 83.074 45.3707C82.2847 39.0343 79.2499 34.1959 76.2955 34.5639C73.3411 34.9319 71.5859 40.3669 72.3752 46.7033C73.1644 53.0398 76.1992 57.8781 79.1536 57.5101Z" fill="black"/>
<path opacity="0.2" d="M107.35 1.77637C107.35 1.77637 79.6806 8.77917 66.6325 21.1055C53.5844 33.4319 26.1163 39.2685 26.1163 39.2685C26.1163 39.2685 29.7349 51.1432 33.0819 54.3559C36.429 57.5687 42.7772 74.1924 42.7772 74.1924C42.7772 74.1924 65.4677 69.382 79.1589 59.4523C92.8501 49.5226 124.759 36.9819 124.759 36.9819L107.35 1.77637Z" fill="black"/>
<path d="M25.7004 37.4907C25.7004 37.4907 29.3175 49.3669 32.6617 52.5796C36.0059 55.7923 42.357 72.4147 42.357 72.4147C42.357 72.4147 65.0504 67.6056 78.743 57.6759C92.4356 47.7462 124.341 35.2098 124.341 35.2098L106.933 0C106.933 0 79.2646 7.0028 66.2166 19.3292C53.1685 31.6555 25.7004 37.4907 25.7004 37.4907Z" fill="#8DD070"/>
<path opacity="0.1" d="M25.7004 37.4907C25.7004 37.4907 29.3175 49.3669 32.6617 52.5796C36.0059 55.7923 42.357 72.4147 42.357 72.4147C42.357 72.4147 65.0504 67.6056 78.743 57.6759C92.4356 47.7462 124.341 35.2098 124.341 35.2098L106.933 0C106.933 0 79.2646 7.0028 66.2166 19.3292C53.1685 31.6555 25.7004 37.4907 25.7004 37.4907Z" fill="black"/>
<path d="M31.947 40.2403C31.947 40.2403 34.4037 50.2115 37.1319 52.7697C39.8602 55.3278 44.4206 69.2048 44.4206 69.2048C44.4206 69.2048 64.4772 63.7483 76.9922 54.4303C89.5073 45.1123 118.05 32.4972 118.05 32.4972L104.943 3.32556C104.943 3.32556 80.4207 10.9529 68.3259 22.2889C56.231 33.6248 31.947 40.2403 31.947 40.2403Z" fill="#8DD070"/>
<path opacity="0.1" d="M76.5298 48.4735C79.2288 47.2166 79.2315 41.5053 76.5359 35.7167C73.8404 29.9282 69.4672 26.2545 66.7683 27.5113C64.0693 28.7681 64.0666 34.4795 66.7622 40.2681C69.4577 46.0566 73.8309 49.7303 76.5298 48.4735Z" fill="black"/>
<path opacity="0.1" d="M91.5637 41.984V91.2895C91.5637 91.8495 91.4534 92.404 91.239 92.9213C91.0247 93.4386 90.7106 93.9086 90.3145 94.3045C89.9185 94.7004 89.4484 95.0144 88.931 95.2285C88.4136 95.4427 87.8591 95.5528 87.2991 95.5527H13.9841C12.8537 95.5523 11.7697 95.103 10.9705 94.3035C10.1713 93.504 9.72236 92.4199 9.72236 91.2895V37.0134C11.8232 37.7937 11.8232 37.7937 13.9841 37.728H87.2991C88.4287 37.728 89.5121 38.1761 90.3116 38.974C91.1111 39.7719 91.5614 40.8544 91.5637 41.984Z" fill="black"/>
<path d="M91.5637 42.6114V91.9168C91.5633 93.0476 91.1138 94.1319 90.3141 94.9313C89.5144 95.7308 88.4299 96.1799 87.2991 96.1799H13.9841C12.8537 96.1795 11.7697 95.7302 10.9705 94.9307C10.1713 94.1313 9.72236 93.0472 9.72236 91.9168V37.6394C11.8232 38.4183 11.8232 38.4183 13.9841 38.354H87.2991C88.4289 38.354 89.5125 38.8023 90.3121 39.6005C91.1116 40.3987 91.5618 41.4816 91.5637 42.6114Z" fill="#504F60"/>
<path opacity="0.1" d="M91.3552 60.8401V76.6078H76.0634C73.9908 76.5799 72.0126 75.737 70.5569 74.2615C69.1011 72.786 68.2849 70.7966 68.2849 68.7239C68.2849 66.6512 69.1011 64.6618 70.5569 63.1864C72.0126 61.7109 73.9908 60.868 76.0634 60.8401H91.3552Z" fill="black"/>
<path d="M91.5636 60.4199V76.1906H76.2718C74.1993 76.1627 72.2211 75.3198 70.7653 73.8443C69.3096 72.3688 68.4934 70.3794 68.4934 68.3067C68.4934 66.2339 69.3096 64.2446 70.7653 62.7691C72.2211 61.2936 74.1993 60.4507 76.2718 60.4228L91.5636 60.4199Z" fill="#33323D"/>
<path opacity="0.1" d="M77.005 71.7987C78.7027 71.7987 80.0791 70.4224 80.0791 68.7246C80.0791 67.0268 78.7027 65.6505 77.005 65.6505C75.3072 65.6505 73.9309 67.0268 73.9309 68.7246C73.9309 70.4224 75.3072 71.7987 77.005 71.7987Z" fill="black"/>
<path d="M77.2138 71.3815C78.9116 71.3815 80.2879 70.0051 80.2879 68.3074C80.2879 66.6096 78.9116 65.2333 77.2138 65.2333C75.516 65.2333 74.1397 66.6096 74.1397 68.3074C74.1397 70.0051 75.516 71.3815 77.2138 71.3815Z" fill="#4978D2"/>
<path d="M118.107 60.2841C118.229 61.6004 117.233 62.878 117.523 64.1671C117.586 64.443 117.704 64.7031 117.747 64.9818C117.867 65.7478 117.411 66.4724 116.975 67.1126L113.231 72.6062C113.081 72.8477 112.901 73.0696 112.696 73.2665C111.982 73.9039 110.907 73.8382 109.967 74.0282C109.306 74.1624 108.682 74.4384 108.137 74.8371C108.115 74.8566 108.1 74.884 108.097 74.9138C108.094 74.9435 108.102 74.9734 108.12 74.9972C108.276 75.2088 108.482 75.3782 108.719 75.4898C108.957 75.6013 109.219 75.6516 109.481 75.636C109.579 75.7661 109.481 75.9562 109.338 76.0491C109.136 76.192 108.861 76.2263 108.821 76.5664C108.806 76.6851 108.83 76.8053 108.889 76.9094C109.04 77.1404 109.275 77.3039 109.544 77.3653C110.84 77.7612 112.241 77.0652 113.211 76.1177C114.181 75.1701 114.877 73.9739 115.829 73.0093C116.356 72.4762 116.955 72.0189 117.498 71.5015C118.582 70.4697 119.423 69.2149 120.237 67.9587C120.481 67.5799 120.727 67.1912 120.83 66.7525C120.933 66.3137 120.884 65.8707 121 65.4462C121.151 64.8889 121.559 64.4458 121.897 63.9785C122.562 63.0638 123.005 61.9448 122.918 60.8186C122.831 59.6925 122.132 58.5792 121.068 58.1962C120.739 58.0638 120.375 58.0418 120.032 58.1333C119.596 58.2676 119.275 58.6278 118.978 58.9722L118.263 59.794C118.085 59.9743 117.944 60.1879 117.849 60.4228C117.803 60.5407 117.792 60.6693 117.817 60.7932C117.843 60.9171 117.903 61.0311 117.991 61.1216" fill="#FBBEBE"/>
<path opacity="0.05" d="M118.107 60.2841C118.229 61.6004 117.233 62.878 117.523 64.1671C117.586 64.443 117.704 64.7031 117.747 64.9818C117.867 65.7478 117.411 66.4724 116.975 67.1126L113.231 72.6062C113.081 72.8477 112.901 73.0696 112.696 73.2665C111.982 73.9039 110.907 73.8382 109.967 74.0282C109.306 74.1624 108.682 74.4384 108.137 74.8371C108.115 74.8566 108.1 74.884 108.097 74.9138C108.094 74.9435 108.102 74.9734 108.12 74.9972C108.276 75.2088 108.482 75.3782 108.719 75.4898C108.957 75.6013 109.219 75.6516 109.481 75.636C109.579 75.7661 109.481 75.9562 109.338 76.0491C109.136 76.192 108.861 76.2263 108.821 76.5664C108.806 76.6851 108.83 76.8053 108.889 76.9094C109.04 77.1404 109.275 77.3039 109.544 77.3653C110.84 77.7612 112.241 77.0652 113.211 76.1177C114.181 75.1701 114.877 73.9739 115.829 73.0093C116.356 72.4762 116.955 72.0189 117.498 71.5015C118.582 70.4697 119.423 69.2149 120.237 67.9587C120.481 67.5799 120.727 67.1912 120.83 66.7525C120.933 66.3137 120.884 65.8707 121 65.4462C121.151 64.8889 121.559 64.4458 121.897 63.9785C122.562 63.0638 123.005 61.9448 122.918 60.8186C122.831 59.6925 122.132 58.5792 121.068 58.1962C120.739 58.0638 120.375 58.0418 120.032 58.1333C119.596 58.2676 119.275 58.6278 118.978 58.9722L118.263 59.794C118.085 59.9743 117.944 60.1879 117.849 60.4228C117.803 60.5407 117.792 60.6693 117.817 60.7932C117.843 60.9171 117.903 61.0311 117.991 61.1216" fill="black"/>
<path d="M120.941 94.1692C120.124 94.6679 119.105 94.698 118.154 94.5822C118.001 94.5636 117.82 94.5522 117.725 94.6708C117.583 94.8423 117.751 95.0995 117.926 95.2325C118.486 95.6533 119.145 95.9244 119.839 96.0199C120.459 96.1078 121.085 96.1494 121.711 96.1442C123.426 96.1742 125.141 96.2028 126.829 95.957C126.929 95.9495 127.026 95.9212 127.115 95.8741C127.224 95.7977 127.299 95.6828 127.326 95.5526C127.442 95.1124 127.219 94.6408 126.882 94.335C126.545 94.0291 126.112 93.8591 125.689 93.6947L124.202 93.1159C123.854 92.9801 123.295 92.62 122.916 92.6486C122.204 92.7 121.531 93.8233 120.941 94.1692Z" fill="#3F3D56"/>
<path opacity="0.05" d="M120.941 94.1692C120.124 94.6679 119.105 94.698 118.154 94.5822C118.001 94.5636 117.82 94.5522 117.725 94.6708C117.583 94.8423 117.751 95.0995 117.926 95.2325C118.486 95.6533 119.145 95.9244 119.839 96.0199C120.459 96.1078 121.085 96.1494 121.711 96.1442C123.426 96.1742 125.141 96.2028 126.829 95.957C126.929 95.9495 127.026 95.9212 127.115 95.8741C127.224 95.7977 127.299 95.6828 127.326 95.5526C127.442 95.1124 127.219 94.6408 126.882 94.335C126.545 94.0291 126.112 93.8591 125.689 93.6947L124.202 93.1159C123.854 92.9801 123.295 92.62 122.916 92.6486C122.204 92.7 121.531 93.8233 120.941 94.1692Z" fill="black"/>
<path d="M121.983 74.4384C121.364 75.2616 120.724 76.2119 120.877 77.2309C120.96 77.7797 121.267 78.2642 121.493 78.7715C121.799 79.4604 121.959 80.2007 122.116 80.9381C122.347 82.0157 122.58 83.0961 122.722 84.1909C122.883 85.4271 122.125 89.0042 122.054 90.249C122.037 90.5491 122.002 90.8736 121.793 91.0894C121.711 91.1751 121.603 91.2437 121.566 91.3552C121.544 91.4626 121.562 91.5743 121.616 91.6696C121.964 92.4556 122.678 93.0416 123.474 93.376C124.27 93.7104 126.189 94.2878 127.056 94.3178C127.171 94.3304 127.287 94.3152 127.394 94.2735C127.509 94.2031 127.6 94.0988 127.654 93.9748C128.276 92.7858 127.678 88.5583 127.687 87.2164C127.695 86.0974 127.96 84.9855 127.911 83.8679C127.871 82.9704 127.625 82.0929 127.544 81.1982C127.401 79.7319 127.67 78.2585 127.94 76.8093C128.145 75.6974 128.353 74.5856 128.617 73.488C128.779 72.8177 128.966 72.1417 129.332 71.5601C129.617 71.0984 130.019 70.7126 130.352 70.2738C131.276 69.0621 131.687 67.5354 131.495 66.0235C131.475 65.8806 129.352 66.5623 129.164 66.6438C128.401 66.9672 127.698 67.4192 127.086 67.98C126.595 68.4488 126.208 69.0748 125.777 69.5993C125.169 70.3415 124.567 71.0889 123.974 71.8416C123.296 72.7019 122.633 73.5675 121.983 74.4384Z" fill="#464353"/>
<path opacity="0.05" d="M121.983 74.3884C121.364 75.2115 120.724 76.1634 120.877 77.1809C120.96 77.7311 121.267 78.2156 121.493 78.723C121.799 79.4104 121.959 80.1521 122.116 80.8881C122.347 81.9671 122.58 83.0476 122.722 84.1408C122.883 85.3785 122.125 88.9542 122.054 90.199C122.037 90.4991 122.002 90.825 121.793 91.0408C121.711 91.1251 121.603 91.1937 121.566 91.3052C121.544 91.4126 121.562 91.5243 121.616 91.6196C121.964 92.407 122.678 92.9916 123.474 93.3345C124.27 93.6775 126.189 93.9762 127.056 94.0048C127.171 94.0174 127.287 94.0022 127.394 93.9605C127.509 93.891 127.6 93.7871 127.654 93.6632C128.276 92.4742 127.678 88.5183 127.687 87.1749C127.695 86.0545 127.96 84.944 127.911 83.825C127.871 82.9275 127.625 82.05 127.544 81.1568C127.401 79.6891 127.67 78.2156 127.94 76.7665C128.145 75.656 128.353 74.5441 128.617 73.4451C128.779 72.7749 128.966 72.0989 129.332 71.5172C129.618 71.0556 130.019 70.6697 130.352 70.231C131.277 69.0193 131.687 67.4926 131.495 65.9807C131.475 65.8378 129.352 66.5195 129.164 66.6009C128.401 66.9254 127.698 67.3778 127.086 67.9386C126.595 68.4059 126.208 69.0319 125.777 69.5564C125.169 70.2986 124.567 71.0465 123.974 71.8002C123.296 72.6539 122.633 73.5166 121.983 74.3884Z" fill="black"/>
<path d="M115.097 56.3083C117.013 56.3083 118.566 54.7554 118.566 52.8398C118.566 50.9241 117.013 49.3712 115.097 49.3712C113.182 49.3712 111.629 50.9241 111.629 52.8398C111.629 54.7554 113.182 56.3083 115.097 56.3083Z" fill="#FBBEBE"/>
<path d="M118.222 52.6939C118.542 53.2051 118.962 53.6464 119.457 53.9917C119.952 54.3369 120.511 54.5789 121.101 54.7033L120.84 55.6537C120.388 57.2858 119.881 59.0122 118.62 60.1441C118.763 59.591 118.58 59.0008 118.269 58.5206C117.957 58.0404 117.52 57.6631 117.091 57.2901L115.095 55.5608C115.037 55.5139 114.989 55.4567 114.952 55.3921C114.902 55.2702 114.902 55.1339 114.952 55.012C115.206 54.2202 115.932 53.7257 116.524 53.1912C116.821 52.9148 117.086 52.6061 117.314 52.2709C117.713 51.7021 117.96 52.2737 118.222 52.6939Z" fill="#FBBEBE"/>
<path d="M110.529 49.3526L110.45 48.7009C110.997 48.8439 111.518 48.378 111.868 47.8963C112.218 47.4147 112.542 46.8473 113.075 46.6458C113.723 46.4029 114.409 46.7888 115.027 47.1146C115.72 47.499 116.481 47.7465 117.267 47.8435C117.392 47.8476 117.517 47.8678 117.637 47.9035C118.04 48.0464 118.232 48.5523 118.29 49.0111C118.349 49.4698 118.333 49.9572 118.532 50.3659C118.675 50.676 118.94 50.9061 119.103 51.2119C119.532 52.0323 119.118 53.1542 119.565 53.9588L118.453 52.9398C118.352 52.8469 118.209 52.7497 118.096 52.8283C118.007 52.8912 118 53.027 117.964 53.1356C117.857 53.4528 117.46 53.5472 117.173 53.4214C116.885 53.2956 116.675 53.0227 116.458 52.774C115.966 52.1938 115.38 51.6836 114.694 51.4363C114.394 51.3239 114.073 51.2767 113.752 51.2979C113.432 51.3191 113.12 51.4082 112.837 51.5592C112.318 51.8522 111.938 52.5353 111.302 52.5596C110.43 52.5925 110.067 50.969 109.664 50.3273C109.811 50.2163 109.915 50.057 109.957 49.8772C109.999 49.6975 109.976 49.5087 109.893 49.3441C109.951 49.3198 110.516 49.2526 110.529 49.3526Z" fill="#464353"/>
<path d="M67.627 29.0745C67.3483 29.3224 67.0907 29.593 66.8567 29.8834C66.6212 30.1779 66.4958 30.5454 66.5023 30.9224C66.5035 31.0318 66.5385 31.1381 66.6023 31.2268C66.635 31.2693 66.68 31.3005 66.7313 31.3162C66.7825 31.3318 66.8374 31.331 66.8882 31.314C66.9456 31.2847 66.9947 31.2415 67.0311 31.1882C67.1821 31.0067 67.3424 30.8331 67.5113 30.668C67.5727 30.6066 67.6542 30.5423 67.7371 30.5651C67.7742 30.5783 67.8076 30.6004 67.8343 30.6294C67.9304 30.7126 68.0004 30.8218 68.0358 30.9439C68.0858 31.1625 67.9586 31.3812 67.8142 31.5527C67.6699 31.7242 67.4998 31.8885 67.4412 32.1043C67.4191 32.1613 67.4191 32.2245 67.4412 32.2815C67.4689 32.3228 67.5075 32.3554 67.5527 32.3759C67.7574 32.4885 67.9843 32.5549 68.2174 32.5702C68.4506 32.5855 68.6842 32.5494 68.9018 32.4645C69.1877 32.3487 69.4421 32.1501 69.7365 32.0472C69.8639 32.0123 69.9875 31.9644 70.1052 31.9042C70.1894 31.8482 70.2617 31.776 70.3179 31.6919C70.374 31.6077 70.413 31.5133 70.4325 31.414C70.4696 31.2157 70.4768 31.0129 70.4539 30.8124C70.4183 30.036 70.2521 29.2712 69.9623 28.55C69.9455 28.5035 69.9169 28.4622 69.8794 28.43C69.8364 28.4038 69.7868 28.3904 69.7365 28.3914C69.3706 28.3528 68.7704 28.1656 68.4174 28.3014C68.2939 28.3691 68.1874 28.4639 68.1058 28.5786C68.0401 28.6515 67.627 28.9788 67.627 29.0745Z" fill="#A1616A"/>
<path d="M67.5112 28.7515C67.5112 28.4028 67.0825 27.561 67.7642 27.5053C67.7642 27.1323 67.2368 26.9008 67.3354 26.5049C67.3669 26.3734 67.4783 26.2662 67.4912 26.1319C67.5341 25.7503 66.8452 25.5431 66.9596 25.1772C67.0024 25.0343 67.1539 24.9514 67.1868 24.8099C67.264 24.4798 66.6737 24.3326 66.6623 23.9939C66.6623 23.8796 66.7266 23.7724 66.7209 23.658C66.7209 23.5151 66.5965 23.4065 66.5279 23.2822C66.3493 22.9635 66.4365 22.4704 66.1106 22.3061C66.3264 22.3247 66.3965 22.0045 66.3079 21.8087C66.2193 21.6129 66.0378 21.4429 66.0363 21.2256C66.047 21.1469 66.047 21.0671 66.0363 20.9884C65.9763 20.7798 65.6347 20.7626 65.5776 20.5597C65.5702 20.4818 65.5678 20.4035 65.5704 20.3253C65.5476 20.1638 65.3818 20.0609 65.226 20.0152C65.0642 19.9877 64.9084 19.9321 64.7658 19.8508C64.6658 19.7751 64.55 19.6493 64.4428 19.7079C64.4028 19.7322 64.3828 19.7779 64.3528 19.8122C64.2242 19.9623 63.9783 19.8965 63.8168 19.7865C63.3395 19.4621 63.1023 18.8804 63.0008 18.3131C62.8993 17.7457 62.9022 17.1597 62.775 16.5981C62.7362 16.423 62.6846 16.2511 62.6206 16.0836C62.5663 15.9407 62.392 15.7163 62.3805 15.572C62.3548 15.2433 63.0351 15.4676 63.2938 15.5005C63.5449 15.525 63.7932 15.5729 64.0355 15.6434C64.2941 15.7411 64.5474 15.8523 64.7944 15.9764C65.8262 16.4323 67.0725 16.488 67.9014 17.2541C68.1743 17.5056 68.4044 17.8357 68.7589 17.9501C68.9214 17.9812 69.0818 18.0227 69.2391 18.0744C69.6321 18.2587 69.6935 18.7804 69.9079 19.1577C69.9753 19.2573 70.0341 19.3625 70.0837 19.4721C70.125 19.6013 70.1443 19.7366 70.1409 19.8722L70.1709 20.8626C70.2195 22.5219 70.2681 24.1854 70.0908 25.8346C70.0337 26.3791 69.9479 26.9393 70.1094 27.4624C70.1523 27.6053 70.2123 27.7397 70.2523 27.884C70.2877 28.0532 70.3059 28.2256 70.3066 28.3985L70.3295 29.0402C70.3374 29.0901 70.3262 29.1411 70.2981 29.1831C70.2742 29.2025 70.2462 29.2163 70.2163 29.2235C70.1864 29.2306 70.1552 29.231 70.1251 29.2245C69.2319 29.1445 68.3287 28.6414 67.4855 28.9459" fill="#464353"/>
<path d="M108.273 78.057C114.111 78.057 118.843 77.373 118.843 76.5292C118.843 75.6855 114.111 75.0015 108.273 75.0015C102.436 75.0015 97.7033 75.6855 97.7033 76.5292C97.7033 77.373 102.436 78.057 108.273 78.057Z" fill="#504F60"/>
<path d="M117.367 76.6035C117.181 75.8075 117.065 75.1086 117.065 75.1086C117.065 75.1086 117.108 74.2426 116.719 73.5923V73.3751V71.7744C116.83 71.4838 116.965 71.2031 117.124 70.9355C117.41 70.4325 117.124 68.5889 117.124 68.5889C117.124 68.5889 116.056 65.9893 116.315 64.34C116.574 62.6908 114.123 57.0171 114.123 57.0171C114.138 56.4699 114.215 55.9262 114.353 55.3965C114.379 55.2851 114.389 55.1706 114.384 55.0563C114.384 55.042 114.384 55.0292 114.384 55.0149C114.384 55.0006 114.384 55.0235 114.384 55.0277C114.347 53.9402 113.487 51.9022 113.487 51.9022L113.602 48.0178C113.602 48.0178 114.151 45.7312 113.257 42.6514C112.944 41.5781 112.743 40.7192 112.616 40.056C112.602 39.9817 112.588 39.9131 112.576 39.8402C114.418 39.5544 115.826 39.3257 115.826 39.3257C115.826 39.3257 114.757 34.8539 114.035 34.0708C113.314 33.2876 112.736 30.8281 112.736 30.8281C112.736 30.8281 112.36 27.6711 112.968 26.7478C113.575 25.8246 113.661 24.2326 113.661 24.2326C113.661 24.2326 115.046 23.2322 115.22 22.7791C115.395 22.3261 115.682 21.3257 115.682 20.7955C115.682 20.2652 115.509 19.7951 115.566 19.5092C115.623 19.2234 115.162 18.1673 115.393 17.6642C115.453 17.5097 115.484 17.3455 115.485 17.1797C115.485 17.175 115.485 17.1702 115.485 17.1654C115.487 16.7252 115.446 16.2858 115.363 15.8535C114.962 15.5152 114.495 15.2654 113.991 15.1203L113.961 15.0003L113.882 14.6859C113.839 14.6569 113.793 14.6302 113.747 14.6058V14.4915L113.734 14.037L113.951 13.0166C114.38 11.2416 112.009 10.9772 112.009 10.9772C111.865 10.705 111.626 10.4953 111.337 10.3884C110.861 10.2212 111.259 13.0581 111.48 13.2467C111.647 13.3896 112.165 14.2729 112.415 14.7102L112.455 14.7816C112.416 14.8168 112.379 14.855 112.346 14.896L112.436 15.5119L112.45 15.6062C112.293 15.8014 112.166 16.0185 112.072 16.2508C112.072 16.2508 112.501 16.7253 112.419 17.2512C112.338 17.7771 112.552 18.4445 112.562 18.4802C112.536 18.4502 112.232 18.1215 111.927 18.2016C111.623 18.2816 110.773 18.5374 110.773 18.5374C110.773 18.5374 110.138 18.6489 110.201 18.7889C110.264 18.929 109.772 19.5435 109.772 19.5435L108.066 17.9257C108.049 17.8771 108.03 17.8286 108.016 17.7828C107.946 17.5496 107.898 17.3104 107.873 17.0683C108.059 17.0241 108.241 16.9663 108.419 16.8953C108.598 16.8338 108.76 16.7298 108.89 16.5924C109.063 16.388 109.096 16.1107 109.166 15.8563C109.301 15.359 109.595 14.9174 109.799 14.4443C110.146 13.645 110.257 12.7637 110.121 11.9033C110.095 11.6382 110.005 11.3833 109.859 11.1602C109.581 10.7772 109.075 10.6214 108.708 10.3156C108.34 10.0097 108.103 9.54238 107.674 9.31515C107.287 9.10792 106.817 9.13222 106.379 9.20368C105.525 9.34452 104.705 9.64305 103.96 10.084C103.711 10.2269 103.437 10.4027 103.151 10.3498C102.905 10.3055 102.722 10.1098 102.568 9.92111C102.57 9.9133 102.572 9.90565 102.575 9.89824C102.568 9.89128 102.562 9.88362 102.557 9.87537C102.376 10.2767 102.285 10.7128 102.291 11.153C102.291 11.2216 102.291 11.2959 102.299 11.3574V11.4289C102.299 11.4489 102.299 11.4689 102.299 11.4874C102.299 11.5179 102.295 11.5482 102.286 11.5775C102.25 11.6649 102.196 11.7434 102.126 11.8076C102.074 11.8672 102.026 11.9307 101.983 11.9977C101.983 11.9748 101.998 11.9519 102.006 11.9276C101.897 12.0868 101.836 12.2736 101.829 12.4664C101.821 12.6067 101.867 12.7448 101.958 12.8523C102.043 12.9354 102.137 13.01 102.236 13.0752C102.202 13.2639 102.185 13.4552 102.185 13.6469C102.188 14.2152 102.338 14.773 102.62 15.2665C102.902 15.76 103.306 16.1723 103.794 16.4637C103.814 16.5109 103.833 16.5595 103.851 16.6066C104.07 17.1783 104.234 17.85 104.161 18.4645C104.161 18.5088 104.149 18.5546 104.141 18.5989C104.134 18.6432 104.099 18.646 104.08 18.6703C104.08 18.6703 101.26 18.6989 100.597 18.0987C99.9341 17.4984 98.9222 19.5664 98.9222 19.5664C98.9222 19.5664 97.9118 19.7622 97.7089 19.5664C97.506 19.3706 96.3241 19.5392 96.3241 19.5392C95.8398 19.1086 95.2097 18.8786 94.5619 18.8961C94.1694 18.5979 93.7363 18.3572 93.2757 18.1816L93.2443 18.1701C93.041 18.096 92.8236 18.0687 92.6083 18.0901C92.6083 18.0901 91.222 16.9468 90.8176 16.3294C90.4131 15.712 88.4881 13.4325 88.4795 13.4225V13.3125L88.4581 12.9809C88.4009 12.9899 88.3431 12.9947 88.2852 12.9952C88.2751 12.9623 88.2609 12.9237 88.2466 12.8794C88.1356 12.556 87.999 12.242 87.8378 11.9405C87.8378 11.9405 87.8378 11.5217 87.9593 11.416C88.0808 11.3102 87.9093 9.7739 87.9093 9.7739C87.9093 9.7739 86.6602 6.85416 85.5412 9.03361C85.5412 9.03361 83.4261 10.4442 85.2011 12.0877C85.2011 12.0877 85.9156 12.4307 86.01 12.7022C86.0757 12.878 86.3158 13.3711 86.4773 13.7026L86.5502 13.8455L86.5302 13.8627L86.5559 14.1371L86.5673 14.2428C86.2329 14.4329 86.0057 14.6216 86.0614 14.763C86.1599 15.0052 86.2276 15.2587 86.2629 15.5176C86.2629 15.5176 88.7182 18.5931 89.0354 19.9065C89.0354 19.9065 95.6195 23.8195 97.7846 24.0982L97.4016 26.049C97.3458 26.5783 97.3172 27.1102 97.3159 27.6425C97.3445 28.0612 97.0558 29.962 97.0558 29.962C97.0558 29.962 96.6799 32.7574 96.3626 33.149C96.0454 33.5406 96.1025 35.2169 96.1025 35.2169C96.0276 36.0195 95.8842 36.8141 95.6738 37.5922C95.3565 38.654 95.5866 39.9689 95.5866 39.9689C95.5866 39.9689 94.4905 42.4841 97.1172 40.7792C97.1172 40.7792 98.4035 40.6991 99.8926 40.6477C99.8926 40.6963 99.8926 40.7463 99.8926 40.7906C99.8926 40.9821 99.8926 41.1893 99.8826 41.4066C99.8626 42.8471 99.854 44.8365 99.9198 46.3343C100.036 48.9896 100.844 54.2446 100.844 54.2446V56.8899C100.792 57.138 100.766 57.391 100.767 57.6445C100.75 58.5753 100.998 59.4917 101.482 60.287L101.685 62.0477C101.685 62.0477 102.159 63.2082 102.168 63.9056C102.166 63.9618 102.159 64.0177 102.148 64.0728C102.129 64.1616 102.122 64.2523 102.125 64.3429C102.098 65.1432 102.579 67.0583 102.579 67.0583C102.579 67.0583 102.608 68.9862 102.897 69.0991C103.144 69.1948 102.567 70.2095 102.395 70.5011C102.39 70.4832 102.387 70.4651 102.385 70.4468L102.349 70.5039C102.29 70.66 102.259 70.8257 102.259 70.9927C102.243 71.1243 102.264 71.2579 102.321 71.3778C102.378 71.4977 102.467 71.5991 102.579 71.6701C103.128 72.006 103.423 72.2847 102.957 72.3961C102.785 72.4227 102.615 72.4585 102.448 72.5033C102.448 72.4819 102.431 72.459 102.424 72.439C102.358 72.4647 102.303 72.5123 102.268 72.5737C102.234 72.6352 102.221 72.7068 102.234 72.7763C102.238 73.003 102.296 73.2254 102.404 73.4251C102.865 74.4598 103.185 74.8542 103.185 74.8542L103.407 74.83C103.374 74.9146 103.331 74.9948 103.278 75.0686C103.194 75.1885 103.082 75.2865 102.952 75.3545C102.831 75.4269 102.697 75.4731 102.557 75.4902C102.4 75.4953 102.246 75.5333 102.105 75.6018C101.965 75.6702 101.84 75.7676 101.739 75.8875C101.453 76.2605 101.27 76.7679 101.839 77.2138L103.904 77.9283C103.904 77.9283 107.457 78.3899 107.268 77.5925C107.08 76.795 106.965 76.0976 106.965 76.0976C106.981 75.6107 106.883 75.1269 106.68 74.6842C106.642 74.6119 106.6 74.5422 106.554 74.4755L106.68 74.4627C106.68 74.4627 106.94 72.7005 107.286 72.3661C107.366 72.2889 107.384 72.2232 107.366 72.1832C107.401 72.0874 107.31 72.0317 107.194 71.9988L107.168 72.0689C107.055 72.0442 106.94 72.0312 106.824 72.0303C106.824 72.0303 106.708 71.1085 107.084 70.7726C107.114 70.7343 107.137 70.6902 107.149 70.643C107.162 70.5958 107.164 70.5465 107.157 70.4982C107.16 70.3717 107.146 70.2454 107.117 70.1224C107.113 70.1303 107.109 70.1379 107.104 70.1452C106.915 69.3077 106.275 67.9772 106.275 67.9772C106.275 67.9772 106.247 67.1397 106.478 66.8039C106.71 66.468 106.448 62.2478 106.448 62.2478C106.448 62.2478 106.535 60.2084 106.275 59.258C106.015 58.3076 106.592 57.1886 106.592 57.1886C106.592 57.1886 106.592 57.1672 106.592 57.1286V57.1143L106.56 56.7927C106.559 56.7994 106.559 56.8061 106.56 56.8127C106.501 56.2725 106.391 55.2936 106.309 54.842C106.194 54.1988 106.339 51.1262 106.339 51.1262L106.858 49.8114L107.783 52.0766L108.765 55.0949C108.765 55.0949 109.251 55.7323 109.262 56.3811C109.262 56.4126 109.262 56.444 109.262 56.4755C109.254 56.5423 109.25 56.6096 109.251 56.677C109.233 57.0583 109.338 57.4353 109.549 57.7531C109.549 57.7531 109.809 59.1823 110.214 59.541C110.618 59.8997 110.618 60.6028 110.618 60.6028C110.618 60.6028 111.109 62.6722 111.333 63.0324C111.527 63.3382 111.537 64.1757 111.536 64.4372C111.536 64.4844 111.536 64.5115 111.536 64.5115C111.536 64.5115 111.604 65.2518 111.602 65.8721C111.602 65.9493 111.602 66.0236 111.602 66.0936C111.602 66.0884 111.602 66.0831 111.602 66.0779C111.601 66.2473 111.581 66.4162 111.542 66.5809L111.533 66.6095C111.533 66.5738 111.533 66.5395 111.543 66.5052C111.442 66.9264 111.394 67.3584 111.4 67.7914C111.387 68.5346 111.5 69.4149 111.95 69.9351C112.731 70.8298 113.221 70.7183 113.221 70.7183C113.221 70.7183 112.846 71.8359 112.383 72.0603C112.366 72.0685 112.349 72.0791 112.335 72.0917C112.335 72.0688 112.326 72.0474 112.323 72.026C112.272 72.0817 112.232 72.1476 112.208 72.2195C112.183 72.2914 112.174 72.3676 112.18 72.4433C112.147 72.9349 112.458 73.7295 112.752 74.0997C112.861 74.2067 112.995 74.2852 113.142 74.3283C113.119 74.3448 113.095 74.3596 113.069 74.3726C113.018 74.4009 112.965 74.4261 112.911 74.4484C112.836 74.4803 112.756 74.501 112.675 74.5098C112.518 74.514 112.364 74.5516 112.223 74.6201C112.082 74.6887 111.957 74.7865 111.857 74.9071C111.572 75.2787 111.389 75.7861 111.957 76.2319L114.023 76.9465C114.023 76.9465 117.553 77.3996 117.367 76.6035Z" fill="url(#paint0_linear)"/>
<path d="M103.803 77.9241L101.802 77.2095C101.251 76.7636 101.426 76.2563 101.705 75.8833C101.801 75.7643 101.921 75.6673 102.058 75.5987C102.194 75.5302 102.344 75.4917 102.497 75.486C102.632 75.4687 102.762 75.4224 102.878 75.3502C103.005 75.2813 103.114 75.1833 103.196 75.0644C103.342 74.8327 103.42 74.565 103.423 74.2912C103.423 74.2912 105.618 73.6481 106.218 74.2912C106.325 74.4076 106.415 74.5391 106.484 74.6814C106.684 75.1253 106.781 75.6082 106.77 76.0948C106.77 76.0948 106.881 76.7922 107.063 77.5897C107.244 78.3871 103.803 77.9241 103.803 77.9241Z" fill="#2D293D"/>
<path d="M113.584 76.9379L111.583 76.2233C111.032 75.7774 111.207 75.2701 111.486 74.8985C111.581 74.7791 111.701 74.6817 111.838 74.6131C111.974 74.5445 112.124 74.5064 112.276 74.5012C112.355 74.4931 112.433 74.4724 112.505 74.4398C112.558 74.4174 112.61 74.3922 112.659 74.364C113.218 74.0568 113.204 73.3022 113.204 73.3022C113.204 73.3022 115.398 72.6591 115.999 73.3022C116.08 73.3893 116.15 73.4852 116.21 73.588C116.585 74.2383 116.544 75.1057 116.544 75.1057C116.544 75.1057 116.655 75.8046 116.83 76.6006C117.004 77.3966 113.584 76.9379 113.584 76.9379Z" fill="#2D293D"/>
<path opacity="0.1" d="M106.22 74.2897C106.327 74.4061 106.416 74.5376 106.485 74.6799L103.198 75.0614C103.344 74.8298 103.423 74.5621 103.426 74.2883C103.426 74.2883 105.619 73.6466 106.22 74.2897Z" fill="black"/>
<path opacity="0.1" d="M116.212 73.5908V74.2068C115.701 75.0486 113.227 74.8642 112.508 74.4426C112.561 74.4203 112.612 74.395 112.662 74.3669C113.221 74.0596 113.207 73.305 113.207 73.305C113.207 73.305 115.4 72.6619 116.002 73.305C116.083 73.3921 116.153 73.488 116.212 73.5908Z" fill="black"/>
<path d="M116.602 70.9356C116.449 71.204 116.319 71.4845 116.212 71.7745V73.9825C115.652 74.9043 112.747 74.597 112.353 74.094C111.96 73.5909 111.55 72.2818 111.992 72.0546C112.434 71.8273 112.802 70.7126 112.802 70.7126C112.802 70.7126 112.326 70.8241 111.572 69.9294C110.817 69.0348 111.042 67.0511 111.182 66.5767C111.322 66.1022 111.182 64.5087 111.182 64.5087C111.182 64.5087 111.21 63.3897 110.987 63.0267C110.764 62.6637 110.288 60.5971 110.288 60.5971C110.288 60.5971 110.288 59.8983 109.897 59.5353C109.505 59.1722 109.254 57.746 109.254 57.746C109.025 57.3895 108.926 56.9649 108.975 56.5441C109.058 55.8452 108.499 55.0906 108.499 55.0906L107.549 52.0708L106.654 49.8071L106.151 51.1204C106.151 51.1204 106.008 54.1945 106.124 54.8362C106.24 55.4779 106.41 57.1843 106.41 57.1843C106.41 57.1843 105.851 58.3019 106.102 59.2523C106.354 60.2027 106.262 62.2449 106.262 62.2449C106.262 62.2449 106.514 66.4638 106.29 66.7996C106.065 67.1355 106.094 67.9744 106.094 67.9744C106.094 67.9744 107.237 70.4325 106.877 70.7683C106.517 71.1042 106.625 72.026 106.625 72.026C106.625 72.026 107.407 72.026 107.073 72.3618C106.738 72.6977 106.485 74.4584 106.485 74.4584L103.106 74.8543C103.106 74.8543 102.797 74.4641 102.349 73.4251C101.902 72.3861 102.432 72.5033 102.883 72.3904C103.333 72.2775 103.048 72.0003 102.517 71.6644C101.985 71.3286 102.294 70.574 102.294 70.574C102.294 70.574 103.104 69.2049 102.824 69.0934C102.544 68.9819 102.517 67.0526 102.517 67.0526C102.517 67.0526 101.958 64.7659 102.098 64.1457C102.238 63.5254 101.651 62.0505 101.651 62.0505L101.455 60.2898C100.857 59.2907 100.639 58.1096 100.84 56.9628V54.2474C100.84 54.2474 100.057 48.9939 99.9457 46.3385C99.8742 44.6378 99.8942 42.3169 99.9171 40.8692C99.9314 40.0574 99.9457 39.5186 99.9457 39.5186L112.019 38.261C112.019 38.261 112.008 38.8184 112.238 40.0546C112.362 40.7177 112.555 41.5766 112.858 42.6499C113.724 45.724 113.194 48.0149 113.194 48.0149L113.081 51.9008C113.081 51.9008 114.143 54.4989 113.92 55.3936C113.785 55.9248 113.709 56.4693 113.694 57.0171C113.694 57.0171 116.069 62.6908 115.818 64.34C115.566 65.9893 116.599 68.5889 116.599 68.5889C116.599 68.5889 116.882 70.4325 116.602 70.9356Z" fill="#464353"/>
<path opacity="0.05" d="M109.7 56.3755L113.375 55.8853C113.375 55.8853 111.293 58.0104 109.7 56.3755Z" fill="black"/>
<path opacity="0.1" d="M112.844 52.2938C112.844 52.2938 112.97 53.5943 112.174 54.083C112.174 54.083 113.598 53.8601 112.844 52.2938Z" fill="black"/>
<path opacity="0.1" d="M112.618 48.1578C112.618 48.1578 109.545 50.6875 108.428 50.4774C107.31 50.2673 112.618 48.1578 112.618 48.1578Z" fill="black"/>
<path opacity="0.1" d="M105.144 57.5616C105.144 57.5616 102.81 58.0918 102.74 59.0293C102.67 59.9668 105.144 57.5616 105.144 57.5616Z" fill="black"/>
<path opacity="0.05" d="M105.657 69.2177C105.657 69.2177 102.36 69.8322 103.296 70.2509C104.232 70.6697 105.769 71.0056 105.769 71.0056C105.769 71.0056 106.834 71.0613 105.657 69.2177Z" fill="black"/>
<g opacity="0.05">
<path opacity="0.05" d="M102.63 70.917C102.547 70.8652 102.477 70.7954 102.424 70.7128C102.372 70.6301 102.339 70.5368 102.328 70.4397L102.294 70.4983C102.294 70.4983 101.987 71.2528 102.518 71.5872C102.578 71.6258 102.637 71.6643 102.69 71.7015C102.788 71.6829 102.894 71.6686 102.996 71.6429C103.446 71.5314 103.161 71.2528 102.63 70.917Z" fill="black"/>
<path opacity="0.05" d="M106.877 70.6926C106.969 70.6097 106.966 70.3954 106.91 70.121C106.767 70.3368 106.726 70.674 106.723 70.9299C106.758 70.8411 106.81 70.7603 106.877 70.6926Z" fill="black"/>
<path opacity="0.05" d="M106.37 56.7885C106.248 57.119 106.173 57.4648 106.147 57.816C106.211 57.5734 106.296 57.3371 106.403 57.11L106.37 56.7885Z" fill="black"/>
<path opacity="0.05" d="M113.921 55.3221C113.943 55.2217 113.953 55.119 113.951 55.0162C113.91 55.2249 113.881 55.4179 113.86 55.588C113.878 55.5008 113.898 55.4179 113.921 55.3221Z" fill="black"/>
<path opacity="0.05" d="M106.291 66.7253C106.337 66.6567 106.363 66.4252 106.374 66.1036C106.271 66.3524 106.216 66.6187 106.213 66.8882C106.232 66.8309 106.259 66.7762 106.291 66.7253Z" fill="black"/>
<path opacity="0.05" d="M106.977 71.996C106.804 72.5565 106.675 73.13 106.593 73.7109L103.213 74.101C103.213 74.101 102.904 73.7109 102.457 72.6719C102.421 72.5917 102.389 72.5096 102.361 72.4261C102.158 72.519 102.075 72.7291 102.344 73.3422C102.791 74.3769 103.101 74.7713 103.101 74.7713L106.481 74.3797C106.481 74.3797 106.733 72.6191 107.067 72.2832C107.239 72.1217 107.133 72.0374 106.977 71.996Z" fill="black"/>
<path opacity="0.05" d="M102.518 66.9768C102.518 66.9768 102.545 68.9047 102.826 69.0162C102.968 68.6975 103.061 68.3945 102.936 68.3445C102.65 68.233 102.628 66.3037 102.628 66.3037C102.628 66.3037 102.07 64.0171 102.21 63.3968C102.35 62.7766 101.762 61.3017 101.762 61.3017L101.566 59.541C100.968 58.5419 100.75 57.3608 100.952 56.2139V53.4986C100.952 53.4986 100.169 48.245 100.057 45.5897C99.9858 43.889 100.006 41.5681 100.029 40.1204C100.029 39.8588 100.037 39.6273 100.042 39.4315L99.9458 39.4415C99.9458 39.4415 99.9301 39.9789 99.9172 40.7921C99.8944 42.2398 99.8729 44.5607 99.9458 46.26C100.057 48.9153 100.839 54.1703 100.839 54.1703V56.8856C100.638 58.0322 100.857 59.2126 101.455 60.2113L101.649 61.972C101.649 61.972 102.237 63.4526 102.097 64.0685C101.957 64.6845 102.518 66.9768 102.518 66.9768Z" fill="black"/>
<path opacity="0.05" d="M112.468 73.348C112.194 72.9504 112.01 72.497 111.932 72.0203C111.588 72.3318 111.984 73.5409 112.361 74.0211C112.751 74.5242 115.658 74.8314 116.22 73.9082V73.3765C115.458 74.124 112.837 73.8239 112.468 73.348Z" fill="black"/>
<path opacity="0.05" d="M116.715 70.1895C116.562 70.4579 116.431 70.7385 116.324 71.0284V71.4243C116.388 71.2813 116.478 71.0898 116.61 70.864C116.698 70.644 116.74 70.408 116.733 70.1709C116.733 70.1709 116.72 70.1838 116.715 70.1895Z" fill="black"/>
<path opacity="0.05" d="M112.639 70.6312C112.746 70.4159 112.838 70.1939 112.915 69.9666C112.915 69.9666 112.439 70.0781 111.685 69.1835C111.136 68.5332 111.104 67.3042 111.183 66.501C111.04 66.9769 110.819 68.9605 111.573 69.8552C112.066 70.4397 112.439 70.594 112.639 70.6312Z" fill="black"/>
<path opacity="0.05" d="M111.182 64.433C111.231 64.9836 111.25 65.5366 111.237 66.0894C111.251 66.0021 111.271 65.9157 111.295 65.8307C111.438 65.3548 111.295 63.7627 111.295 63.7627C111.295 63.7627 111.323 62.6437 111.099 62.2807C110.874 61.9177 110.407 59.8483 110.407 59.8483C110.407 59.8483 110.407 59.1494 110.016 58.7864C109.624 58.4234 109.372 56.9971 109.372 56.9971C109.141 56.6414 109.04 56.2169 109.087 55.7952C109.171 55.0964 108.612 54.3418 108.612 54.3418L107.662 51.3235L106.767 49.0597L106.263 50.3745C106.263 50.3745 106.263 50.5403 106.245 50.8032L106.654 49.7357L107.549 51.9951L108.499 55.0135C108.499 55.0135 109.058 55.7681 108.974 56.4669C108.928 56.8886 109.029 57.3131 109.26 57.6688C109.26 57.6688 109.511 59.098 109.903 59.4581C110.294 59.8183 110.293 60.52 110.293 60.52C110.293 60.52 110.769 62.588 110.992 62.9495C111.215 63.3111 111.182 64.433 111.182 64.433Z" fill="black"/>
</g>
<path d="M113.529 13.0123L113.318 14.0327L113.331 14.4872L113.34 14.8216L112.174 14.9417L112.044 14.7001C111.802 14.2628 111.3 13.3739 111.139 13.2367C110.923 13.0566 110.539 10.2183 110.996 10.387C111.278 10.4957 111.509 10.705 111.645 10.9744C111.645 10.9744 113.942 11.2373 113.529 13.0123Z" fill="#FFCDD3"/>
<path opacity="0.1" d="M113.34 14.8216L112.173 14.9417L112.043 14.7001C112.2 14.5216 112.414 14.4029 112.649 14.3643C112.883 14.3258 113.124 14.3697 113.33 14.4886L113.34 14.8216Z" fill="black"/>
<path d="M113.634 15.3747L112.096 15.7305L112.063 15.5019L111.976 14.8859C111.976 14.8859 112.585 14.0741 113.465 14.683L113.542 14.9959L113.634 15.3747Z" fill="#4978D2"/>
<path d="M88.7239 13.1239L87.0818 14.0042L86.9389 13.6955C86.7831 13.3683 86.5501 12.8752 86.4858 12.6951C86.3886 12.4236 85.7041 12.0806 85.7041 12.0806C83.9891 10.4385 86.0328 9.02653 86.0328 9.02653C87.1161 6.84708 88.3195 9.76683 88.3195 9.76683C88.3195 9.76683 88.4881 11.306 88.3695 11.4089C88.2508 11.5118 88.2508 11.9334 88.2508 11.9334C88.4074 12.2355 88.5397 12.5494 88.6467 12.8724C88.6967 13.0281 88.7239 13.1239 88.7239 13.1239Z" fill="#FFCDD3"/>
<path opacity="0.1" d="M88.724 13.1239L87.082 14.0042L86.939 13.6955C87.1706 13.5012 87.9923 12.838 88.2624 12.8652C88.3914 12.8813 88.5216 12.8846 88.6512 12.8752C88.6969 13.0281 88.724 13.1239 88.724 13.1239Z" fill="black"/>
<path d="M88.8915 13.6198L87.0464 14.5287L87.0093 14.1328L86.9836 13.8584C86.9836 13.8584 88.0526 12.9423 88.3684 12.9781C88.5281 13.0012 88.6903 13.0012 88.85 12.9781L88.8715 13.3096L88.8915 13.6198Z" fill="#4978D2"/>
<path d="M109.057 19.7908C109.057 19.7908 101.013 20.6983 102.517 20.2096C103.563 19.868 103.979 19.2092 104.066 18.466C104.138 17.8472 103.977 17.1798 103.767 16.6081C103.578 16.101 103.339 15.6141 103.053 15.1547C103.053 15.1547 109.198 11.7733 107.971 14.8474C107.781 15.3124 107.664 15.8034 107.622 16.3037C107.585 16.8009 107.639 17.3006 107.78 17.7786C108.012 18.5541 108.454 19.2505 109.057 19.7908Z" fill="#FFCDD3"/>
<path opacity="0.1" d="M107.966 14.843C107.777 15.308 107.659 15.799 107.617 16.2993C107.038 16.7867 106.404 16.7538 105.588 16.7538C104.962 16.7538 104.267 16.9053 103.767 16.6038C103.578 16.0966 103.339 15.6097 103.053 15.1503C103.053 15.1503 109.196 11.7689 107.966 14.843Z" fill="black"/>
<path d="M105.479 16.9682C107.316 16.9682 108.805 15.4793 108.805 13.6426C108.805 11.8059 107.316 10.317 105.479 10.317C103.643 10.317 102.154 11.8059 102.154 13.6426C102.154 15.4793 103.643 16.9682 105.479 16.9682Z" fill="#FFCDD3"/>
<path opacity="0.1" d="M109.057 19.7908C109.057 19.7908 101.013 20.6983 102.517 20.2095C103.563 19.868 103.979 19.2091 104.066 18.466C104.466 18.0372 105.271 17.7185 105.781 17.5528C106.253 17.3941 106.762 17.3857 107.239 17.5285C107.426 17.585 107.605 17.6677 107.769 17.7743C108.003 18.5527 108.449 19.2508 109.057 19.7908Z" fill="black"/>
<path opacity="0.1" d="M113.634 15.3748L112.096 15.7306L112.063 15.502C112.228 15.2758 112.458 15.1059 112.723 15.0154C112.988 14.9248 113.274 14.9181 113.542 14.996L113.634 15.3748Z" fill="black"/>
<path opacity="0.1" d="M88.8912 13.6198L87.0461 14.5287L87.009 14.1328C87.6066 13.8115 88.2277 13.5359 88.8669 13.3082L88.8912 13.6198Z" fill="black"/>
<path opacity="0.1" d="M112.238 40.0575C109.121 40.5548 104.691 41.1894 103.988 40.975C103.403 40.7978 101.539 40.8164 99.9173 40.8721C99.9316 40.0604 99.9459 39.5216 99.9459 39.5216L112.019 38.2639C112.019 38.2639 112.008 38.8213 112.238 40.0575Z" fill="black"/>
<path d="M115.345 39.3257C115.345 39.3257 105.088 41.0864 103.987 40.7549C102.887 40.4233 97.2347 40.782 97.2347 40.782C94.6909 42.487 95.7527 39.9717 95.7527 39.9717C95.7527 39.9717 95.5298 38.6583 95.837 37.5965C96.0434 36.8169 96.1844 36.0214 96.2586 35.2184C96.2586 35.2184 96.2029 33.5406 96.5102 33.149C96.8174 32.7574 97.1819 29.9634 97.1819 29.9634C97.1819 29.9634 97.4605 28.0627 97.4334 27.6439C97.4062 27.2252 97.5163 26.0504 97.5163 26.0504L97.8807 24.0939C95.7842 23.8152 89.4116 19.9022 89.4116 19.9022C89.1043 18.5889 86.7291 15.5148 86.7291 15.5148C86.6945 15.2563 86.6288 15.0029 86.5333 14.7602C86.3661 14.3129 88.8814 13.4182 88.8814 13.4182C88.8814 13.4182 90.7536 15.7048 91.1452 16.3251C91.5367 16.9453 92.8773 18.0858 92.8773 18.0858C93.0856 18.0644 93.296 18.0918 93.4918 18.1658L93.5247 18.1758C93.9739 18.3522 94.3952 18.5929 94.7752 18.8904C95.4054 18.8755 96.0168 19.1061 96.4801 19.5335C96.4801 19.5335 97.6235 19.3649 97.8221 19.5607C98.0208 19.7565 98.9954 19.5607 98.9954 19.5607C98.9954 19.5607 99.973 17.4927 100.616 18.0929C101.259 18.6932 103.987 18.6646 103.987 18.6646C104.35 18.1816 105.235 17.8357 105.788 17.6642C106.26 17.5062 106.769 17.4977 107.246 17.6399C107.452 17.7013 107.645 17.798 107.818 17.9257L109.477 19.5464C109.477 19.5464 109.951 18.9304 109.896 18.7918C109.84 18.6532 110.454 18.5403 110.454 18.5403C110.454 18.5403 111.265 18.2887 111.572 18.2044C111.879 18.1201 112.161 18.4531 112.186 18.4831C112.176 18.4474 111.966 17.7685 112.044 17.254C112.121 16.7395 111.708 16.2536 111.708 16.2536C112.685 13.8498 114.893 15.8621 114.893 15.8621C114.893 15.8621 115.145 17.1754 114.922 17.6785C114.699 18.1816 115.145 19.2434 115.089 19.5235C115.033 19.8036 115.202 20.2781 115.202 20.8097C115.202 21.3414 114.916 22.3461 114.755 22.7934C114.593 23.2407 113.245 24.2468 113.245 24.2468C113.245 24.2468 113.161 25.8403 112.574 26.7621C111.986 27.6839 112.355 30.8366 112.355 30.8366C112.355 30.8366 112.914 33.2962 113.613 34.0794C114.312 34.8625 115.345 39.3257 115.345 39.3257Z" fill="#3F3D56"/>
<path opacity="0.1" d="M100.393 20.9355C100.393 20.9355 100.086 20.0137 99.8057 19.9351C99.5276 19.8328 99.2569 19.7115 98.9954 19.5721L99.1755 19.2277C99.1755 19.2277 100.224 19.5135 100.393 19.8236C100.562 20.1337 100.393 20.9355 100.393 20.9355Z" fill="black"/>
<path opacity="0.1" d="M94.775 18.8962C94.7193 19.182 92.2311 19.4264 92.2311 19.4264L93.4888 18.1659L93.5202 18.1773C93.9712 18.3546 94.3939 18.5968 94.775 18.8962Z" fill="black"/>
<path d="M87.578 15.2833C87.7011 15.2833 87.8009 15.1835 87.8009 15.0603C87.8009 14.9372 87.7011 14.8374 87.578 14.8374C87.4548 14.8374 87.355 14.9372 87.355 15.0603C87.355 15.1835 87.4548 15.2833 87.578 15.2833Z" fill="#575988"/>
<path d="M87.8637 15.7306C87.9869 15.7306 88.0867 15.6308 88.0867 15.5076C88.0867 15.3845 87.9869 15.2847 87.8637 15.2847C87.7405 15.2847 87.6407 15.3845 87.6407 15.5076C87.6407 15.6308 87.7405 15.7306 87.8637 15.7306Z" fill="#575988"/>
<path d="M88.144 16.1436C88.2671 16.1436 88.3669 16.0438 88.3669 15.9207C88.3669 15.7976 88.2671 15.6978 88.144 15.6978C88.0209 15.6978 87.9211 15.7976 87.9211 15.9207C87.9211 16.0438 88.0209 16.1436 88.144 16.1436Z" fill="#575988"/>
<path d="M88.4368 16.5894C88.5599 16.5894 88.6597 16.4896 88.6597 16.3665C88.6597 16.2434 88.5599 16.1436 88.4368 16.1436C88.3137 16.1436 88.2138 16.2434 88.2138 16.3665C88.2138 16.4896 88.3137 16.5894 88.4368 16.5894Z" fill="#575988"/>
<path d="M114.782 16.5238C114.882 16.5238 114.963 16.4425 114.963 16.3423C114.963 16.242 114.882 16.1608 114.782 16.1608C114.681 16.1608 114.6 16.242 114.6 16.3423C114.6 16.4425 114.681 16.5238 114.782 16.5238Z" fill="#575988"/>
<path d="M114.81 16.9367C114.91 16.9367 114.992 16.8555 114.992 16.7552C114.992 16.655 114.91 16.5737 114.81 16.5737C114.71 16.5737 114.629 16.655 114.629 16.7552C114.629 16.8555 114.71 16.9367 114.81 16.9367Z" fill="#575988"/>
<path d="M114.835 17.3484C114.935 17.3484 115.016 17.2671 115.016 17.1669C115.016 17.0666 114.935 16.9854 114.835 16.9854C114.734 16.9854 114.653 17.0666 114.653 17.1669C114.653 17.2671 114.734 17.3484 114.835 17.3484Z" fill="#575988"/>
<path opacity="0.1" d="M100.403 28.51C100.376 28.4771 106.677 36.4332 111.568 31.8356C111.572 31.837 103.845 32.8846 100.403 28.51Z" fill="black"/>
<path opacity="0.1" d="M96.7874 32.6459C96.7874 32.6459 100.557 32.7488 100.952 33.8335V34.9625C100.845 35.0221 100.724 35.0533 100.601 35.0533C100.478 35.0533 100.358 35.0221 100.25 34.9625C99.87 34.7567 97.5905 33.5991 96.7874 34.1565V32.6459Z" fill="black"/>
<path d="M96.8573 32.6459C96.8573 32.6459 100.463 32.7445 100.84 33.7792V34.8539C100.738 34.911 100.622 34.9409 100.504 34.9409C100.387 34.9409 100.271 34.911 100.169 34.8539C99.8056 34.6595 97.6262 33.5548 96.8573 34.0864V32.6459Z" fill="#3F3D56"/>
<path opacity="0.1" d="M98.8455 24.4598C99.2306 25.3514 99.7215 26.1935 100.307 26.968C100.945 27.8241 101.717 28.5708 102.594 29.1789C102.594 29.1789 98.9083 24.9772 98.8455 24.4598Z" fill="black"/>
<path opacity="0.1" d="M97.6117 20.0795C97.6117 20.0795 98.2406 22.7948 99.8612 23.7166L97.6117 20.0795Z" fill="black"/>
<path opacity="0.1" d="M96.647 20.3539C96.6313 20.3038 96.0883 22.4976 98.7364 23.7166C98.7364 23.7166 97.6117 23.335 96.647 20.3539Z" fill="black"/>
<path opacity="0.1" d="M113.11 18.5332C113.068 18.5332 114.416 19.3907 114.783 19.7908C114.783 19.7908 113.906 18.476 113.11 18.5332Z" fill="black"/>
<path d="M104.581 16.6567C104.581 16.7292 104.597 16.8009 104.626 16.8671C104.656 16.9333 104.699 16.9927 104.753 17.0415C104.806 17.0902 104.87 17.1273 104.938 17.1504C105.007 17.1734 105.08 17.182 105.152 17.1754C106.165 17.2383 107.222 17.2826 108.153 16.8896C108.328 16.8272 108.485 16.7232 108.611 16.5866C108.777 16.3823 108.809 16.105 108.877 15.8506C109.008 15.3533 109.288 14.9117 109.49 14.4386C109.831 13.6394 109.945 12.7617 109.82 11.9019C109.793 11.6383 109.706 11.3845 109.565 11.1602C109.297 10.7757 108.807 10.62 108.451 10.3141C108.095 10.0083 107.866 9.54096 107.45 9.31372C107.076 9.10507 106.617 9.13079 106.195 9.20225C105.366 9.34307 104.572 9.64142 103.855 10.0812C103.613 10.2241 103.349 10.3999 103.071 10.347C102.828 10.3013 102.651 10.0969 102.5 9.90539C102.305 10.3627 102.223 10.8603 102.261 11.356C102.272 11.4287 102.269 11.5027 102.254 11.5746C102.219 11.6615 102.166 11.74 102.098 11.8047C101.848 12.0905 101.692 12.555 101.94 12.8494C102.047 12.9766 102.212 13.0466 102.317 13.1767C102.504 13.4096 102.441 13.7484 102.437 14.0456C102.427 14.1494 102.453 14.2536 102.511 14.34C102.565 14.3904 102.631 14.426 102.703 14.4433C102.775 14.4605 102.85 14.4589 102.921 14.4386C103.063 14.396 103.212 14.3819 103.359 14.3972C103.514 14.4476 103.647 14.5481 103.739 14.683C104.2 15.2847 104.383 15.9392 104.581 16.6567Z" fill="#2D293D"/>
<g opacity="0.1">
<path opacity="0.1" d="M108.729 16.3337C108.603 16.4703 108.446 16.5743 108.272 16.6367C107.334 17.0268 106.28 16.9825 105.271 16.9225C105.162 16.9236 105.055 16.8996 104.958 16.8525C104.803 16.7624 104.745 16.5738 104.698 16.4023C104.5 15.6877 104.319 15.0317 103.85 14.4358C103.76 14.2983 103.626 14.1952 103.47 14.1428C103.323 14.1289 103.174 14.143 103.033 14.1843C102.962 14.2048 102.887 14.2066 102.815 14.1896C102.743 14.1725 102.677 14.1372 102.622 14.0871C102.564 14.0006 102.538 13.8965 102.548 13.7927C102.548 13.4926 102.615 13.1567 102.428 12.9238C102.324 12.7937 102.158 12.7237 102.051 12.5951C101.981 12.5002 101.938 12.3882 101.927 12.271C101.915 12.1537 101.936 12.0355 101.986 11.9291C101.808 12.2149 101.732 12.5736 101.939 12.8194C102.047 12.9466 102.212 13.0167 102.317 13.1467C102.504 13.3811 102.441 13.7184 102.437 14.0156C102.426 14.1193 102.451 14.2235 102.51 14.31C102.564 14.3607 102.63 14.3964 102.702 14.4137C102.774 14.4309 102.85 14.4292 102.921 14.4086C103.063 14.366 103.211 14.3519 103.358 14.3672C103.513 14.4176 103.647 14.5181 103.739 14.653C104.206 15.249 104.389 15.9035 104.586 16.6209C104.609 16.7975 104.697 16.959 104.833 17.074C104.931 17.1212 105.039 17.1447 105.148 17.1426C106.161 17.2055 107.217 17.2512 108.149 16.8568C108.324 16.7948 108.481 16.6907 108.606 16.5538C108.669 16.4733 108.718 16.3823 108.749 16.2851C108.75 16.3037 108.74 16.3194 108.729 16.3337Z" fill="black"/>
<path opacity="0.1" d="M102.261 11.4874C102.306 11.4387 102.34 11.3813 102.362 11.3188C102.375 11.2465 102.375 11.1725 102.362 11.1001C102.334 10.6927 102.387 10.2837 102.518 9.8968L102.499 9.87537C102.304 10.332 102.222 10.8293 102.261 11.3245C102.265 11.3787 102.265 11.4332 102.261 11.4874Z" fill="black"/>
</g>
<path opacity="0.1" d="M103.987 18.6718C103.987 18.6718 108.142 19.2234 108.515 18.5989L103.987 18.6718Z" fill="black"/>
<path opacity="0.1" d="M112.063 16.9525C112.063 16.9525 114.373 16.9525 114.88 17.8214L112.063 16.9525Z" fill="black"/>
<path d="M124.984 94.1477C124.299 94.7601 123.409 95.0927 122.491 95.0795C122.256 95.0795 121.932 95.1238 121.93 95.3582C121.936 95.427 121.96 95.493 121.999 95.5497C122.289 96.0331 122.747 96.3928 123.285 96.5601C123.785 96.7116 124.32 96.6859 124.841 96.6587L126.363 96.5801C126.649 96.5644 126.935 96.5501 127.221 96.5144C127.507 96.4787 127.818 96.4201 128.117 96.3715C128.851 96.2671 129.593 96.2327 130.334 96.2686C130.531 96.2757 130.762 96.2686 130.88 96.1257C130.997 95.9828 130.937 95.7098 130.892 95.4954C130.801 95.0538 130.892 94.5908 130.808 94.1477C130.665 93.3703 129.992 92.7743 129.255 92.4928C128.569 92.2327 127.354 91.934 126.705 92.3684C126.02 92.8243 125.602 93.5861 124.984 94.1477Z" fill="#3F3D56"/>
<path d="M126.496 68.1001C126.63 68.7389 127.249 69.2277 127.266 69.8793C127.282 70.4024 126.909 70.8412 126.641 71.2885C126.387 71.7518 126.174 72.2356 126.002 72.7348C125.496 74.0345 124.868 75.2835 124.127 76.4649C123.769 77.0365 123.369 77.6468 123.451 78.3113C123.508 78.6221 123.617 78.9208 123.775 79.1945L124.847 81.3239C125.082 81.7491 125.265 82.2005 125.394 82.6688C125.487 83.0732 125.496 83.492 125.55 83.9036C125.719 85.2098 126.332 86.5246 125.969 87.7908C125.937 87.8995 125.826 88.0309 125.739 87.9552C126.093 88.6169 126.378 89.2829 126.35 90.0332C126.336 90.4262 126.216 90.8363 126.36 91.2022C126.422 91.3551 126.529 91.498 126.528 91.6624C126.528 91.771 126.478 91.8725 126.466 91.9782C126.436 92.2798 126.713 92.5313 127.001 92.6271C127.288 92.7228 127.601 92.7157 127.891 92.8029C128.448 92.9701 128.847 93.4503 129.32 93.7832C129.805 94.1176 130.377 94.3037 130.966 94.3192C131.051 94.3281 131.135 94.3112 131.209 94.2706C131.251 94.2339 131.285 94.1886 131.308 94.1378C131.331 94.0871 131.344 94.032 131.344 93.9762C131.37 93.7093 131.329 93.4401 131.227 93.1923C131.124 92.9446 130.962 92.7259 130.755 92.5556C130.664 92.4988 130.589 92.4202 130.536 92.3269C130.51 92.2444 130.503 92.1568 130.516 92.0711C130.603 90.8998 130.582 89.723 130.453 88.5554C130.396 88.1854 130.377 87.8103 130.398 87.4364C130.428 87.1248 130.522 86.8162 130.488 86.506C130.453 86.1959 130.295 85.9129 130.202 85.6142C130.036 85.0826 130.082 84.5109 130.059 83.955C130.03 82.9889 129.809 82.0399 129.589 81.0967C129.502 80.7266 129.406 80.3393 129.144 80.0649C128.921 79.8319 128.561 79.609 128.646 79.2988C128.692 79.1845 128.762 79.0809 128.85 78.9944C128.953 78.8646 129.029 78.715 129.073 78.5547C129.117 78.3945 129.127 78.2271 129.104 78.0626C129.198 78.0866 129.298 78.0772 129.386 78.036C129.473 77.9948 129.544 77.9244 129.586 77.8368C131.327 77.0151 132.73 75.3716 133.356 73.5494C133.393 73.4141 133.45 73.285 133.525 73.1664C133.686 72.9406 133.966 72.8434 134.215 72.7191C134.995 72.326 135.534 71.59 136.028 70.8697C136.314 70.4524 136.6 70.0208 136.729 69.5292C136.796 69.2112 136.828 68.8867 136.824 68.5617L136.869 66.8824C136.879 66.7719 136.868 66.6604 136.837 66.5537C136.795 66.454 136.733 66.3637 136.656 66.2879C136.181 65.7853 135.556 65.4486 134.875 65.3275C134.418 65.2461 133.951 65.2618 133.487 65.2232C132.59 65.1489 131.704 64.8702 130.806 64.9374C129.396 65.0417 128.14 66.0192 127.475 67.2683C127.242 67.7085 126.996 68.0915 126.496 68.1001Z" fill="#464353"/>
<path d="M118.665 57.1814C118.684 57.4407 118.649 57.701 118.562 57.946C118.452 58.1804 118.176 58.3633 117.934 58.2676C118.007 58.1032 117.814 57.916 117.634 57.936C117.546 57.9564 117.463 57.9981 117.394 58.0573C117.325 58.1166 117.272 58.1917 117.238 58.2762C117.119 58.5162 117.079 58.7879 117.124 59.0522C117.181 59.3809 117.371 59.6967 117.321 60.0269C117.281 60.3012 117.08 60.5742 117.187 60.8286C117.256 60.9448 117.344 61.0495 117.446 61.1387C117.587 61.3127 117.656 61.5341 117.639 61.7575C117.621 61.9809 117.519 62.1891 117.353 62.3392L120.057 62.3935C119.958 62.8451 120.161 63.3067 120.393 63.7083C121.041 64.8124 121.936 65.7513 123.009 66.4512C124.081 67.1512 125.3 67.5933 126.572 67.7428C126.503 67.7829 126.444 67.8379 126.399 67.9036C126.355 67.9693 126.325 68.0442 126.312 68.1229C126.3 68.2015 126.305 68.2819 126.327 68.3583C126.35 68.4347 126.389 68.5051 126.442 68.5646C126.662 68.7832 127.035 68.7561 127.311 68.6146C127.587 68.4731 127.803 68.2387 128.054 68.0572C128.498 67.7426 129.04 67.5966 129.582 67.6456C129.921 67.6785 130.249 67.7885 130.589 67.8057C131.59 67.8586 132.447 67.1383 133.411 66.8439C134.112 66.6281 134.908 66.6281 135.497 66.1893C135.752 66.0007 135.96 65.6905 135.886 65.3847C135.824 65.2089 135.727 65.0479 135.6 64.9117C135.261 64.4729 135.061 63.9456 134.818 63.4468C134.337 62.4593 133.674 61.5711 132.865 60.8286C132.254 60.2945 131.606 59.8036 130.927 59.3594C130.762 59.2382 130.587 59.1325 130.404 59.0436C130.166 58.9393 129.903 58.8893 129.689 58.7578C129.372 58.5577 129.189 58.2047 128.944 57.9203C128.409 57.2943 127.585 57.0071 126.925 56.5154C126.482 56.1853 126.09 55.7509 125.562 55.5922C125.304 55.5136 125.032 55.5079 124.774 55.4307C124.19 55.2535 123.764 54.7347 123.191 54.5247C122.738 54.3589 122.238 54.4017 121.762 54.3432C121.225 54.277 120.713 54.0818 120.268 53.7744C120.125 53.6577 119.964 53.5641 119.792 53.4971C119.068 53.277 119.009 54.6261 118.935 55.0935C118.839 55.788 118.665 56.4783 118.665 57.1814Z" fill="#4978D2"/>
<path d="M119.371 61.7061C119.492 63.0238 118.497 64.3 118.788 65.5905C118.849 65.8649 118.968 66.1265 119.01 66.4052C119.132 67.1698 118.675 67.8943 118.239 68.5346L114.494 74.0296C114.344 74.2709 114.165 74.4926 113.96 74.6899C113.245 75.3259 112.171 75.2616 111.23 75.4502C110.57 75.586 109.946 75.8618 109.401 76.2591C109.376 76.2781 109.36 76.3059 109.356 76.3366C109.352 76.3674 109.36 76.3985 109.378 76.4235C109.533 76.6349 109.739 76.8041 109.976 76.9157C110.214 77.0273 110.475 77.0777 110.737 77.0623C110.836 77.1909 110.737 77.3824 110.601 77.4753C110.401 77.6182 110.124 77.6511 110.084 77.9927C110.07 78.1114 110.094 78.2313 110.153 78.3357C110.304 78.566 110.539 78.7288 110.807 78.7901C112.103 79.1874 113.504 78.49 114.474 77.5425C115.445 76.595 116.141 75.3988 117.093 74.4355C117.62 73.901 118.219 73.4451 118.762 72.9278C119.845 71.8945 120.688 70.6411 121.5 69.3849C121.744 69.0062 121.992 68.6175 122.093 68.1787C122.195 67.74 122.147 67.2955 122.263 66.8711C122.415 66.3151 122.822 65.8707 123.161 65.4048C123.825 64.4901 124.27 63.3711 124.181 62.2435C124.093 61.1159 123.395 60.004 122.332 59.621C122.002 59.49 121.639 59.4679 121.296 59.5581C120.86 59.6925 120.538 60.0526 120.241 60.3985L119.526 61.2188C119.352 61.4004 119.216 61.6146 119.125 61.849C119.079 61.9671 119.068 62.096 119.093 62.2202C119.118 62.3445 119.179 62.4587 119.268 62.5493" fill="#FBBEBE"/>
<path d="M121.268 56.3011C120.777 56.3297 120.235 56.3782 119.888 56.7298C119.742 56.8912 119.624 57.0757 119.539 57.2757C119.202 57.9632 118.873 58.682 118.849 59.448C118.829 60.0597 119.006 60.6585 119.099 61.263C119.176 61.7661 118.98 62.2791 118.943 62.7879C119.553 62.6007 120.359 62.3463 120.913 62.0305C121.29 61.8147 121.654 61.5689 122.066 61.4317C122.653 61.2359 123.638 61.5746 124.197 61.8461C124.227 61.4545 123.932 60.7714 123.964 60.3784C123.968 60.213 123.997 60.0491 124.051 59.8925C124.134 59.7268 124.234 59.5694 124.347 59.4223C124.559 59.0765 124.657 58.6722 124.626 58.2674C124.595 57.8625 124.437 57.4779 124.174 57.1686C123.678 56.6112 122.902 56.4025 122.162 56.3111C121.695 56.257 121.226 56.2408 120.757 56.2625" fill="#4978D2"/>
</g>
<defs>
<linearGradient id="paint0_linear" x1="100.929" y1="78.057" x2="100.929" y2="8.22042" gradientUnits="userSpaceOnUse">
<stop stop-color="#808080" stop-opacity="0.25"/>
<stop offset="0.54" stop-color="#808080" stop-opacity="0.12"/>
<stop offset="1" stop-color="#808080" stop-opacity="0.1"/>
</linearGradient>
<clipPath id="clip0">
<rect width="150" height="96.9802" fill="white"/>
</clipPath>
</defs>
</svg>
