<svg width="150" height="136" viewBox="0 0 150 136" fill="none" xmlns="http://www.w3.org/2000/svg">
<g clip-path="url(#clip0)">
<path d="M121.977 54.6443C113.992 48.6745 101.485 43.0287 87.6631 39.1547C75.0783 35.6273 62.8036 33.9243 53.0973 34.3592L53.0468 33.2305C62.8687 32.7906 75.2708 34.5079 87.9681 38.0668C101.919 41.9769 114.561 47.6894 122.654 53.7393L121.977 54.6443Z" fill="#3F3D56"/>
<path d="M121.148 59.2425C121.155 64.5316 120.047 69.7627 117.894 74.5941C117.715 74.9986 117.528 75.3994 117.333 75.7963C113.589 83.4638 107.358 89.6366 99.6559 93.3079C91.9535 96.9792 83.2345 97.9324 74.9209 96.0119C66.6073 94.0914 59.1897 89.4106 53.878 82.733C48.5663 76.0554 45.674 67.7751 45.6727 59.2425C45.6727 58.3691 45.7025 57.5025 45.762 56.6427C45.7902 56.2054 45.8268 55.7708 45.8716 55.3388C46.8724 45.7202 51.5273 36.8528 58.8758 30.5664C66.2243 24.2801 75.7056 21.0545 85.3631 21.5553C95.0207 22.0561 104.117 26.2452 110.776 33.2579C117.435 40.2707 121.148 49.572 121.148 59.2425H121.148Z" fill="#F2F2F2"/>
<path opacity="0.1" d="M117.894 74.5941C117.715 74.9986 117.527 75.3994 117.333 75.7963C116.23 75.9161 115.069 76.0031 113.851 76.0573C112.842 76.1025 111.803 76.1251 110.742 76.1251C101.475 76.1251 90.322 74.4145 78.9283 71.2215C66.2308 67.6624 54.7433 62.6841 46.5811 57.2031C46.3032 57.0167 46.0301 56.8299 45.762 56.6427C45.7902 56.2055 45.8267 55.7708 45.8716 55.3389C46.3043 55.6473 46.7506 55.9561 47.2105 56.2653C55.2766 61.6808 66.6488 66.606 79.2334 70.1334C90.5276 73.2993 101.576 74.9953 110.737 74.9953C111.784 74.9953 112.805 74.9731 113.8 74.9286C115.248 74.8631 116.613 74.7516 117.894 74.5941Z" fill="black"/>
<path d="M110.742 75.2214C101.475 75.2216 90.3217 73.5108 78.9286 70.3175C66.2312 66.7586 54.7432 61.7802 46.581 56.2993C38.2483 50.7041 34.341 45.1907 35.5786 40.775C36.8163 36.3592 43.0199 33.6798 53.0468 33.2305L53.0973 34.3592C48.4149 34.569 44.5989 35.265 41.7554 36.4278C38.9188 37.5877 37.2067 39.1529 36.6665 41.08C36.1264 43.007 36.7757 45.234 38.5962 47.6993C40.4211 50.1705 43.3195 52.7484 47.2108 55.3613C55.2761 60.777 66.6486 65.7023 79.2336 69.2296C90.5281 72.3952 101.575 74.0916 110.737 74.0918C111.784 74.0918 112.804 74.0695 113.799 74.025C118.482 73.8152 122.298 73.1193 125.141 71.9565C127.978 70.7966 129.69 69.2315 130.23 67.3044C131.2 63.8441 128.269 59.348 121.977 54.6443L122.654 53.7394C125.892 56.1599 128.288 58.5459 129.777 60.8308C131.374 63.2804 131.892 65.5611 131.318 67.6093C130.08 72.0251 123.877 74.7044 113.85 75.1538C112.841 75.199 111.803 75.2214 110.742 75.2214Z" fill="#3F3D56"/>
<path d="M84.4088 14.6986C84.6476 14.6986 84.8412 14.505 84.8412 14.2662C84.8412 14.0274 84.6476 13.8337 84.4088 13.8337C84.1699 13.8337 83.9763 14.0274 83.9763 14.2662C83.9763 14.505 84.1699 14.6986 84.4088 14.6986Z" fill="#F2F2F2"/>
<path d="M27.0387 33.4636C27.4496 33.4636 27.7826 33.1305 27.7826 32.7197C27.7826 32.3088 27.4496 31.9757 27.0387 31.9757C26.6278 31.9757 26.2947 32.3088 26.2947 32.7197C26.2947 33.1305 26.6278 33.4636 27.0387 33.4636Z" fill="#CCCCCC"/>
<path d="M25.453 63.3068C26.2646 63.3068 26.9226 62.6489 26.9226 61.8372C26.9226 61.0255 26.2646 60.3676 25.453 60.3676C24.6413 60.3676 23.9833 61.0255 23.9833 61.8372C23.9833 62.6489 24.6413 63.3068 25.453 63.3068Z" fill="#CCCCCC"/>
<path d="M113.671 17.8403C114.211 17.8403 114.65 17.4018 114.65 16.8608C114.65 16.3199 114.211 15.8813 113.671 15.8813C113.13 15.8813 112.691 16.3199 112.691 16.8608C112.691 17.4018 113.13 17.8403 113.671 17.8403Z" fill="#CCCCCC"/>
<path d="M148.41 59.1031C149.288 59.1031 150 58.3911 150 57.5128C150 56.6345 149.288 55.9225 148.41 55.9225C147.531 55.9225 146.819 56.6345 146.819 57.5128C146.819 58.3911 147.531 59.1031 148.41 59.1031Z" fill="#CCCCCC"/>
<path d="M135.974 32.7954C136.351 32.7954 136.657 32.4899 136.657 32.1131C136.657 31.7363 136.351 31.4308 135.974 31.4308C135.597 31.4308 135.292 31.7363 135.292 32.1131C135.292 32.4899 135.597 32.7954 135.974 32.7954Z" fill="#CCCCCC"/>
<path d="M53.1291 24.4118C53.717 24.4118 54.1936 23.9353 54.1936 23.3474C54.1936 22.7595 53.717 22.283 53.1291 22.283C52.5413 22.283 52.0647 22.7595 52.0647 23.3474C52.0647 23.9353 52.5413 24.4118 53.1291 24.4118Z" fill="#CCCCCC"/>
<path d="M133.586 54.9705C133.963 54.9705 134.269 54.665 134.269 54.2881C134.269 53.9113 133.963 53.6058 133.586 53.6058C133.21 53.6058 132.904 53.9113 132.904 54.2881C132.904 54.665 133.21 54.9705 133.586 54.9705Z" fill="#CCCCCC"/>
<path d="M0.849225 57.6479C1.31824 57.6479 1.69845 57.2677 1.69845 56.7987C1.69845 56.3297 1.31824 55.9495 0.849225 55.9495C0.380211 55.9495 0 56.3297 0 56.7987C0 57.2677 0.380211 57.6479 0.849225 57.6479Z" fill="#CCCCCC"/>
<path d="M13.7506 43.7426C14.2585 43.7426 14.6703 43.3309 14.6703 42.823C14.6703 42.3151 14.2585 41.9033 13.7506 41.9033C13.2427 41.9033 12.8309 42.3151 12.8309 42.823C12.8309 43.3309 13.2427 43.7426 13.7506 43.7426Z" fill="#CCCCCC"/>
<path d="M72.8008 1.81476H70.986V0H70.0123V1.81476H68.1967V2.78932H70.0123V4.60409H70.986V2.78932H72.8008V1.81476Z" fill="#CCCCCC"/>
<path d="M114.9 100.016H113.76V98.8765H113.149V100.016H112.009V100.627H113.149V101.767H113.76V100.627H114.9V100.016Z" fill="#CCCCCC"/>
<path d="M141.202 94.1828H140.35V93.3309H139.893V94.1828H139.041V94.6403H139.893V95.4921H140.35V94.6403H141.202V94.1828Z" fill="#CCCCCC"/>
<path opacity="0.1" d="M59.6157 56.0713C61.3671 56.0713 62.7869 54.6515 62.7869 52.9001C62.7869 51.1487 61.3671 49.7289 59.6157 49.7289C57.8643 49.7289 56.4445 51.1487 56.4445 52.9001C56.4445 54.6515 57.8643 56.0713 59.6157 56.0713Z" fill="black"/>
<path opacity="0.1" d="M94.6432 87.9276C96.3946 87.9276 97.8144 86.5078 97.8144 84.7564C97.8144 83.005 96.3946 81.5852 94.6432 81.5852C92.8918 81.5852 91.472 83.005 91.472 84.7564C91.472 86.5078 92.8918 87.9276 94.6432 87.9276Z" fill="black"/>
<path opacity="0.1" d="M83.9763 60.9723C85.7278 60.9723 87.1476 59.5525 87.1476 57.8011C87.1476 56.0497 85.7278 54.6299 83.9763 54.6299C82.2249 54.6299 80.8051 56.0497 80.8051 57.8011C80.8051 59.5525 82.2249 60.9723 83.9763 60.9723Z" fill="black"/>
<path opacity="0.1" d="M61.2012 78.4139C62.9527 78.4139 64.3725 76.9941 64.3725 75.2427C64.3725 73.4913 62.9527 72.0715 61.2012 72.0715C59.4498 72.0715 58.03 73.4913 58.03 75.2427C58.03 76.9941 59.4498 78.4139 61.2012 78.4139Z" fill="black"/>
<path opacity="0.1" d="M100.986 43.963C102.737 43.963 104.157 42.5432 104.157 40.7918C104.157 39.0404 102.737 37.6206 100.986 37.6206C99.2341 37.6206 97.8143 39.0404 97.8143 40.7918C97.8143 42.5432 99.2341 43.963 100.986 43.963Z" fill="black"/>
<path opacity="0.1" d="M111.508 65.4408C113.26 65.4408 114.679 64.021 114.679 62.2696C114.679 60.5182 113.26 59.0984 111.508 59.0984C109.757 59.0984 108.337 60.5182 108.337 62.2696C108.337 64.021 109.757 65.4408 111.508 65.4408Z" fill="black"/>
<path d="M100.986 31.7106C103.294 31.7106 105.166 29.839 105.166 27.5303C105.166 25.2217 103.294 23.3501 100.986 23.3501C98.6769 23.3501 96.8054 25.2217 96.8054 27.5303C96.8054 29.839 98.6769 31.7106 100.986 31.7106Z" fill="white"/>
<path d="M100.986 21.4763C99.4182 21.4763 97.915 22.099 96.8067 23.2073C95.6983 24.3157 95.0757 25.8189 95.0757 27.3863C95.0757 30.6503 100.986 41.3685 100.986 41.3685C100.986 41.3685 106.896 30.6503 106.896 27.3863C106.896 25.8189 106.273 24.3157 105.165 23.2073C104.056 22.099 102.553 21.4763 100.986 21.4763ZM100.986 30.2692C100.444 30.2692 99.9145 30.1086 99.4641 29.8077C99.0137 29.5067 98.6627 29.079 98.4554 28.5785C98.2481 28.0781 98.1938 27.5274 98.2995 26.9961C98.4052 26.4649 98.666 25.9769 99.0491 25.5938C99.4321 25.2108 99.9201 24.95 100.451 24.8443C100.983 24.7386 101.533 24.7928 102.034 25.0001C102.534 25.2074 102.962 25.5585 103.263 26.0089C103.564 26.4593 103.724 26.9888 103.724 27.5304C103.724 27.8901 103.654 28.2462 103.516 28.5785C103.378 28.9108 103.177 29.2127 102.922 29.4671C102.668 29.7214 102.366 29.9231 102.034 30.0608C101.701 30.1984 101.345 30.2692 100.986 30.2692Z" fill="#4978D2"/>
<path d="M59.5992 43.0493C61.9079 43.0493 63.7795 41.1778 63.7795 38.8691C63.7795 36.5604 61.9079 34.6888 59.5992 34.6888C57.2906 34.6888 55.419 36.5604 55.419 38.8691C55.419 41.1778 57.2906 43.0493 59.5992 43.0493Z" fill="white"/>
<path d="M59.5993 32.8149C58.0319 32.8149 56.5287 33.4376 55.4203 34.5459C54.312 35.6543 53.6893 37.1575 53.6893 38.7249C53.6893 41.9889 59.5993 52.7071 59.5993 52.7071C59.5993 52.7071 65.5093 41.9889 65.5093 38.7249C65.5093 37.1575 64.8866 35.6543 63.7783 34.5459C62.67 33.4376 61.1667 32.8149 59.5993 32.8149ZM59.5993 41.6079C59.0576 41.6079 58.5281 41.4472 58.0777 41.1463C57.6273 40.8453 57.2763 40.4176 57.069 39.9171C56.8617 39.4167 56.8075 38.866 56.9132 38.3348C57.0188 37.8035 57.2797 37.3155 57.6627 36.9324C58.0457 36.5494 58.5337 36.2886 59.065 36.1829C59.5963 36.0772 60.147 36.1315 60.6474 36.3388C61.1479 36.5461 61.5756 36.8971 61.8765 37.3475C62.1775 37.7979 62.3381 38.3274 62.3381 38.8691C62.3381 39.2287 62.2673 39.5849 62.1296 39.9172C61.992 40.2494 61.7903 40.5514 61.5359 40.8057C61.2816 41.06 60.9797 41.2617 60.6474 41.3994C60.3151 41.537 59.959 41.6079 59.5993 41.6079Z" fill="#3F3D56"/>
<path d="M112.041 52.6873C114.35 52.6873 116.221 50.8157 116.221 48.507C116.221 46.1983 114.35 44.3268 112.041 44.3268C109.732 44.3268 107.861 46.1983 107.861 48.507C107.861 50.8157 109.732 52.6873 112.041 52.6873Z" fill="white"/>
<path d="M112.041 42.4529C110.474 42.4529 108.97 43.0755 107.862 44.1839C106.754 45.2922 106.131 46.7954 106.131 48.3629C106.131 51.6269 112.041 62.345 112.041 62.345C112.041 62.345 117.951 51.6269 117.951 48.3629C117.951 46.7954 117.328 45.2922 116.22 44.1839C115.112 43.0755 113.608 42.4529 112.041 42.4529ZM112.041 51.2458C111.499 51.2458 110.97 51.0852 110.519 50.7842C110.069 50.4833 109.718 50.0555 109.511 49.5551C109.303 49.0546 109.249 48.504 109.355 47.9727C109.46 47.4414 109.721 46.9534 110.104 46.5704C110.487 46.1874 110.975 45.9265 111.507 45.8208C112.038 45.7152 112.589 45.7694 113.089 45.9767C113.59 46.184 114.017 46.535 114.318 46.9854C114.619 47.4358 114.78 47.9653 114.78 48.507C114.78 48.8667 114.709 49.2228 114.571 49.5551C114.434 49.8874 114.232 50.1893 113.978 50.4436C113.723 50.6979 113.421 50.8997 113.089 51.0373C112.757 51.175 112.401 51.2458 112.041 51.2458Z" fill="#CCCCCC"/>
<path d="M41.1738 73.6639C43.4825 73.6639 45.3541 71.7924 45.3541 69.4837C45.3541 67.175 43.4825 65.3035 41.1738 65.3035C38.8651 65.3035 36.9936 67.175 36.9936 69.4837C36.9936 71.7924 38.8651 73.6639 41.1738 73.6639Z" fill="white"/>
<path d="M41.1739 63.4296C39.6065 63.4296 38.1033 64.0522 36.995 65.1606C35.8866 66.2689 35.264 67.7721 35.264 69.3395C35.264 72.6035 41.1739 83.3217 41.1739 83.3217C41.1739 83.3217 47.0839 72.6035 47.0839 69.3395C47.0839 67.7721 46.4613 66.2689 45.3529 65.1606C44.2446 64.0522 42.7414 63.4296 41.1739 63.4296ZM41.1739 72.2225C40.6323 72.2225 40.1027 72.0618 39.6524 71.7609C39.202 71.46 38.8509 71.0322 38.6436 70.5318C38.4364 70.0313 38.3821 69.4806 38.4878 68.9494C38.5935 68.4181 38.8543 67.9301 39.2373 67.5471C39.6204 67.164 40.1084 66.9032 40.6397 66.7975C41.1709 66.6919 41.7216 66.7461 42.222 66.9534C42.7225 67.1607 43.1502 67.5117 43.4512 67.9621C43.7521 68.4125 43.9127 68.942 43.9127 69.4837C43.9127 69.8434 43.8419 70.1995 43.7043 70.5318C43.5666 70.8641 43.3649 71.166 43.1106 71.4203C42.8562 71.6746 42.5543 71.8764 42.222 72.014C41.8898 72.1516 41.5336 72.2225 41.1739 72.2225Z" fill="#4978D2"/>
<path d="M137.394 103.049C138.205 102.37 137.109 99.7236 134.945 97.1387C132.78 94.5539 130.368 93.0092 129.557 93.6886C128.745 94.3681 129.842 97.0142 132.006 99.5991C134.17 102.184 136.583 103.729 137.394 103.049Z" fill="#2F2E41"/>
<path d="M120.491 108.457C127.233 108.457 132.699 102.992 132.699 96.2491C132.699 89.5067 127.233 84.0409 120.491 84.0409C113.748 84.0409 108.282 89.5067 108.282 96.2491C108.282 102.992 113.748 108.457 120.491 108.457Z" fill="#2F2E41"/>
<path d="M125.658 105.83H121.949V112.475H125.658V105.83Z" fill="#2F2E41"/>
<path d="M118.24 105.83H114.531V112.475H118.24V105.83Z" fill="#2F2E41"/>
<path d="M122.567 113.711C124.274 113.711 125.658 113.193 125.658 112.552C125.658 111.912 124.274 111.393 122.567 111.393C120.86 111.393 119.477 111.912 119.477 112.552C119.477 113.193 120.86 113.711 122.567 113.711Z" fill="#2F2E41"/>
<path d="M115.15 113.557C116.857 113.557 118.24 113.038 118.24 112.398C118.24 111.758 116.857 111.239 115.15 111.239C113.443 111.239 112.059 111.758 112.059 112.398C112.059 113.038 113.443 113.557 115.15 113.557Z" fill="#2F2E41"/>
<path d="M116.657 80.9031C117.747 76.513 122.559 73.9295 127.405 75.1327C132.251 76.3359 135.295 80.8702 134.205 85.2603C133.115 89.6504 129.498 89.6645 124.653 88.4613C119.807 87.2581 115.567 85.2932 116.657 80.9031Z" fill="#4978D2"/>
<path d="M112.255 93.2003C112.709 92.244 110.607 90.2977 107.561 88.8531C104.515 87.4084 101.678 87.0124 101.225 87.9687C100.771 88.9249 102.873 90.8712 105.919 92.3159C108.965 93.7605 111.802 94.1565 112.255 93.2003Z" fill="#2F2E41"/>
<path d="M118.665 97.7433C120.913 97.7433 122.736 95.921 122.736 93.6731C122.736 91.4252 120.913 89.6029 118.665 89.6029C116.418 89.6029 114.595 91.4252 114.595 93.6731C114.595 95.921 116.418 97.7433 118.665 97.7433Z" fill="white"/>
<path d="M116.993 93.5709C117.742 93.5709 118.349 92.9635 118.349 92.2142C118.349 91.4649 117.742 90.8574 116.993 90.8574C116.243 90.8574 115.636 91.4649 115.636 92.2142C115.636 92.9635 116.243 93.5709 116.993 93.5709Z" fill="#3F3D56"/>
<path d="M121.219 102.153C121.283 102.504 121.277 102.863 121.202 103.212C121.126 103.56 120.983 103.89 120.781 104.183C120.578 104.476 120.319 104.726 120.02 104.92C119.72 105.113 119.386 105.245 119.035 105.309C118.685 105.373 118.325 105.367 117.977 105.292C117.628 105.216 117.298 105.073 117.005 104.871C116.712 104.668 116.462 104.409 116.269 104.11C116.076 103.81 115.943 103.476 115.88 103.125L115.879 103.12C115.612 101.645 116.752 101.123 118.226 100.857C119.701 100.59 120.952 100.679 121.219 102.153Z" fill="white"/>
<path d="M95.3483 70.3138C94.0927 69.2543 92.5561 68.5825 90.9257 68.3803C89.2953 68.1782 87.6412 68.4542 86.1648 69.175C84.6884 69.8957 83.4533 71.03 82.6098 72.4399C81.7663 73.8498 81.3508 75.4744 81.4138 77.1162C81.4769 78.7579 82.0157 80.3459 82.9648 81.687C83.9139 83.028 85.2323 84.0643 86.7596 84.6698C88.287 85.2752 89.9573 85.4236 91.5674 85.097C93.1776 84.7704 94.6581 83.9829 95.8288 82.8302L106.225 91.6021C106.383 91.7356 106.588 91.8009 106.794 91.7835C107 91.7661 107.191 91.6676 107.325 91.5095C107.458 91.3514 107.524 91.1468 107.507 90.9405C107.489 90.7342 107.391 90.5431 107.233 90.4093L107.232 90.4084L96.8361 81.6364C98.0438 79.9032 98.5607 77.7814 98.2854 75.6869C98.0102 73.5924 96.9628 71.6762 95.3483 70.3138ZM94.6781 80.7918C93.8683 81.7516 92.792 82.4497 91.5853 82.7978C90.3787 83.1459 89.0959 83.1284 87.8993 82.7474C86.7026 82.3665 85.6458 81.6393 84.8624 80.6577C84.079 79.6761 83.6043 78.4843 83.4983 77.233C83.3923 75.9816 83.6597 74.7269 84.2668 73.6276C84.8739 72.5282 85.7933 71.6335 86.9088 71.0567C88.0244 70.4799 89.2859 70.2468 90.5339 70.387C91.7819 70.5271 92.9603 71.0342 93.9201 71.8441C95.2071 72.9301 96.0101 74.4829 96.1522 76.1609C96.2944 77.8389 95.7641 79.5047 94.6781 80.7918Z" fill="#3F3D56"/>
<path opacity="0.3" d="M85.7305 81.5499C84.5124 80.522 83.7254 79.0735 83.5258 77.4922C83.3262 75.9109 83.7285 74.3123 84.653 73.0139C84.5316 73.1362 84.4142 73.2642 84.3009 73.3981C83.7632 74.0353 83.3562 74.7723 83.1033 75.5669C82.8504 76.3614 82.7564 77.198 82.8268 78.0289C82.8972 78.8598 83.1305 79.6686 83.5135 80.4093C83.8965 81.15 84.4217 81.808 85.059 82.3457C85.6962 82.8835 86.4332 83.2904 87.2278 83.5434C88.0223 83.7963 88.8589 83.8902 89.6898 83.8198C90.5206 83.7495 91.3295 83.5161 92.0702 83.1331C92.8109 82.7501 93.4689 82.225 94.0066 81.5877C94.1197 81.4537 94.2262 81.3165 94.3261 81.176C93.2017 82.3057 91.6936 82.9713 90.1013 83.0406C88.5089 83.1098 86.9487 82.5777 85.7305 81.5499Z" fill="black"/>
<path d="M41.9486 87.7142C43.1522 84.5652 43.3265 81.7061 42.3379 81.3283C41.3494 80.9504 39.5722 83.1969 38.3686 86.3459C37.165 89.4949 36.9907 92.354 37.9792 92.7319C38.9678 93.1097 40.7449 90.8633 41.9486 87.7142Z" fill="#2F2E41"/>
<path d="M28.8747 108.457C35.6171 108.457 41.0829 102.992 41.0829 96.2491C41.0829 89.5067 35.6171 84.0409 28.8747 84.0409C22.1322 84.0409 16.6664 89.5067 16.6664 96.2491C16.6664 102.992 22.1322 108.457 28.8747 108.457Z" fill="#2F2E41"/>
<path d="M27.0202 105.83H23.3113V112.475H27.0202V105.83Z" fill="#2F2E41"/>
<path d="M34.4378 105.83H30.7289V112.475H34.4378V105.83Z" fill="#2F2E41"/>
<path d="M26.402 113.711C28.109 113.711 29.4927 113.193 29.4927 112.552C29.4927 111.912 28.109 111.393 26.402 111.393C24.6951 111.393 23.3113 111.912 23.3113 112.552C23.3113 113.193 24.6951 113.711 26.402 113.711Z" fill="#2F2E41"/>
<path d="M33.8197 113.557C35.5266 113.557 36.9104 113.038 36.9104 112.398C36.9104 111.758 35.5266 111.239 33.8197 111.239C32.1128 111.239 30.729 111.758 30.729 112.398C30.729 113.038 32.1128 113.557 33.8197 113.557Z" fill="#2F2E41"/>
<path d="M29.1836 97.3308C31.488 97.3308 33.356 95.4628 33.356 93.1584C33.356 90.854 31.488 88.986 29.1836 88.986C26.8792 88.986 25.0112 90.854 25.0112 93.1584C25.0112 95.4628 26.8792 97.3308 29.1836 97.3308Z" fill="white"/>
<path d="M29.1836 94.5492C29.9517 94.5492 30.5744 93.9265 30.5744 93.1584C30.5744 92.3903 29.9517 91.7676 29.1836 91.7676C28.4155 91.7676 27.7928 92.3903 27.7928 93.1584C27.7928 93.9265 28.4155 94.5492 29.1836 94.5492Z" fill="#3F3D56"/>
<path d="M17.0322 84.8958C16.0465 80.4812 19.1975 76.0203 24.0703 74.9323C28.9431 73.8442 33.6924 76.541 34.6782 80.9557C35.6639 85.3703 32.4346 86.9985 27.5618 88.0866C22.689 89.1746 18.018 89.3105 17.0322 84.8958Z" fill="#4978D2"/>
<path d="M20.6394 93.2003C21.0929 92.244 18.9913 90.2977 15.9453 88.8531C12.8993 87.4084 10.0624 87.0125 9.60889 87.9687C9.15537 88.9249 11.257 90.8712 14.303 92.3159C17.3489 93.7605 20.1858 94.1565 20.6394 93.2003Z" fill="#2F2E41"/>
<path d="M22.8781 100.653C22.8781 101.848 25.9546 104.208 29.3685 104.208C32.7824 104.208 35.9833 100.844 35.9833 99.6488C35.9833 98.454 32.7824 99.8806 29.3685 99.8806C25.9546 99.8806 22.8781 99.4584 22.8781 100.653Z" fill="white"/>
<path d="M68.4804 130.568C75.2228 130.568 80.6886 125.102 80.6886 118.36C80.6886 111.617 75.2228 106.151 68.4804 106.151C61.738 106.151 56.2722 111.617 56.2722 118.36C56.2722 125.102 61.738 130.568 68.4804 130.568Z" fill="#2F2E41"/>
<path d="M66.6261 127.941H62.9172V134.586H66.6261V127.941Z" fill="#2F2E41"/>
<path d="M74.0437 127.941H70.3349V134.586H74.0437V127.941Z" fill="#2F2E41"/>
<path d="M66.0079 135.822C67.7148 135.822 69.0986 135.303 69.0986 134.663C69.0986 134.023 67.7148 133.504 66.0079 133.504C64.3009 133.504 62.9172 134.023 62.9172 134.663C62.9172 135.303 64.3009 135.822 66.0079 135.822Z" fill="#2F2E41"/>
<path d="M73.4256 135.667C75.1325 135.667 76.5163 135.148 76.5163 134.508C76.5163 133.868 75.1325 133.349 73.4256 133.349C71.7186 133.349 70.3349 133.868 70.3349 134.508C70.3349 135.148 71.7186 135.667 73.4256 135.667Z" fill="#2F2E41"/>
<path d="M56.6381 107.006C55.6524 102.592 58.8034 98.1308 63.6763 97.0428C68.5491 95.9547 73.2984 98.6515 74.2841 103.066C75.2699 107.481 72.0405 109.109 67.1677 110.197C62.2949 111.285 57.6239 111.421 56.6381 107.006Z" fill="#3F3D56"/>
<path d="M68.5296 116.244C68.5296 116.244 69.4152 112.348 67.7325 112.525C66.0499 112.702 63.7474 112.79 63.1275 112.79C62.5076 112.79 58.9653 112.348 58.4339 114.65C57.9025 116.953 57.1941 119.787 58.6996 121.558C58.6996 121.558 59.2309 129.351 61.2678 129.882C63.3046 130.414 68.7067 131.034 70.655 128.465C71.2254 127.701 71.6237 126.823 71.8224 125.89C72.0212 124.958 72.0156 123.993 71.8062 123.063H70.9207L68.5296 116.244Z" fill="#4978D2"/>
<path opacity="0.1" d="M59.5851 122.178C59.5851 122.178 61.0906 122.886 64.1902 122.443V123.772L59.5851 123.417V122.178Z" fill="black"/>
<path d="M70.8363 126.618L69.8338 126.088L74.2927 117.65C74.4601 117.334 74.5439 116.979 74.5362 116.621C74.5286 116.263 74.4297 115.913 74.2489 115.603C74.0682 115.294 73.8115 115.036 73.5031 114.853C73.1948 114.671 72.845 114.57 72.4869 114.561L67.8076 114.435L67.838 113.301L72.5174 113.427C73.0683 113.442 73.6064 113.597 74.0807 113.878C74.555 114.158 74.9498 114.555 75.2279 115.031C75.506 115.507 75.6581 116.046 75.6699 116.597C75.6816 117.148 75.5527 117.693 75.2952 118.18L70.8363 126.618Z" fill="#4978D2"/>
<path d="M60.0594 126.618L55.6005 118.18C55.343 117.693 55.2141 117.148 55.2258 116.597C55.2376 116.046 55.3897 115.507 55.6678 115.031C55.9459 114.556 56.3407 114.158 56.815 113.878C57.2893 113.597 57.8273 113.442 58.3782 113.427L63.0577 113.301L63.0881 114.435L58.4087 114.561C58.0506 114.57 57.7008 114.671 57.3925 114.854C57.0842 115.036 56.8275 115.294 56.6467 115.603C56.466 115.913 56.3671 116.263 56.3594 116.621C56.3518 116.979 56.4356 117.334 56.603 117.65L61.0619 126.088L60.0594 126.618Z" fill="#4978D2"/>
<path d="M84.1345 121.492C84.6836 120.454 82.4483 118.195 79.142 116.446C75.8356 114.697 72.7101 114.12 72.1611 115.158C71.612 116.196 73.8472 118.456 77.1536 120.205C80.46 121.954 83.5854 122.53 84.1345 121.492Z" fill="#2F2E41"/>
</g>
<defs>
<clipPath id="clip0">
<rect width="150" height="135.822" fill="white"/>
</clipPath>
</defs>
</svg>
