<svg width="150" height="115" viewBox="0 0 150 115" fill="none" xmlns="http://www.w3.org/2000/svg">
<g clip-path="url(#clip0)">
<path opacity="0.1" d="M85.6417 18.1019C76.1922 17.7733 67.1923 14.7233 58.5969 11.3856C50.0015 8.04784 41.4908 4.35095 32.2675 2.58135C26.3353 1.44395 19.5518 1.28335 14.7715 4.46337C10.1723 7.52951 8.68598 12.8077 7.88586 17.7106C7.28577 21.3987 6.93244 25.281 8.57939 28.7341C9.72263 31.1315 11.7536 33.1464 13.1582 35.4416C18.0435 43.4311 14.5905 53.2895 9.29775 61.0848C6.81563 64.7452 3.93346 68.2391 2.01639 72.1316C0.0993218 76.0242 -0.786938 80.4905 0.889219 84.4648C2.55224 88.407 6.5134 91.3622 10.8045 93.4428C19.5182 97.677 29.7854 98.8786 39.8029 99.5634C61.9697 101.08 84.2561 100.423 106.481 99.7663C114.707 99.5225 122.968 99.2757 131.062 98.004C135.554 97.2988 140.194 96.1775 143.456 93.4778C147.597 90.0423 148.623 84.2254 145.849 79.9167C141.194 72.6908 128.328 70.8964 125.071 63.142C123.279 58.8728 125.119 54.1188 127.721 50.1591C133.304 41.6673 142.662 34.2166 143.155 24.5101C143.494 17.8434 138.995 11.1665 132.04 8.01134C124.748 4.70574 114.639 5.12186 109.263 10.5942C103.717 16.2228 93.9816 18.3939 85.6417 18.1019Z" fill="#4978D2"/>
<path opacity="0.1" d="M84.6532 110.112C114.568 110.112 138.819 108.31 138.819 106.086C138.819 103.862 114.568 102.059 84.6532 102.059C54.7384 102.059 30.4876 103.862 30.4876 106.086C30.4876 108.31 54.7384 110.112 84.6532 110.112Z" fill="#4978D2"/>
<path d="M42.7712 93.0427C42.7712 93.0427 45.8374 92.5522 47.6771 94.7203C47.6771 94.7203 46.328 95.7832 43.4253 94.3115L42.7712 93.0427Z" fill="#4978D2"/>
<path d="M42.4412 93.0034C42.4412 93.0034 40.4862 95.4154 41.4455 98.0918C41.4455 98.0918 43.0399 97.4522 43.2136 94.2021L42.4412 93.0034Z" fill="#4978D2"/>
<path d="M40.6892 89.0363C40.6892 89.0363 41.9157 86.7878 46.8215 89.9357C46.8215 89.9357 46.1674 91.4484 44.0006 91.3257C41.8339 91.2031 41.2586 90.2292 40.6892 89.0363Z" fill="#4978D2"/>
<path d="M40.3694 88.8742C40.3694 88.8742 37.8245 88.5822 37.5778 94.4094C37.5778 94.4094 39.1911 94.7437 40.3373 92.9011C41.4834 91.0585 41.0104 90.0248 40.3694 88.8742Z" fill="#4978D2"/>
<path d="M38.8875 84.2284C38.8875 84.2284 40.3183 80.2629 45.5103 83.0837C45.5103 83.0837 44.3247 86.7222 39.4189 85.5775L38.8875 84.2284Z" fill="#4978D2"/>
<path d="M37.2916 78.3005C37.2916 78.3005 39.9912 74.2926 44.7744 78.0085C44.7744 78.0085 43.0982 81.7696 37.7004 79.7255L37.2916 78.3005Z" fill="#4978D2"/>
<path d="M36.7192 72.6574C36.7192 72.6574 39.8686 68.978 44.6109 72.6574C44.6109 72.6574 41.6265 75.887 36.7192 73.5977V72.6574Z" fill="#4978D2"/>
<path d="M36.2286 67.1791C36.2286 67.1791 39.4189 63.3362 43.9568 66.9747C43.9568 66.9747 40.3592 70.368 36.2286 68.0785V67.1791Z" fill="#4978D2"/>
<path d="M36.5148 62.3142C36.5148 62.3142 39.873 57.3661 44.1203 60.7198C44.1203 60.7198 40.5227 64.9716 36.5148 63.2545V62.3142Z" fill="#4978D2"/>
<path d="M37.2916 56.6302C37.2916 56.6302 40.8497 51.7243 44.9788 55.4855C44.9788 55.4855 40.768 59.7387 37.2916 57.5296V56.6302Z" fill="#4978D2"/>
<path d="M38.4786 51.5506C38.4786 51.5506 42.6894 46.9412 46.3629 48.7765C46.3629 48.7765 41.974 53.6721 38.2946 52.7727L38.4786 51.5506Z" fill="#4978D2"/>
<path d="M39.9504 46.7367C39.9504 46.7367 44.8153 41.095 47.6361 42.9756C47.6361 42.9756 44.0561 47.3558 39.6058 47.7938L39.9504 46.7367Z" fill="#4978D2"/>
<path d="M42.0747 41.152C42.0747 41.152 46.3279 36.5411 49.4349 37.6858C49.4349 37.6858 45.7964 42.469 41.5038 42.5916L42.0747 41.152Z" fill="#4978D2"/>
<path d="M43.9977 35.9279C43.9977 35.9279 48.6992 31.5112 50.7432 32.2879C50.7432 32.2879 47.3501 37.1952 43.7933 36.909L43.9977 35.9279Z" fill="#4978D2"/>
<path d="M45.8782 31.0965C45.8782 31.0965 49.9255 25.8228 52.1332 26.2316C52.1332 26.2316 49.6802 30.933 45.8782 31.6338V31.0965Z" fill="#4978D2"/>
<path d="M47.9194 24.5992C47.9194 24.5992 51.4966 20.5549 53.4283 20.5651C53.4283 20.5651 50.6045 25.9673 47.772 25.9177L47.9194 24.5992Z" fill="#4978D2"/>
<path d="M49.1284 20.2686L52.5829 11.8455C52.5829 11.8455 52.7566 19.4597 48.6889 21.8309L49.1284 20.2686Z" fill="#4978D2"/>
<path d="M50.5315 10.9798C50.5315 10.9798 51.1039 3.94808 50.7359 3.37573C50.7359 3.37573 53.2064 9.216 50.5067 14.0868L50.5315 10.9798Z" fill="#4978D2"/>
<path d="M38.7531 84.1334C38.7531 84.1334 35.1701 81.9126 32.85 87.3455C32.85 87.3455 36.0388 89.4612 39.1736 85.519L38.7531 84.1334Z" fill="#4978D2"/>
<path d="M37.185 78.0741C37.185 78.0741 32.7902 76.0695 30.657 81.7418C30.657 81.7418 34.0532 84.0779 37.5851 79.5079L37.185 78.0741Z" fill="#4978D2"/>
<path d="M36.5149 73.0004C36.5149 73.0004 33.367 69.321 28.6305 73.0004C28.6305 73.0004 31.6149 76.2301 36.5149 73.9407V73.0004Z" fill="#4978D2"/>
<path d="M36.1221 67.1791C36.1221 67.1791 32.9333 63.3362 28.394 66.9747C28.394 66.9747 31.993 70.368 36.1221 68.0785V67.1791Z" fill="#4978D2"/>
<path d="M36.5149 62.4544C36.5149 62.4544 34.278 56.9061 29.416 59.2962C29.416 59.2962 32.0441 64.2094 36.3178 63.3728L36.5149 62.4544Z" fill="#4978D2"/>
<path d="M37.5734 56.6024C37.5734 56.6024 35.3512 50.9651 30.4191 53.5801C30.4191 53.5801 33.4385 58.7472 37.3544 57.4741L37.5734 56.6024Z" fill="#4978D2"/>
<path d="M38.9517 51.5798C38.9517 51.5798 38.0756 45.3993 33.9874 44.8459C33.9874 44.8459 34.8532 51.3637 38.3998 52.6938L38.9517 51.5798Z" fill="#4978D2"/>
<path d="M40.054 46.747C40.054 46.747 39.7124 39.3007 36.3323 39.0422C36.3323 39.0422 36.4462 44.6942 39.673 47.8026L40.054 46.747Z" fill="#4978D2"/>
<path d="M42.4251 40.9388C42.4251 40.9388 41.4162 34.7467 38.1909 33.9889C38.1909 33.9889 38.591 39.9868 42.1068 42.4573L42.4251 40.9388Z" fill="#4978D2"/>
<path d="M44.3802 35.9716C44.3802 35.9716 44.3452 29.5225 42.3756 28.5735C42.3756 28.5735 41.152 34.4138 43.8094 36.7951L44.3802 35.9716Z" fill="#4978D2"/>
<path d="M46.0286 31.0307C46.0286 31.0307 45.7527 24.3889 43.7115 23.453C43.7115 23.453 43.0121 28.7092 45.722 31.4659L46.0286 31.0307Z" fill="#4978D2"/>
<path d="M48.2042 25.1277C48.2042 25.1277 48.191 19.7255 46.7354 18.4596C46.7354 18.4596 45.2855 24.3772 47.4435 26.2155L48.2042 25.1277Z" fill="#4978D2"/>
<path d="M48.9561 20L47.5398 11.0074C47.5398 11.0074 45.614 18.3749 49.0247 21.6207L48.9561 20Z" fill="#4978D2"/>
<path d="M49.2335 11.0658C49.2335 11.0658 45.595 5.02112 45.6695 4.34949C45.6695 4.34949 46.0564 10.6847 50.6337 13.8399L49.2335 11.0658Z" fill="#4978D2"/>
<path d="M49.6598 9.28018C49.6598 9.28018 46.2258 0.694982 44.6722 -0.00292969C44.6722 -0.00292969 49.5781 2.49086 49.946 9.03196L49.6598 9.28018Z" fill="#4978D2"/>
<path d="M47.753 25.9688L47.5193 25.8958C50.4176 16.4462 51.1403 10.419 49.5547 8.90933L49.724 8.7312C51.4046 10.3256 50.7227 16.2856 47.753 25.9688Z" fill="#444053"/>
<path d="M39.7736 48.0903L39.4261 47.9676C39.7328 47.1018 40.0657 46.2228 40.4132 45.357C43.4384 37.8128 46.0125 30.8045 47.6638 25.4183L47.9661 25.2723C46.3118 30.6585 43.783 37.9443 40.7548 45.4943C40.4088 46.3557 40.0788 47.2288 39.7736 48.0903Z" fill="#444053"/>
<path d="M47.0857 100.117C47.039 100.064 42.3405 94.7759 39.067 85.7439C37.1473 80.4574 36.0779 74.9001 35.8987 69.2787C35.6753 62.2514 37.1485 54.4036 39.6758 47.277L39.9503 47.5982C34.2794 63.5947 36.5323 77.3032 39.5211 85.557C42.761 94.5057 47.4054 99.7372 47.4507 99.7897L47.0857 100.117Z" fill="#444053"/>
<path d="M26.6141 98.9634C26.6141 98.9634 21.0586 98.629 21.7141 102.522C21.7141 102.522 21.5842 103.209 22.2076 103.522C22.2076 103.522 22.2164 103.23 22.7771 103.33C22.9762 103.364 23.1786 103.374 23.3801 103.36C23.6528 103.341 23.9121 103.235 24.1189 103.056C24.1189 103.056 25.6797 102.411 26.2871 99.8584C26.2871 99.8584 26.7368 99.3021 26.7178 99.159L25.7804 99.5591C25.7804 99.5591 26.1016 100.235 25.849 100.797C25.849 100.797 25.8184 99.5839 25.6388 99.6116C25.6023 99.6116 25.1511 99.8467 25.1511 99.8467C25.1511 99.8467 25.703 101.025 25.2869 101.881C25.2869 101.881 25.4446 100.429 24.9803 99.9314L24.3204 100.317C24.3204 100.317 24.9643 101.533 24.5277 102.526C24.5277 102.526 24.6387 101.003 24.1817 100.41L23.583 100.877C23.583 100.877 24.1875 102.076 23.8196 102.9C23.8196 102.9 23.7714 101.127 23.4531 100.993C23.4531 100.993 22.9304 101.454 22.8501 101.644C22.8501 101.644 23.2647 102.52 23.0078 102.974C23.0078 102.974 22.8501 101.793 22.7157 101.787C22.7157 101.787 22.1945 102.57 22.1405 103.101C22.1657 102.606 22.3203 102.125 22.5887 101.708C22.2883 101.765 22.0111 101.909 21.7915 102.121C21.7915 102.121 21.8718 101.568 22.7172 101.52C22.7172 101.52 23.1552 100.926 23.2633 100.889C23.2633 100.889 22.4223 100.819 21.9127 101.045C21.9127 101.045 22.361 100.524 23.418 100.753L24.0021 100.272C24.0021 100.272 22.8953 100.126 22.4252 100.288C22.4252 100.288 22.9654 99.8263 24.1612 100.162L24.8036 99.7781C24.8036 99.7781 23.8604 99.5751 23.2969 99.6481C23.2969 99.6481 23.8911 99.3284 24.992 99.6744L25.4519 99.4685C25.4519 99.4685 24.7598 99.3328 24.5584 99.3109C24.3569 99.289 24.3437 99.2335 24.3437 99.2335C24.782 99.1606 25.232 99.2111 25.6432 99.3795C25.6432 99.3795 26.6302 99.0247 26.6141 98.9634Z" fill="#4978D2"/>
<path d="M10.4658 100.77C10.4658 100.77 4.9175 100.435 5.56723 104.328C5.56723 104.328 5.43582 105.015 6.05927 105.328C6.05927 105.328 6.06949 105.036 6.63016 105.137C6.82922 105.171 7.03172 105.181 7.23316 105.166C7.50551 105.148 7.76447 105.041 7.9705 104.862C7.9705 104.862 9.53277 104.217 10.1402 101.665C10.1402 101.665 10.5884 101.108 10.5782 100.965L9.64081 101.365C9.64081 101.365 9.96203 102.041 9.70944 102.603C9.70944 102.603 9.67877 101.39 9.49919 101.418C9.46269 101.418 9.01152 101.653 9.01152 101.653C9.01152 101.653 9.56343 102.831 9.14731 103.687C9.14731 103.687 9.305 102.235 8.83924 101.738L8.17929 102.123C8.17929 102.123 8.82317 103.339 8.38661 104.332C8.38661 104.332 8.49904 102.809 8.04058 102.216L7.44341 102.684C7.44341 102.684 8.04788 103.882 7.67994 104.706C7.67994 104.706 7.63176 102.933 7.31347 102.799C7.31347 102.799 6.79076 103.26 6.71046 103.45C6.71046 103.45 7.12512 104.326 6.86815 104.78C6.86815 104.78 6.71046 103.599 6.57613 103.593C6.57613 103.593 6.05635 104.376 6.00087 104.907C6.02695 104.412 6.18197 103.932 6.45057 103.514C6.14978 103.571 5.87218 103.715 5.65191 103.928C5.65191 103.928 5.73368 103.374 6.57905 103.326C6.57905 103.326 7.01707 102.732 7.12512 102.697C7.12512 102.697 6.28412 102.625 5.77456 102.852C5.77456 102.852 6.2228 102.33 7.27988 102.56L7.86391 102.078C7.86391 102.078 6.75718 101.932 6.28704 102.094C6.28704 102.094 6.82727 101.632 8.02306 101.968L8.66549 101.584C8.66549 101.584 7.72083 101.381 7.1587 101.454C7.1587 101.454 7.75295 101.135 8.85384 101.481L9.31376 101.275C9.31376 101.275 8.62169 101.139 8.41874 101.117C8.21579 101.095 8.20557 101.04 8.20557 101.04C8.6439 100.968 9.0936 101.018 9.50503 101.186C9.50503 101.186 10.4774 100.831 10.4658 100.77Z" fill="#4978D2"/>
<path d="M19.4656 105.01C19.4656 105.01 13.9174 104.675 14.5656 108.568C14.5656 108.568 14.4357 109.255 15.0591 109.568C15.0591 109.568 15.0693 109.276 15.6286 109.377C15.8282 109.41 16.0311 109.42 16.233 109.406C16.5052 109.387 16.764 109.281 16.9704 109.102C16.9704 109.102 18.5312 108.457 19.1386 105.905C19.1386 105.905 19.5883 105.348 19.5766 105.205L18.6392 105.605C18.6392 105.605 18.959 106.281 18.7078 106.843C18.7078 106.843 18.6772 105.63 18.4961 105.658C18.4596 105.658 18.0099 105.893 18.0099 105.893C18.0099 105.893 18.5604 107.07 18.1442 107.927C18.1442 107.927 18.3019 106.475 17.8376 105.978L17.1777 106.363C17.1777 106.363 17.8216 107.579 17.385 108.572C17.385 108.572 17.4974 107.049 17.039 106.456L16.4403 106.924C16.4403 106.924 17.0463 108.122 16.6769 108.946C16.6769 108.946 16.6287 107.173 16.3119 107.039C16.3119 107.039 15.7877 107.5 15.7089 107.69C15.7089 107.69 16.1235 108.566 15.8651 109.02C15.8651 109.02 15.7074 107.839 15.5731 107.833C15.5731 107.833 15.0518 108.616 14.9978 109.147C15.023 108.652 15.1776 108.172 15.446 107.754C15.1456 107.811 14.8685 107.955 14.6488 108.168C14.6488 108.168 14.7292 107.614 15.576 107.566C15.576 107.566 16.0052 106.972 16.1206 106.935C16.1206 106.935 15.2796 106.865 14.77 107.092C14.77 107.092 15.2197 106.57 16.2754 106.807L16.8594 106.325C16.8594 106.325 15.7527 106.179 15.2825 106.341C15.2825 106.341 15.8242 105.88 17.0185 106.216L17.6624 105.832C17.6624 105.832 16.7236 105.633 16.16 105.706C16.16 105.706 16.7528 105.386 17.8552 105.732L18.3136 105.526C18.3136 105.526 17.623 105.391 17.4201 105.369C17.2171 105.347 17.2069 105.291 17.2069 105.291C17.6452 105.218 18.0951 105.269 18.5063 105.437C18.5063 105.437 19.4817 105.071 19.4656 105.01Z" fill="#4978D2"/>
<path opacity="0.1" d="M15.1351 110.641C17.3066 110.641 19.067 110.343 19.067 109.977C19.067 109.61 17.3066 109.312 15.1351 109.312C12.9635 109.312 11.2031 109.61 11.2031 109.977C11.2031 110.343 12.9635 110.641 15.1351 110.641Z" fill="#4978D2"/>
<path opacity="0.1" d="M139.851 110.641C142.023 110.641 143.783 110.343 143.783 109.977C143.783 109.61 142.023 109.312 139.851 109.312C137.68 109.312 135.919 109.61 135.919 109.977C135.919 110.343 137.68 110.641 139.851 110.641Z" fill="#4978D2"/>
<path opacity="0.1" d="M102.197 114.465C104.369 114.465 106.129 114.167 106.129 113.801C106.129 113.434 104.369 113.136 102.197 113.136C100.026 113.136 98.2654 113.434 98.2654 113.801C98.2654 114.167 100.026 114.465 102.197 114.465Z" fill="#4978D2"/>
<path opacity="0.1" d="M146.07 104.882C148.241 104.882 150.001 104.585 150.001 104.218C150.001 103.851 148.241 103.554 146.07 103.554C143.898 103.554 142.138 103.851 142.138 104.218C142.138 104.585 143.898 104.882 146.07 104.882Z" fill="#4978D2"/>
<path opacity="0.1" d="M22.7872 104.468C24.9588 104.468 26.7192 104.17 26.7192 103.803C26.7192 103.437 24.9588 103.139 22.7872 103.139C20.6157 103.139 18.8553 103.437 18.8553 103.803C18.8553 104.17 20.6157 104.468 22.7872 104.468Z" fill="#4978D2"/>
<path opacity="0.1" d="M6.63454 106.332C8.8061 106.332 10.5665 106.035 10.5665 105.668C10.5665 105.301 8.8061 105.004 6.63454 105.004C4.46297 105.004 2.70258 105.301 2.70258 105.668C2.70258 106.035 4.46297 106.332 6.63454 106.332Z" fill="#4978D2"/>
<path d="M105.751 11.6426H45.633C44.8427 11.6426 44.2021 12.2832 44.2021 13.0734V103.858C44.2021 104.648 44.8427 105.288 45.633 105.288H105.751C106.541 105.288 107.182 104.648 107.182 103.858V13.0734C107.182 12.2832 106.541 11.6426 105.751 11.6426Z" fill="#3A3768"/>
<path opacity="0.1" d="M97.9325 19.6919H54.2313C51.8759 19.6919 49.9664 21.6013 49.9664 23.9568V33.837C49.9664 36.1924 51.8759 38.1019 54.2313 38.1019H97.9325C100.288 38.1019 102.197 36.1924 102.197 33.837V23.9568C102.197 21.6013 100.288 19.6919 97.9325 19.6919Z" fill="black"/>
<path d="M100.253 20.0511H51.7915C50.969 20.0511 50.3022 20.7179 50.3022 21.5404V36.3674C50.3022 37.1899 50.969 37.8567 51.7915 37.8567H100.253C101.075 37.8567 101.742 37.1899 101.742 36.3674V21.5404C101.742 20.7179 101.075 20.0511 100.253 20.0511Z" fill="#E6E8EC"/>
<path opacity="0.1" d="M60.5972 45.7701H53.3611C52.491 45.7701 51.7857 46.4755 51.7857 47.3456V55.7351C51.7857 56.6052 52.491 57.3105 53.3611 57.3105H60.5972C61.4673 57.3105 62.1726 56.6052 62.1726 55.7351V47.3456C62.1726 46.4755 61.4673 45.7701 60.5972 45.7701Z" fill="black"/>
<path opacity="0.1" d="M73.2925 45.7701H66.0564C65.1863 45.7701 64.481 46.4755 64.481 47.3456V55.7351C64.481 56.6052 65.1863 57.3105 66.0564 57.3105H73.2925C74.1625 57.3105 74.8679 56.6052 74.8679 55.7351V47.3456C74.8679 46.4755 74.1625 45.7701 73.2925 45.7701Z" fill="black"/>
<path opacity="0.1" d="M85.9877 45.7701H78.7516C77.8815 45.7701 77.1762 46.4755 77.1762 47.3456V55.7351C77.1762 56.6052 77.8815 57.3105 78.7516 57.3105H85.9877C86.8578 57.3105 87.5631 56.6052 87.5631 55.7351V47.3456C87.5631 46.4755 86.8578 45.7701 85.9877 45.7701Z" fill="black"/>
<path opacity="0.1" d="M96.0476 46.0155H94.0824C91.7568 46.0155 89.8715 47.9008 89.8715 50.2263V53.345C89.8715 55.6706 91.7568 57.5559 94.0824 57.5559H96.0476C98.3732 57.5559 100.258 55.6706 100.258 53.345V50.2263C100.258 47.9008 98.3732 46.0155 96.0476 46.0155Z" fill="black"/>
<path d="M98.683 45.7701H91.4469C90.5769 45.7701 89.8715 46.4755 89.8715 47.3456V55.7351C89.8715 56.6052 90.5769 57.3105 91.4469 57.3105H98.683C99.5531 57.3105 100.258 56.6052 100.258 55.7351V47.3456C100.258 46.4755 99.5531 45.7701 98.683 45.7701Z" fill="#4978D2"/>
<path opacity="0.1" d="M60.5972 58.4655H53.3611C52.491 58.4655 51.7857 59.1708 51.7857 60.0409V68.4304C51.7857 69.3005 52.491 70.0058 53.3611 70.0058H60.5972C61.4673 70.0058 62.1726 69.3005 62.1726 68.4304V60.0409C62.1726 59.1708 61.4673 58.4655 60.5972 58.4655Z" fill="black"/>
<path opacity="0.1" d="M73.2925 58.4655H66.0564C65.1863 58.4655 64.481 59.1708 64.481 60.0409V68.4304C64.481 69.3005 65.1863 70.0058 66.0564 70.0058H73.2925C74.1625 70.0058 74.8679 69.3005 74.8679 68.4304V60.0409C74.8679 59.1708 74.1625 58.4655 73.2925 58.4655Z" fill="black"/>
<path opacity="0.1" d="M85.9877 58.4655H78.7516C77.8815 58.4655 77.1762 59.1708 77.1762 60.0409V68.4304C77.1762 69.3005 77.8815 70.0058 78.7516 70.0058H85.9877C86.8578 70.0058 87.5631 69.3005 87.5631 68.4304V60.0409C87.5631 59.1708 86.8578 58.4655 85.9877 58.4655Z" fill="black"/>
<path opacity="0.1" d="M60.5972 72.4792H53.3611C52.491 72.4792 51.7857 73.1846 51.7857 74.0547V82.4442C51.7857 83.3143 52.491 84.0196 53.3611 84.0196H60.5972C61.4673 84.0196 62.1726 83.3143 62.1726 82.4442V74.0547C62.1726 73.1846 61.4673 72.4792 60.5972 72.4792Z" fill="black"/>
<path opacity="0.1" d="M73.2925 72.4792H66.0564C65.1863 72.4792 64.481 73.1846 64.481 74.0547V82.4442C64.481 83.3143 65.1863 84.0196 66.0564 84.0196H73.2925C74.1625 84.0196 74.8679 83.3143 74.8679 82.4442V74.0547C74.8679 73.1846 74.1625 72.4792 73.2925 72.4792Z" fill="black"/>
<path opacity="0.1" d="M85.9877 72.4792H78.7516C77.8815 72.4792 77.1762 73.1846 77.1762 74.0547V82.4442C77.1762 83.3143 77.8815 84.0196 78.7516 84.0196H85.9877C86.8578 84.0196 87.5631 83.3143 87.5631 82.4442V74.0547C87.5631 73.1846 86.8578 72.4792 85.9877 72.4792Z" fill="black"/>
<path opacity="0.1" d="M85.9877 86.4929H78.7516C77.8815 86.4929 77.1762 87.1983 77.1762 88.0683V96.4579C77.1762 97.328 77.8815 98.0333 78.7516 98.0333H85.9877C86.8578 98.0333 87.5631 97.328 87.5631 96.4579V88.0683C87.5631 87.1983 86.8578 86.4929 85.9877 86.4929Z" fill="black"/>
<path opacity="0.1" d="M96.0476 58.7108H94.0824C91.7568 58.7108 89.8715 60.5961 89.8715 62.9216V66.0403C89.8715 68.3659 91.7568 70.2511 94.0824 70.2511H96.0476C98.3732 70.2511 100.258 68.3659 100.258 66.0403V62.9216C100.258 60.5961 98.3732 58.7108 96.0476 58.7108Z" fill="black"/>
<path d="M98.6086 58.4655H91.5214C90.6102 58.4655 89.8715 59.2041 89.8715 60.1153V68.3559C89.8715 69.2671 90.6102 70.0058 91.5214 70.0058H98.6086C99.5198 70.0058 100.258 69.2671 100.258 68.3559V60.1153C100.258 59.2041 99.5198 58.4655 98.6086 58.4655Z" fill="#4978D2"/>
<path opacity="0.2" d="M98.6086 58.4655H91.5214C90.6102 58.4655 89.8715 59.2041 89.8715 60.1153V68.3559C89.8715 69.2671 90.6102 70.0058 91.5214 70.0058H98.6086C99.5198 70.0058 100.258 69.2671 100.258 68.3559V60.1153C100.258 59.2041 99.5198 58.4655 98.6086 58.4655Z" fill="black"/>
<path opacity="0.1" d="M73.402 86.4929H53.2516C52.442 86.4929 51.7857 87.1492 51.7857 87.9588V96.5674C51.7857 97.377 52.442 98.0333 53.2516 98.0333H73.402C74.2116 98.0333 74.8679 97.377 74.8679 96.5674V87.9588C74.8679 87.1492 74.2116 86.4929 73.402 86.4929Z" fill="black"/>
<path opacity="0.1" d="M98.5545 72.4792H90.584C89.6438 72.4792 88.8816 73.2415 88.8816 74.1817V96.3324C88.8816 97.2726 89.6438 98.0348 90.584 98.0348H98.5545C99.4948 98.0348 100.257 97.2726 100.257 96.3324V74.1817C100.257 73.2415 99.4948 72.4792 98.5545 72.4792Z" fill="black"/>
<path d="M99.4319 34.7467H94.8853V35.2387H99.4319V34.7467Z" fill="#4978D2"/>
<path d="M92.7756 34.7467H88.2289V35.2387H92.7756V34.7467Z" fill="#4978D2"/>
<path d="M86.1178 34.7467H81.5711V35.2387H86.1178V34.7467Z" fill="#4978D2"/>
<path d="M79.4612 34.7467H74.9146V35.2387H79.4612V34.7467Z" fill="#4978D2"/>
<path d="M128.467 69.286C128.936 67.7092 128.467 66.1323 128.467 66.1323V64.6445C128.467 64.6445 129.003 61.736 126.611 59.8701L125.025 58.4713C125.025 58.4713 124.136 57.7077 123.878 57.6595C123.83 57.6492 123.781 57.6418 123.732 57.6376L123.685 57.6099C123.549 57.3768 123.433 57.1326 123.338 56.8799C123.44 56.8931 123.545 56.8827 123.643 56.8492C123.741 56.8158 123.83 56.7604 123.903 56.6871C123.96 56.6212 124.005 56.5455 124.036 56.4637C124.128 56.2579 124.144 56.0082 124.221 55.7892C124.289 55.6116 124.388 55.4475 124.513 55.3044C124.497 55.3307 124.479 55.3555 124.465 55.3833C124.69 55.103 124.983 54.8635 125.195 54.5686C125.237 54.5101 125.275 54.4491 125.31 54.3861C125.301 54.3992 125.29 54.4109 125.28 54.424C125.572 53.9553 125.661 53.3874 125.745 52.8399C125.786 52.6535 125.789 52.4609 125.754 52.2733C125.713 52.1489 125.66 52.0286 125.596 51.9142C125.252 51.2031 125.258 50.3081 124.707 49.7401C124.293 49.3152 123.665 49.1853 123.073 49.1123C122.482 49.0393 121.86 48.997 121.352 48.6874C121.21 48.5799 121.053 48.4938 120.886 48.4319C120.802 48.4026 120.711 48.4035 120.627 48.4344C120.544 48.4653 120.474 48.5243 120.429 48.6013C120.419 48.6469 120.398 48.6893 120.368 48.7254C120.341 48.7404 120.312 48.7491 120.281 48.7509C120.251 48.7527 120.221 48.7474 120.193 48.7356L119.406 48.5254L119.414 48.5648H119.394L119.423 48.6889C119.439 48.6862 119.454 48.6889 119.468 48.6966C119.482 48.7044 119.492 48.7166 119.498 48.7312L119.371 48.9269C119.127 48.9224 118.887 48.8729 118.661 48.7809C118.66 48.7935 118.66 48.8062 118.661 48.8188H118.649C118.635 49.0408 118.887 49.1853 118.965 49.3941C118.996 49.4855 118.996 49.5845 118.965 49.6759C118.933 49.7606 118.883 49.8374 118.819 49.9007C118.54 50.1767 118.182 50.1227 117.861 50.2964C117.833 50.3083 117.808 50.326 117.788 50.3485C117.768 50.3709 117.753 50.3975 117.744 50.4264C117.731 50.4479 117.728 50.4736 117.734 50.4979C117.747 50.5314 117.77 50.5601 117.8 50.5797C117.893 50.6553 117.996 50.719 118.105 50.7695C118.073 50.7987 118.042 50.8279 118.013 50.8585C117.605 51.2728 117.306 51.7817 117.143 52.3396C116.98 52.8975 116.958 53.4871 117.079 54.0558C117.199 54.6244 117.458 55.1543 117.834 55.5982C118.209 56.0421 118.688 56.3861 119.229 56.5995C119.241 56.6608 119.249 56.7236 119.258 56.7893C119.258 56.7966 119.258 56.801 119.258 56.8083L119.267 56.893L118.207 57.3442C118.047 57.3429 117.891 57.2963 117.756 57.2097C117.622 57.1231 117.515 57.0001 117.448 56.855C117.201 56.3455 116.329 56.855 116.329 56.855C116.329 56.855 113.671 56.6565 112.679 57.147C112.679 57.147 111.092 56.4813 110.869 56.436C110.645 56.3907 110.311 56.2141 110.155 56.2593C109.998 56.3046 109.797 55.9673 109.685 55.9921C109.572 56.017 109.528 55.7702 109.171 55.6811C108.813 55.5921 108.679 55.7045 108.277 55.3044C107.876 54.9044 104.611 53.3275 104.611 53.3275L103.145 52.1215L101.581 50.8775L101.553 50.9286C101.543 50.8921 101.533 50.8542 101.523 50.8133C101.367 50.1936 101.172 49.5844 100.939 48.9897C100.838 48.7487 100.793 48.4451 100.657 48.6057C100.574 48.702 100.432 48.4903 100.219 48.3472C100.174 48.316 100.122 48.2952 100.068 48.2865C100.014 48.2777 99.9582 48.2811 99.9055 48.2965C99.8528 48.3119 99.8041 48.3389 99.7631 48.3754C99.7221 48.412 99.6898 48.4572 99.6685 48.5078C98.4508 50.4176 98.0142 50.5519 98.7195 51.2542C99.3487 51.8777 99.7663 52.4223 100.279 52.5946L100.34 52.6135C100.329 52.6164 100.318 52.6164 100.307 52.6135L103.279 56.1673C103.279 56.1673 105.424 58.0333 106.9 58.6319C108.376 59.2306 108.262 59.4102 108.262 59.4102C108.262 59.4102 112.733 61.6747 113.425 61.6309C114.117 61.5871 113.984 66.2725 113.694 67.0332C113.403 67.7939 112.935 73.2516 112.935 73.2516C112.935 73.2516 112.486 74.4065 112.957 75.2052C112.957 75.2052 113.06 76.7353 112.967 77.1032C112.559 77.7311 111.978 78.7969 111.883 79.8934C111.883 79.9518 111.872 80.0059 111.866 80.0628C111.836 80.0974 111.801 80.1265 111.761 80.1489L111.86 80.1197C111.818 80.5768 111.72 81.0269 111.568 81.4601C111.332 82.0684 111.207 82.7143 111.199 83.3669V86.8945L110.907 89.0846C110.907 89.0846 110.549 90.7417 110.907 91.1286C111.057 91.3216 111.128 91.5655 111.102 91.809C111.087 92.0918 111.168 92.3714 111.33 92.6033C111.392 92.6712 111.438 92.7525 111.463 92.8409C111.488 92.9293 111.493 93.0224 111.476 93.1129C111.358 93.4969 111.651 97.5836 111.651 97.5836C111.651 97.5836 111.565 98.7093 111.447 98.7692C111.329 98.829 111.651 100.072 111.651 100.072C111.651 100.072 110.444 101.079 110.752 101.612L111.06 102.085L110.978 102.165L110.929 102.216C110.835 102.163 110.727 102.142 110.62 102.158C110.241 102.546 109.835 102.908 109.406 103.24C108.861 103.633 107.379 104.202 107.379 104.202L106.211 104.297H106.189C106.189 104.297 105.63 104.244 105.944 105.11C106.258 105.976 109.064 105.71 109.064 105.71L110.702 105.452C110.702 105.452 113.622 105.467 114.459 105.281C114.808 105.204 114.897 105.017 114.868 104.828L114.859 104.82C114.819 104.64 114.737 104.472 114.62 104.331C114.614 104.321 114.607 104.312 114.599 104.304L114.652 103.706C115.891 102.992 114.301 101.587 114.301 101.587C114.301 101.587 114.846 100.403 115.125 100.019C115.404 99.635 115.404 93.9772 115.404 93.9772C115.404 93.9772 115.55 91.9331 115.166 91.4601C115.159 91.306 115.194 91.1531 115.268 91.0176C115.341 90.882 115.45 90.769 115.583 90.6906C115.859 90.5023 116.693 87.9077 117.347 85.7541L117.759 88.2917C117.759 88.2917 117.67 89.5065 117.937 89.8613C117.987 89.9282 118.023 90.0048 118.042 90.0862C118.061 90.1676 118.063 90.2521 118.048 90.3344C117.984 90.6749 118.005 91.0257 118.108 91.3564C118.139 91.4983 118.215 91.6263 118.325 91.7214C118.563 91.8397 118.578 92.2617 118.667 92.3507C118.756 92.4398 119.308 92.2252 119.337 92.5508C119.354 92.8367 119.354 93.1233 119.337 93.4093L119.517 98.6801C119.517 98.6801 119.225 99.1181 119.159 100.286C119.134 100.784 119.041 101.067 118.944 101.229C118.891 101.316 118.866 101.418 118.874 101.52C118.882 101.622 118.922 101.718 118.988 101.796L119.039 101.856L118.819 102.025C118.73 102.094 118.668 102.191 118.643 102.301C118.618 102.41 118.632 102.525 118.681 102.625C118.61 102.687 118.559 102.769 118.535 102.86C118.511 102.951 118.515 103.047 118.546 103.136C118.555 103.166 118.567 103.193 118.584 103.219C118.416 103.246 118.261 103.323 118.138 103.44C117.918 103.743 117.653 104.009 117.351 104.231C116.914 104.566 116.495 104.925 116.097 105.306C115.909 105.561 115.658 105.763 115.367 105.89C115.296 105.919 115.222 105.941 115.147 105.956C114.563 106.075 114.745 106.686 115.221 106.786C115.697 106.887 117.277 107.37 118.506 107.089C118.506 107.089 118.871 107.235 119.407 106.963C119.943 106.692 121.139 106.359 121.139 106.359C121.139 106.359 121.809 106.359 121.899 106.093C121.923 106.008 121.936 105.921 121.937 105.833L121.956 105.814L121.939 105.798C121.941 105.599 121.925 105.4 121.894 105.204C121.876 105.101 121.857 105.011 121.84 104.938C121.783 104.716 121.676 104.428 121.631 104.307C121.638 104.298 121.645 104.287 121.651 104.277C121.907 103.839 121.482 102.799 121.482 102.799C121.621 102.578 121.791 102.377 121.986 102.202C122.224 102.024 122.85 97.404 122.85 97.404C122.85 97.404 122.819 96.2199 123.142 95.687C123.465 95.1541 122.695 91.9273 122.695 91.9273C122.695 91.9273 122.367 91.187 122.486 90.9199C122.606 90.6527 122.367 89.6759 122.367 89.6759V88.5078C122.366 88.3688 122.343 88.2307 122.298 88.099C122.206 87.8245 122.07 87.2974 122.218 86.9193C122.427 86.3864 122.903 83.0997 122.903 83.0997C122.903 83.0997 122.53 81.6499 123.076 80.495C123.119 80.4027 123.168 80.3135 123.222 80.2278C123.627 79.5927 123.506 78.464 123.306 77.5544C123.276 77.4084 123.243 77.277 123.209 77.15C123.196 77.0945 123.181 77.0419 123.167 76.9894L123.231 76.9631C123.231 76.9631 123.231 76.8769 123.252 76.7295C123.472 76.6858 123.681 76.5973 123.866 76.4694C124.051 76.3416 124.207 76.1772 124.326 75.9863C124.326 75.9863 125.69 74.4532 126.896 73.8093C128.102 73.1654 128.192 72.2325 128.192 72.2325C128.014 71.9215 128.512 70.6556 128.512 70.6556L128.467 69.286ZM124.533 71.3301L123.243 72.8267V72.8179C122.907 72.3507 123.555 71.3068 123.555 71.3068L124.628 68.9123C124.62 69.2189 124.582 69.4963 124.482 69.6175C124.19 70.0175 125.02 70.6848 125.02 70.6848C124.577 70.6863 124.533 71.3301 124.533 71.3301Z" fill="url(#paint0_linear)"/>
<path d="M101.809 51.7083L101.104 53.0764C100.88 53.0572 100.66 53.0112 100.448 52.9391C100.112 52.8387 99.8006 52.6681 99.5351 52.4385C99.2696 52.209 99.0558 51.9258 98.9078 51.6075C98.2785 50.2175 99.3195 49.3196 99.8042 49.0538C100.289 48.7881 100.74 48.4859 101.104 49.3575C101.332 49.9489 101.523 50.5541 101.675 51.1695C101.759 51.4893 101.809 51.7083 101.809 51.7083Z" fill="#CC818C"/>
<path d="M124.205 58.8246L123.079 60.5008C123.079 60.5008 117.76 63.0384 118.776 60.0628C119.223 58.7487 119.276 57.7895 119.195 57.1251C119.195 57.1178 119.195 57.1135 119.195 57.1062C119.09 56.2754 118.778 55.9147 118.778 55.9147C118.778 55.9147 123.963 53.2603 123.19 55.0752C123.033 55.4524 122.97 55.8625 123.008 56.2695C123.071 56.8558 123.262 57.4212 123.565 57.9267C123.748 58.2467 123.962 58.5475 124.205 58.8246Z" fill="#CC818C"/>
<path d="M122.586 92.028C122.586 92.028 123.351 95.2402 123.024 95.7643C122.697 96.2885 122.732 97.4711 122.732 97.4711C122.732 97.4711 122.114 102.062 121.879 102.237C121.686 102.408 121.518 102.604 121.378 102.821C121.378 102.821 121.799 103.86 121.546 104.29C121.507 104.355 121.448 104.406 121.378 104.436C120.984 104.602 119.527 103.863 118.698 103.414C118.631 103.377 118.574 103.325 118.531 103.262C118.489 103.198 118.463 103.126 118.454 103.05C118.446 102.975 118.456 102.898 118.484 102.827C118.511 102.756 118.556 102.693 118.613 102.643C118.563 102.543 118.549 102.429 118.574 102.321C118.598 102.212 118.659 102.115 118.747 102.047L118.966 101.878L118.915 101.818C118.85 101.74 118.81 101.644 118.802 101.543C118.794 101.442 118.819 101.341 118.871 101.254C118.966 101.095 119.058 100.816 119.083 100.318C119.143 99.1707 119.436 98.7297 119.436 98.7297L119.26 93.491C119.276 93.207 119.276 92.9223 119.26 92.6383C119.231 92.3157 118.686 92.5288 118.598 92.4398C118.511 92.3507 118.495 91.9331 118.26 91.8148C118.151 91.7197 118.077 91.5922 118.046 91.4513C117.943 91.1208 117.922 90.7697 117.987 90.4292C118.002 90.3476 118 90.2636 117.981 90.1827C117.962 90.1018 117.927 90.0257 117.877 89.9591C117.613 89.6058 117.7 88.4012 117.7 88.4012L117.294 85.8782C116.648 88.0187 115.826 90.5972 115.553 90.784C115.422 90.8625 115.314 90.9748 115.242 91.1092C115.169 91.2436 115.134 91.3951 115.141 91.5477C115.523 92.0193 115.376 94.0502 115.376 94.0502C115.376 94.0502 115.376 99.6685 115.1 100.053C114.824 100.437 114.29 101.618 114.29 101.618C114.29 101.618 115.867 103.021 114.626 103.729H114.612C113.346 104.436 110.729 102.465 110.729 102.465L111.002 102.192L111.082 102.111L110.772 101.65C110.469 101.12 111.66 100.12 111.66 100.12C111.66 100.12 111.342 98.883 111.459 98.8246C111.575 98.7662 111.66 97.6478 111.66 97.6478C111.66 97.6478 111.368 93.5874 111.488 93.2048C111.504 93.1148 111.499 93.0224 111.474 92.9346C111.448 92.8468 111.403 92.7659 111.342 92.6982C111.181 92.4678 111.102 92.1903 111.117 91.9098C111.142 91.6678 111.073 91.4253 110.923 91.2337C110.569 90.8512 110.923 89.2042 110.923 89.2042L111.215 87.0258V83.5669C111.219 82.8992 111.344 82.2378 111.584 81.6148C111.763 81.1098 111.871 80.5827 111.905 80.0482C112.002 78.9327 112.602 77.8493 113.005 77.2317C113.218 76.9046 113.377 76.709 113.377 76.709L122.792 76.3411C122.792 76.3411 122.938 76.7601 123.095 77.3427C123.127 77.4697 123.16 77.604 123.19 77.7442C123.387 78.6494 123.506 79.7708 123.107 80.4015C123.053 80.487 123.004 80.5758 122.961 80.6672C122.422 81.8149 122.79 83.2559 122.79 83.2559C122.79 83.2559 122.32 86.5206 122.114 87.0521C121.968 87.4273 122.102 87.9515 122.194 88.2202C122.237 88.3517 122.26 88.4891 122.26 88.6275V89.7912C122.26 89.7912 122.497 90.7621 122.378 91.0279C122.26 91.2936 122.586 92.028 122.586 92.028Z" fill="#444053"/>
<path opacity="0.1" d="M123.019 80.495C122.965 80.5797 122.916 80.668 122.873 80.7592L122.343 80.73C122.394 80.457 122.034 77.8975 122.034 77.8975L123.101 77.8376C123.298 78.7414 123.418 79.8628 123.019 80.495Z" fill="black"/>
<path d="M123.107 80.4058C123.053 80.4914 123.004 80.5801 122.961 80.6716L122.431 80.6409C122.482 80.3693 122.122 77.8084 122.122 77.8084L123.189 77.7485C123.387 78.6538 123.506 79.7751 123.107 80.4058Z" fill="#444053"/>
<path opacity="0.05" d="M123.107 80.4058C123.053 80.4914 123.004 80.5801 122.961 80.6716L122.431 80.6409C122.482 80.3693 122.122 77.8084 122.122 77.8084L123.189 77.7485C123.387 78.6538 123.506 79.7751 123.107 80.4058Z" fill="black"/>
<path opacity="0.1" d="M121.548 104.296C121.509 104.361 121.45 104.412 121.38 104.442C120.986 104.608 119.528 103.869 118.699 103.419C118.596 103.362 118.517 103.269 118.479 103.157C118.952 103.071 119.261 103.595 119.261 103.595C119.34 103.545 119.428 103.512 119.52 103.497C119.612 103.482 119.706 103.486 119.796 103.508C119.887 103.53 119.972 103.569 120.047 103.625C120.122 103.68 120.185 103.75 120.232 103.83C120.637 104.425 121.504 104.174 121.504 104.174L121.548 104.296Z" fill="black"/>
<path d="M121.791 106.099C121.704 106.364 121.041 106.364 121.041 106.364C121.041 106.364 119.857 106.703 119.327 106.968C118.797 107.232 118.438 107.093 118.438 107.093C117.224 107.372 115.664 106.887 115.193 106.791C114.723 106.694 114.539 106.086 115.12 105.967C115.195 105.952 115.268 105.93 115.338 105.9C115.629 105.774 115.881 105.573 116.068 105.316C116.461 104.938 116.875 104.582 117.308 104.249C117.605 104.028 117.867 103.762 118.084 103.462C118.776 102.852 119.268 103.69 119.268 103.69C119.347 103.64 119.435 103.607 119.527 103.592C119.619 103.577 119.713 103.581 119.804 103.603C119.894 103.625 119.979 103.665 120.054 103.721C120.129 103.776 120.192 103.846 120.239 103.926C120.644 104.522 121.511 104.269 121.511 104.269C121.511 104.269 121.667 104.668 121.74 104.954C121.758 105.027 121.777 105.118 121.794 105.22C121.834 105.516 121.859 105.9 121.791 106.099Z" fill="#FF748F"/>
<path d="M119.768 104.239C119.812 104.239 119.848 104.203 119.848 104.158C119.848 104.114 119.812 104.078 119.768 104.078C119.724 104.078 119.688 104.114 119.688 104.158C119.688 104.203 119.724 104.239 119.768 104.239Z" fill="#575988"/>
<path d="M119.077 104.885C119.122 104.885 119.158 104.849 119.158 104.805C119.158 104.761 119.122 104.725 119.077 104.725C119.033 104.725 118.997 104.761 118.997 104.805C118.997 104.849 119.033 104.885 119.077 104.885Z" fill="#575988"/>
<path d="M118.375 105.467C118.419 105.467 118.455 105.431 118.455 105.386C118.455 105.342 118.419 105.306 118.375 105.306C118.331 105.306 118.295 105.342 118.295 105.386C118.295 105.431 118.331 105.467 118.375 105.467Z" fill="#575988"/>
<path d="M118.739 105.207C118.783 105.207 118.819 105.171 118.819 105.126C118.819 105.082 118.783 105.046 118.739 105.046C118.694 105.046 118.658 105.082 118.658 105.126C118.658 105.171 118.694 105.207 118.739 105.207Z" fill="#575988"/>
<path d="M119.438 104.542C119.482 104.542 119.518 104.506 119.518 104.462C119.518 104.418 119.482 104.382 119.438 104.382C119.394 104.382 119.358 104.418 119.358 104.462C119.358 104.506 119.394 104.542 119.438 104.542Z" fill="#575988"/>
<path d="M121.791 106.099C121.704 106.364 121.041 106.364 121.041 106.364C121.041 106.364 119.857 106.703 119.327 106.967C118.797 107.232 118.438 107.093 118.438 107.093C117.224 107.372 115.664 106.887 115.193 106.791C114.723 106.694 114.539 106.086 115.12 105.967C115.195 105.952 115.268 105.929 115.338 105.9C115.851 106.077 116.387 106.179 116.929 106.202C118.128 106.253 119.077 106.202 119.077 106.202L120.291 105.812C120.52 105.673 120.775 105.581 121.041 105.541C121.31 105.486 121.564 105.376 121.787 105.217C121.834 105.516 121.859 105.9 121.791 106.099Z" fill="#DCE6F2"/>
<path opacity="0.5" d="M118.772 106.859C118.705 106.86 118.637 106.854 118.571 106.84L118.588 106.754C118.836 106.792 119.09 106.757 119.318 106.652C119.426 106.61 119.534 106.559 119.639 106.506C119.745 106.454 119.892 106.388 120.023 106.34L120.143 106.299C120.209 106.275 120.276 106.254 120.34 106.226C120.377 106.211 120.413 106.194 120.448 106.176C120.534 106.131 120.626 106.096 120.72 106.072C120.768 106.063 120.817 106.057 120.866 106.053C120.911 106.05 120.956 106.045 121 106.037C121.089 106.015 121.174 105.983 121.256 105.943C121.343 105.898 121.435 105.863 121.53 105.84L121.594 105.83C121.664 105.828 121.73 105.804 121.784 105.76L121.85 105.82C121.783 105.879 121.698 105.913 121.609 105.918L121.548 105.928C121.459 105.95 121.373 105.981 121.292 106.023C121.205 106.066 121.113 106.1 121.018 106.124C120.97 106.133 120.921 106.139 120.872 106.141C120.826 106.144 120.78 106.15 120.734 106.159C120.647 106.181 120.562 106.214 120.482 106.256L120.371 106.308C120.304 106.335 120.234 106.359 120.167 106.382L120.05 106.423C119.921 106.47 119.796 106.529 119.673 106.586C119.55 106.643 119.457 106.689 119.346 106.732C119.164 106.81 118.97 106.853 118.772 106.859Z" fill="#575988"/>
<path opacity="0.1" d="M119.055 92.2411C119.055 92.2411 119.666 91.3651 120.711 91.3651C121.757 91.3651 122.203 91.2468 122.203 91.2468C122.203 91.2468 121.535 91.644 121.072 91.6951C120.609 91.7462 119.055 92.2411 119.055 92.2411Z" fill="black"/>
<path opacity="0.1" d="M119.409 92.4471C119.409 92.4471 119.961 92.0645 120.276 92.0499C120.591 92.0353 120.86 92.0061 120.86 92.0061C120.712 92.1099 120.548 92.1893 120.375 92.2412C120.117 92.3142 119.409 92.4471 119.409 92.4471Z" fill="black"/>
<path opacity="0.1" d="M119.533 92.7113C119.533 92.7113 120.364 92.777 120.371 93.0033L119.533 92.7113Z" fill="black"/>
<path opacity="0.1" d="M111.784 80.3009C111.828 80.3082 112.571 79.5285 112.622 79.2204C112.663 79.0253 112.779 78.8543 112.945 78.7444C112.945 78.7444 113.424 78.9357 112.998 79.5226C112.571 80.1096 111.784 80.3009 111.784 80.3009Z" fill="black"/>
<path opacity="0.1" d="M123.183 55.0723C123.014 55.4723 122.865 55.5103 122.891 55.8914C122.694 56.1002 122.467 56.2788 122.218 56.4214C121.692 56.7338 121.12 57.3456 120.466 57.3456C120.028 57.3459 119.593 57.2637 119.185 57.1032C119.08 56.2725 118.768 55.9118 118.768 55.9118C118.768 55.9118 123.954 53.2574 123.183 55.0723Z" fill="black"/>
<path d="M123.977 53.6604C123.977 54.3535 123.772 55.031 123.387 55.6072C123.002 56.1835 122.454 56.6326 121.814 56.8978C121.174 57.1631 120.469 57.2325 119.789 57.0972C119.11 56.962 118.485 56.6283 117.995 56.1382C117.505 55.6482 117.171 55.0238 117.036 54.344C116.901 53.6643 116.97 52.9597 117.236 52.3194C117.501 51.6791 117.95 51.1318 118.526 50.7468C119.103 50.3618 119.78 50.1562 120.473 50.1562C121.402 50.1562 122.294 50.5254 122.951 51.1826C123.608 51.8398 123.977 52.7311 123.977 53.6604Z" fill="#CC818C"/>
<path opacity="0.1" d="M124.205 58.8246L123.079 60.5008C123.079 60.5008 117.76 63.0384 118.776 60.0628C119.223 58.7487 119.276 57.7895 119.195 57.1251H119.204C119.267 57.3453 119.303 57.5723 119.311 57.8011C119.327 58.2596 119.339 58.8392 120.479 59.0305C122.377 59.3488 123.39 58.1632 123.568 57.9311C123.75 58.2494 123.964 58.5487 124.205 58.8246Z" fill="black"/>
<path opacity="0.1" d="M101.809 51.7082L101.104 53.0763C100.88 53.0572 100.66 53.0111 100.448 52.9391L100.387 52.8661C100.679 52.977 101.644 51.1447 101.644 51.1447L101.675 51.1695C101.759 51.4892 101.809 51.7082 101.809 51.7082Z" fill="black"/>
<path opacity="0.1" d="M123.095 77.3471C120.824 78.334 112.965 77.4931 112.965 77.4931C112.989 77.4093 113.002 77.323 113.005 77.2361C113.218 76.909 113.377 76.7134 113.377 76.7134L122.792 76.3455C122.792 76.3455 122.945 76.7645 123.095 77.3471Z" fill="black"/>
<path d="M119.198 57.2069L118.15 57.6551C117.992 57.6538 117.837 57.6074 117.705 57.5212C117.572 57.4351 117.467 57.3129 117.401 57.1689C117.157 56.6623 116.297 57.1689 116.297 57.1689C116.297 57.1689 113.669 56.9704 112.7 57.461C112.7 57.461 111.133 56.7981 110.913 56.7543C110.692 56.7105 110.361 56.5338 110.206 56.5776C110.051 56.6214 109.854 56.2856 109.743 56.3133C109.632 56.3411 109.588 56.0929 109.235 56.0038C108.882 55.9147 108.75 56.0257 108.359 55.6286C107.968 55.2314 104.739 53.6648 104.739 53.6648L103.279 52.4734L101.735 51.2382C101.735 51.2382 100.764 53.0691 100.476 52.9581L103.411 56.49C103.411 56.49 105.529 58.3428 106.986 58.9385C108.444 59.5343 108.333 59.7109 108.333 59.7109C108.333 59.7109 112.746 61.9623 113.43 61.9185C114.113 61.8747 113.985 66.525 113.693 67.2755C113.401 68.026 112.944 73.4545 112.944 73.4545C112.944 73.4545 112.506 74.6021 112.965 75.3964C112.965 75.3964 113.075 77.0302 112.965 77.3164C112.965 77.3164 120.872 78.1618 123.116 77.1616C123.116 77.1616 123.447 73.4983 123.116 73.0355C122.784 72.5726 123.425 71.5404 123.425 71.5404L124.837 68.3852L128.28 64.9204C128.28 64.9204 128.809 62.0295 126.448 60.1767L124.881 58.7852C124.881 58.7852 124.005 58.0275 123.748 57.9793C123.491 57.9311 123.586 57.9793 123.586 57.9793C123.586 57.9793 122.564 59.47 120.467 59.1167C119.331 58.9254 119.32 58.3458 119.299 57.8888C119.293 57.6582 119.259 57.4293 119.198 57.2069Z" fill="#67647E"/>
<path opacity="0.1" d="M123.513 69.0861C123.513 69.0861 118.657 69.2846 117.687 70.8104C117.687 70.8104 118.946 70.2132 120.07 70.3899C121.194 70.5665 123.513 69.0861 123.513 69.0861Z" fill="black"/>
<path opacity="0.1" d="M118.15 74.4035C118.15 74.4035 120.445 74.5583 120.932 74.0721C121.418 73.5859 121.419 73.2997 121.419 73.2997L118.15 74.4035Z" fill="black"/>
<path opacity="0.1" d="M123.977 64.4065C123.977 64.4065 122.034 66.7017 124.396 67.6945L123.977 64.4065Z" fill="black"/>
<path opacity="0.1" d="M112.479 59.9723C112.479 59.9723 113.186 61.4134 113.539 61.5083L112.479 59.9723Z" fill="black"/>
<path opacity="0.1" d="M110.096 59.3531C110.096 59.3531 111.862 60.9432 112.193 61.0965C112.193 61.0965 110.361 59.3531 110.096 59.3531Z" fill="black"/>
<path opacity="0.1" d="M117.135 57.8318C117.135 57.8318 115.436 60.3694 116.54 61.92C116.54 61.9142 115.922 60.0818 117.135 57.8318Z" fill="black"/>
<path d="M121.419 77.0521L120.899 77.5413L120.826 77.6084L120.225 78.1779C120.182 78.21 120.14 78.2421 120.096 78.2713C117.648 80.0234 117.157 77.3602 117.157 77.3602C117.157 77.3602 116.077 78.0669 115.922 77.4931C115.767 76.9193 118.438 76.1031 118.842 76.1469C118.878 76.1505 118.913 76.1505 118.949 76.1469C119.142 76.1148 119.327 76.0491 119.498 75.9527L119.616 75.8899C119.752 75.8134 119.884 75.73 120.012 75.6403L121.419 77.0521Z" fill="#CC818C"/>
<path opacity="0.1" d="M124.059 53.6604C124.06 54.2682 123.904 54.8659 123.604 55.3947C123.305 55.9236 122.873 56.3654 122.351 56.6769C122.302 56.5949 122.259 56.5095 122.222 56.4214C122.097 56.1294 122.019 55.814 121.892 55.5205C121.753 55.2002 121.555 54.9089 121.308 54.662C121.266 54.6131 121.213 54.5759 121.152 54.554C121.095 54.5461 121.037 54.55 120.982 54.5653C120.927 54.5806 120.875 54.6071 120.831 54.643C120.682 54.7437 120.516 54.8165 120.342 54.8577C120.254 54.8777 120.163 54.8748 120.077 54.8492C119.991 54.8237 119.913 54.7763 119.851 54.7117C119.714 54.5481 119.733 54.3087 119.772 54.0999C119.858 53.6429 120.001 53.1932 120.003 52.7289C120.004 52.2646 119.826 51.7653 119.419 51.5346C119.063 51.3316 118.62 51.3886 118.225 51.2747C118.163 51.2586 118.103 51.2381 118.045 51.2133C118.531 50.7141 119.156 50.3712 119.838 50.2286C120.52 50.086 121.23 50.1502 121.876 50.4129C122.521 50.6757 123.074 51.125 123.463 51.7035C123.852 52.282 124.059 52.9633 124.059 53.6604Z" fill="black"/>
<path d="M117.806 50.6526C117.743 50.6862 117.673 50.7475 117.692 50.8176C117.704 50.851 117.726 50.8797 117.756 50.8994C117.919 51.0313 118.108 51.1282 118.311 51.1841C118.706 51.2921 119.15 51.241 119.507 51.444C119.909 51.6732 120.091 52.174 120.091 52.6383C120.091 53.1026 119.945 53.5523 119.861 54.0079C119.822 54.2181 119.801 54.4576 119.939 54.6211C120.001 54.6853 120.079 54.7325 120.165 54.7581C120.251 54.7836 120.342 54.7867 120.429 54.7671C120.604 54.7267 120.77 54.6544 120.918 54.5539C120.963 54.5178 121.015 54.4911 121.07 54.4755C121.126 54.46 121.184 54.4558 121.241 54.4634C121.301 54.4863 121.355 54.5233 121.397 54.5715C121.644 54.8188 121.843 55.1105 121.981 55.4314C122.11 55.7235 122.186 56.0374 122.311 56.3323C122.421 56.6331 122.626 56.8896 122.895 57.0623C123.176 57.2171 123.564 57.2083 123.78 56.9689C123.996 56.7294 123.979 56.4009 124.081 56.1133C124.256 55.6125 124.745 55.2986 125.052 54.8664C125.395 54.3802 125.49 53.7699 125.583 53.1815C125.625 52.9962 125.628 52.8044 125.592 52.6179C125.552 52.4944 125.5 52.3751 125.437 52.2616C125.096 51.555 125.103 50.6658 124.561 50.1022C124.152 49.6788 123.532 49.5503 122.948 49.4773C122.364 49.4043 121.751 49.3634 121.25 49.0553C121.109 48.9491 120.955 48.8636 120.79 48.8013C120.707 48.7719 120.616 48.7728 120.533 48.8038C120.45 48.8348 120.381 48.8938 120.337 48.9706C120.327 49.0156 120.307 49.0575 120.277 49.0933C120.251 49.1084 120.222 49.1172 120.192 49.1189C120.162 49.1207 120.131 49.1154 120.104 49.1035L119.327 48.8947L119.416 49.286C119.134 49.2978 118.852 49.248 118.591 49.14C118.576 49.3619 118.826 49.505 118.903 49.7123C118.931 49.8066 118.933 49.9068 118.907 50.0017C118.881 50.0966 118.829 50.1824 118.757 50.2496C118.476 50.5329 118.124 50.4789 117.806 50.6526Z" fill="#585268"/>
<path opacity="0.1" d="M114.658 103.379L114.626 103.73H114.612C113.347 104.437 110.729 102.466 110.729 102.466L111.002 102.193C111.047 102.243 111.08 102.301 111.101 102.365C111.122 102.429 111.129 102.496 111.121 102.562L111.656 102.592L112.295 103.282C112.295 103.282 114.026 103.482 114.494 103.371L114.658 103.379Z" fill="black"/>
<path d="M114.436 105.297C113.612 105.481 110.729 105.468 110.729 105.468L109.111 105.723C109.111 105.723 106.337 105.989 106.029 105.128C105.721 104.266 106.271 104.32 106.271 104.32H106.293L107.448 104.227C107.448 104.227 108.908 103.66 109.45 103.271C109.874 102.94 110.274 102.581 110.648 102.196C110.648 102.196 111.13 102.103 111.121 102.66L111.656 102.689L112.295 103.382C112.295 103.382 114.025 103.582 114.494 103.469H114.658L114.583 104.323L114.604 104.348C114.715 104.482 115.172 105.134 114.436 105.297Z" fill="#FF748F"/>
<path d="M111.45 103.237C111.494 103.237 111.53 103.201 111.53 103.157C111.53 103.112 111.494 103.076 111.45 103.076C111.406 103.076 111.37 103.112 111.37 103.157C111.37 103.201 111.406 103.237 111.45 103.237Z" fill="#575988"/>
<path d="M109.375 104.136C109.419 104.136 109.455 104.1 109.455 104.056C109.455 104.012 109.419 103.976 109.375 103.976C109.331 103.976 109.295 104.012 109.295 104.056C109.295 104.1 109.331 104.136 109.375 104.136Z" fill="#575988"/>
<path d="M108.306 104.461C108.351 104.461 108.387 104.425 108.387 104.38C108.387 104.336 108.351 104.3 108.306 104.3C108.262 104.3 108.226 104.336 108.226 104.38C108.226 104.425 108.262 104.461 108.306 104.461Z" fill="#575988"/>
<path d="M109.92 103.964C109.964 103.964 110 103.928 110 103.884C110 103.839 109.964 103.803 109.92 103.803C109.875 103.803 109.839 103.839 109.839 103.884C109.839 103.928 109.875 103.964 109.92 103.964Z" fill="#575988"/>
<path d="M108.839 104.298C108.884 104.298 108.919 104.262 108.919 104.218C108.919 104.174 108.884 104.138 108.839 104.138C108.795 104.138 108.759 104.174 108.759 104.218C108.759 104.262 108.795 104.298 108.839 104.298Z" fill="#575988"/>
<path d="M110.47 103.709C110.514 103.709 110.55 103.673 110.55 103.628C110.55 103.584 110.514 103.548 110.47 103.548C110.426 103.548 110.39 103.584 110.39 103.628C110.39 103.673 110.426 103.709 110.47 103.709Z" fill="#575988"/>
<path d="M111.015 103.472C111.059 103.472 111.095 103.436 111.095 103.392C111.095 103.347 111.059 103.311 111.015 103.311C110.97 103.311 110.934 103.347 110.934 103.392C110.934 103.436 110.97 103.472 111.015 103.472Z" fill="#575988"/>
<path d="M114.436 105.297C113.612 105.481 110.729 105.468 110.729 105.468L109.111 105.724C109.111 105.724 106.337 105.989 106.029 105.128C105.721 104.266 106.271 104.32 106.271 104.32H106.293C106.47 104.55 106.824 104.809 107.521 104.823L109.515 104.903L111.581 104.757C111.581 104.757 113.517 104.7 113.833 104.633C114.098 104.562 114.356 104.467 114.604 104.35C114.715 104.482 115.172 105.134 114.436 105.297Z" fill="#DCE6F2"/>
<path opacity="0.5" d="M109.267 105.529C109.157 105.531 109.047 105.517 108.94 105.488L108.963 105.404C109.236 105.462 109.518 105.45 109.784 105.367C109.882 105.341 109.978 105.313 110.076 105.284C110.253 105.228 110.433 105.183 110.615 105.148C110.909 105.11 111.206 105.101 111.502 105.122H111.565C112.45 105.168 113.337 105.129 114.214 105.004C114.422 104.989 114.62 104.91 114.78 104.776L114.843 104.839C114.67 104.986 114.455 105.074 114.228 105.091C113.346 105.217 112.453 105.257 111.562 105.21H111.498C111.206 105.189 110.912 105.198 110.622 105.236C110.444 105.269 110.268 105.313 110.095 105.369C109.997 105.398 109.899 105.427 109.803 105.452C109.628 105.499 109.448 105.525 109.267 105.529Z" fill="#575988"/>
<path opacity="0.1" d="M121.419 77.0521L120.899 77.5413L119.609 75.8885C119.745 75.8119 119.877 75.7286 120.004 75.6388L121.419 77.0521Z" fill="black"/>
<path d="M127.271 63.51L128.293 64.9219V66.4009C128.293 66.4009 128.756 67.9676 128.293 69.5342L128.343 70.9023C128.343 70.9023 127.851 72.1594 128.027 72.469C128.027 72.469 127.94 73.3961 126.748 74.0356C125.557 74.6751 124.205 76.1907 124.205 76.1907C124.205 76.1907 123.697 77.1616 122.329 76.9411L121.026 77.493L119.527 75.5731L121.556 74.4692C121.556 74.4692 122.263 73.5217 122.682 73.5655L124.403 71.5564C124.403 71.5564 124.447 70.9169 124.888 70.9169C124.888 70.9169 124.072 70.2555 124.358 69.8584C124.644 69.4612 124.403 67.6945 124.403 67.6945L127.271 63.51Z" fill="#67647E"/>
<path opacity="0.1" d="M125.373 69.946C125.373 69.946 127.69 69.9022 127.976 70.4979C128.263 71.0936 126.072 69.6146 125.373 69.946Z" fill="black"/>
<path opacity="0.1" d="M120.837 77.493C120.837 77.5317 120.834 77.5703 120.826 77.6083C120.8 77.786 120.713 77.9491 120.58 78.0699C120.446 78.1906 120.276 78.2618 120.096 78.2712H120.056C119.849 78.2712 119.65 78.1891 119.504 78.0429C119.358 77.8966 119.276 77.6983 119.276 77.4915C119.276 77.4055 119.291 77.3201 119.32 77.239C118.952 76.9469 118.931 76.4096 118.941 76.1439C119.134 76.1118 119.32 76.0461 119.49 75.9497C119.586 76.2255 119.715 76.4888 119.874 76.7338C119.934 76.7197 119.995 76.7124 120.056 76.7119C120.158 76.7119 120.26 76.7321 120.354 76.7713C120.449 76.8106 120.535 76.8681 120.608 76.9407C120.68 77.0132 120.738 77.0993 120.777 77.1941C120.816 77.2888 120.837 77.3904 120.837 77.493Z" fill="black"/>
<path d="M119.56 75.7745C119.56 75.7745 119.038 75.8928 119.038 75.9877C119.038 76.0826 118.92 76.944 119.493 77.3018C120.067 77.6595 120.009 76.8083 120.009 76.8083C120.009 76.8083 119.515 76.0519 119.56 75.7745Z" fill="#575988"/>
<path d="M120.143 78.2727C120.574 78.2727 120.923 77.9237 120.923 77.4931C120.923 77.0625 120.574 76.7134 120.143 76.7134C119.712 76.7134 119.363 77.0625 119.363 77.4931C119.363 77.9237 119.712 78.2727 120.143 78.2727Z" fill="#E4AAB4"/>
<path d="M120.143 78.1618C120.512 78.1618 120.812 77.8624 120.812 77.4931C120.812 77.1237 120.512 76.8243 120.143 76.8243C119.774 76.8243 119.474 77.1237 119.474 77.4931C119.474 77.8624 119.774 78.1618 120.143 78.1618Z" fill="#DCE6F2"/>
<path opacity="0.1" d="M117.106 77.7953C117.106 77.7953 118.755 79.1619 120.872 78.2946V78.9575C120.872 78.9575 119.46 79.9285 118.181 79.34C116.902 78.7516 117.106 77.7953 117.106 77.7953Z" fill="black"/>
<path opacity="0.1" d="M117.106 77.6187C117.106 77.6187 118.755 78.9867 120.872 78.118V78.7809C120.872 78.7809 119.46 79.7518 118.181 79.1634C116.902 78.575 117.106 77.6187 117.106 77.6187Z" fill="black"/>
<path d="M117.106 77.6187C117.106 77.6187 118.755 78.9867 120.872 78.118V78.7809C120.872 78.7809 119.46 79.7518 118.181 79.1634C116.902 78.575 117.106 77.6187 117.106 77.6187Z" fill="#444053"/>
<path opacity="0.05" d="M117.15 77.6187C117.15 77.6187 118.798 78.9867 120.917 78.118V78.7809C120.917 78.7809 119.505 79.7518 118.225 79.1634C116.944 78.575 117.15 77.6187 117.15 77.6187Z" fill="black"/>
<path opacity="0.1" d="M111.927 102.193C111.927 102.193 114.135 102.599 114.458 102.686C114.78 102.774 114.37 102.929 114.37 102.929C114.37 102.929 112.355 102.568 111.927 102.193Z" fill="black"/>
<path opacity="0.1" d="M111.876 101.023C111.913 101.023 113.377 100.612 113.693 99.9065L111.876 101.023Z" fill="black"/>
<path opacity="0.1" d="M114.012 92.5799C114.012 92.5799 114.605 93.3596 114.987 93.3377C115.37 93.3158 114.36 92.5507 114.012 92.5799Z" fill="black"/>
<path opacity="0.1" d="M114.341 93.8794C114.341 93.8794 114.59 94.4298 114.958 94.2532L114.341 93.8794Z" fill="black"/>
<path opacity="0.05" d="M115.737 81.7608L117.302 85.8884C117.302 85.8884 117.522 83.2326 117.057 82.4383C116.924 82.2111 116.73 82.0266 116.496 81.9066C116.262 81.7865 115.998 81.7359 115.737 81.7608Z" fill="black"/>
<g opacity="0.1">
<path opacity="0.1" d="M119.583 49.0554L119.569 48.9955L119.318 48.9283L119.346 49.051C119.425 49.0568 119.504 49.0583 119.583 49.0554Z" fill="black"/>
<path opacity="0.1" d="M118.892 50.0511L118.918 50.0278C118.99 49.9607 119.042 49.8748 119.068 49.7799C119.093 49.685 119.092 49.5847 119.064 49.4905C119.034 49.4172 118.991 49.3496 118.939 49.2904C118.815 49.266 118.694 49.2304 118.576 49.1838C118.562 49.4043 118.81 49.5474 118.888 49.7547C118.923 49.85 118.925 49.9548 118.892 50.0511Z" fill="black"/>
<path opacity="0.1" d="M123.066 56.8361C122.794 56.6645 122.586 56.4079 122.475 56.106C122.351 55.814 122.273 55.4986 122.146 55.2066C122.008 54.8857 121.809 54.594 121.562 54.3467C121.52 54.2981 121.466 54.2609 121.406 54.2386C121.349 54.2311 121.292 54.2351 121.236 54.2505C121.181 54.2658 121.13 54.292 121.085 54.3277C120.936 54.4284 120.77 54.5011 120.596 54.5423C120.508 54.5621 120.417 54.559 120.331 54.5335C120.245 54.5079 120.168 54.4607 120.105 54.3963C119.968 54.2328 119.987 53.9919 120.026 53.7831C120.112 53.3275 120.256 52.8764 120.257 52.4135C120.258 51.9507 120.08 51.4484 119.673 51.2192C119.317 51.0162 118.874 51.0732 118.479 50.9593C118.276 50.9035 118.086 50.8066 117.922 50.6746C117.912 50.6661 117.902 50.6568 117.893 50.6469C117.86 50.6596 117.828 50.6747 117.797 50.6921C117.733 50.7257 117.664 50.787 117.681 50.8571C117.695 50.8903 117.718 50.9188 117.747 50.9389C117.91 51.0711 118.099 51.168 118.302 51.2236C118.698 51.3316 119.14 51.2805 119.496 51.4835C119.899 51.7127 120.08 52.2135 120.08 52.6778C120.08 53.1421 119.934 53.5918 119.85 54.0473C119.81 54.2576 119.791 54.497 119.928 54.6606C119.991 54.7249 120.069 54.7722 120.155 54.7977C120.241 54.8233 120.332 54.8263 120.419 54.8066C120.594 54.7662 120.76 54.6939 120.908 54.5934C120.953 54.5573 121.004 54.5306 121.059 54.515C121.115 54.4995 121.172 54.4953 121.229 54.5029C121.29 54.5254 121.343 54.5625 121.386 54.6109C121.632 54.8587 121.83 55.1504 121.97 55.4709C122.098 55.7629 122.174 56.0768 122.3 56.3718C122.409 56.6725 122.614 56.929 122.884 57.1018C123.162 57.2566 123.552 57.2478 123.76 57.0084C123.817 56.9433 123.862 56.868 123.891 56.7864C123.773 56.8742 123.633 56.9256 123.486 56.9345C123.339 56.9433 123.194 56.9091 123.066 56.8361Z" fill="black"/>
<path opacity="0.1" d="M124.328 55.7133C124.548 55.4344 124.839 55.1964 125.046 54.9044C125.087 54.846 125.125 54.7847 125.16 54.7234C124.893 55.0636 124.526 55.3337 124.328 55.7133Z" fill="black"/>
</g>
</g>
<defs>
<linearGradient id="paint0_linear" x1="113.529" y1="107.178" x2="113.529" y2="48.2815" gradientUnits="userSpaceOnUse">
<stop stop-color="#808080" stop-opacity="0.25"/>
<stop offset="0.54" stop-color="#808080" stop-opacity="0.12"/>
<stop offset="1" stop-color="#808080" stop-opacity="0.1"/>
</linearGradient>
<clipPath id="clip0">
<rect width="150" height="114.465" fill="white"/>
</clipPath>
</defs>
</svg>
